# File produced by Open Asset Import Library (http://www.assimp.sf.net)
# (assimp v3.1.187496374)

mtllib vase.obj.mtl

# 69 vertex positions
v  0.119075 -24.1269 -0.068347
v  -3.06993 -24.1269 3.05557
v  -4.37156 -24.1269 -0.068347
v  0.119075 -24.1269 -0.00326538
v  0.119075 -24.1269 -4.4939
v  0.0539932 -24.1269 -0.068347
v  3.17791 -24.1269 3.12065
v  -3.33026 -0.179829 -0.00326538
v  -2.28895 -0.179829 2.40476
v  0.119075 -0.0855484 -0.068347
v  -2.28895 -0.179829 -2.41129
v  0.119075 -0.179829 3.38098
v  2.5271 -0.179829 2.33967
v  0.119075 -0.179829 -3.45259
v  2.46202 -0.179829 -2.41129
v  3.50332 -0.179829 -0.00326538
v  -3.33026 -1.87687 -0.00326538
v  -2.28895 -1.87687 2.40476
v  -6.64942 -3.95103 -0.068347
v  -2.35403 -1.87687 -2.41129
v  -4.69697 -3.95103 -4.81931
v  0.119075 -1.87687 3.38098
v  2.5271 -1.87687 2.33967
v  0.0539932 -3.95103 6.70014
v  -4.69697 -3.95103 4.7477
v  4.87004 -3.95103 4.7477
v  0.0539932 -6.02518 8.06686
v  -5.6732 -6.02518 5.72392
v  5.84626 -6.02518 5.72392
v  0.0539932 -8.94786 8.2621
v  -5.80336 -8.94786 5.789
v  -8.01614 -6.02518 -0.068347
v  -8.21138 -8.94786 -0.068347
v  -7.56056 -13.5676 -0.068347
v  -5.34779 -13.5676 5.33343
v  -5.73828 -8.94786 -5.9257
v  -5.28271 -13.5676 -5.47012
v  -6.38909 -18.3759 -0.068347
v  -4.43664 -18.3759 -4.62406
v  -4.50173 -18.3759 4.48737
v  0.0539932 -13.5676 7.61129
v  -3.00485 -24.1269 -3.19227
v  0.0539932 -18.3759 6.43982
v  5.45577 -13.5676 5.39851
v  5.97643 -8.94786 5.789
v  4.60971 -18.3759 4.55245
v  0.0539932 -24.1269 4.42229
v  -5.6732 -6.02518 -5.79553
v  4.54463 -24.1269 -0.00326538
v  0.0539932 -24.1269 -0.00326538
v  3.243 -24.1269 -3.12718
v  0.119075 -1.87687 -3.45259
v  0.119075 -3.95103 -6.77176
v  2.46202 -1.87687 -2.47637
v  4.87004 -3.95103 -4.81931
v  0.119075 -6.02518 -8.13847
v  5.84626 -6.02518 -5.79553
v  0.119075 -8.94786 -8.33372
v  5.97643 -8.94786 -5.86061
v  8.18921 -6.02518 -0.00326538
v  8.38445 -8.94786 -0.00326538
v  5.52085 -13.5676 -5.40504
v  7.73363 -13.5676 -0.00326538
v  6.82249 -3.95103 -0.00326538
v  3.50332 -1.87687 -0.00326538
v  6.56216 -18.3759 -0.00326538
v  4.67479 -18.3759 -4.55898
v  0.119075 -13.5676 -7.6829
v  0.119075 -18.3759 -6.51143

# 118 UV coordinates
vt 0.0390625 0.960938 0
vt 0.0898438 0.980469 0
vt 0.0898438 0.910156 0
vt 0.0195312 0.910156 0
vt 0.140625 0.960938 0
vt 0.160156 0.910156 0
vt 0.0390625 0.859375 0
vt 0.0898438 0.839844 0
vt 0.140625 0.859375 0
vt 0.71875 0.707031 0
vt 0.496094 0.707031 0
vt 0.496094 0.804688 0
vt 0.71875 0.804688 0
vt 0.71875 0.609375 0
vt 0.933594 0.707031 0
vt 0.933594 0.609375 0
vt 0.269531 0.804688 0
vt 0.269531 0.707031 0
vt 0.0546875 0.804688 0
vt 0.0546875 0.707031 0
vt 0.269531 0.609375 0
vt 0.496094 0.609375 0
vt 0.0546875 0.609375 0
vt 0.269531 0.496094 0
vt 0.496094 0.496094 0
vt 0.0546875 0.496094 0
vt 0.269531 0.394531 0
vt 0.496094 0.394531 0
vt 0.71875 0.496094 0
vt 0.71875 0.394531 0
vt 0.71875 0.28125 0
vt 0.496094 0.28125 0
vt 0.933594 0.394531 0
vt 0.933594 0.28125 0
vt 0.71875 0.183594 0
vt 0.933594 0.183594 0
vt 0.496094 0.183594 0
vt 0.269531 0.28125 0
vt 0.71875 0.078125 0
vt 0.933594 0.078125 0
vt 0.496094 0.078125 0
vt 0.269531 0.183594 0
vt 0.0546875 0.28125 0
vt 0.0546875 0.394531 0
vt 0.0546875 0.183594 0
vt 0.269531 0.078125 0
vt 0.0546875 0.078125 0
vt 0.933594 0.496094 0
vt 0.933594 0.804688 0
vt 0.21875 0.863281 0
vt 0.265625 0.910156 0
vt 0.265625 0.847656 0
vt 0.199219 0.910156 0
vt 0.3125 0.863281 0
vt 0.332031 0.910156 0
vt 0.3125 0.957031 0
vt 0.265625 0.976562 0
vt 0.21875 0.957031 0
vt 0.554688 0.960938 0
vt 0.542969 0.960938 0
vt 0.535156 0.960938 0
vt 0.574219 0.960938 0
vt 0.570312 0.960938 0
vt 0.679688 0.972656 0
vt 0.699219 0.972656 0
vt 0.691406 0.972656 0
vt 0.664062 0.972656 0
vt 0.660156 0.972656 0
vt 0.554688 0.949219 0
vt 0.542969 0.949219 0
vt 0.554688 0.9375 0
vt 0.53125 0.9375 0
vt 0.570312 0.949219 0
vt 0.535156 0.949219 0
vt 0.519531 0.9375 0
vt 0.511719 0.921875 0
vt 0.523438 0.921875 0
vt 0.554688 0.921875 0
vt 0.523438 0.902344 0
vt 0.511719 0.902344 0
vt 0.554688 0.902344 0
vt 0.582031 0.9375 0
vt 0.585938 0.921875 0
vt 0.554688 0.871094 0
vt 0.527344 0.871094 0
vt 0.589844 0.902344 0
vt 0.59375 0.9375 0
vt 0.601562 0.921875 0
vt 0.601562 0.902344 0
vt 0.585938 0.871094 0
vt 0.597656 0.871094 0
vt 0.574219 0.949219 0
vt 0.511719 0.871094 0
vt 0.699219 0.960938 0
vt 0.691406 0.960938 0
vt 0.679688 0.960938 0
vt 0.679688 0.945312 0
vt 0.664062 0.960938 0
vt 0.652344 0.945312 0
vt 0.707031 0.945312 0
vt 0.679688 0.929688 0
vt 0.648438 0.929688 0
vt 0.640625 0.945312 0
vt 0.632812 0.929688 0
vt 0.660156 0.960938 0
vt 0.644531 0.910156 0
vt 0.632812 0.910156 0
vt 0.679688 0.910156 0
vt 0.648438 0.878906 0
vt 0.636719 0.878906 0
vt 0.710938 0.929688 0
vt 0.710938 0.910156 0
vt 0.679688 0.878906 0
vt 0.722656 0.929688 0
vt 0.726562 0.910156 0
vt 0.710938 0.878906 0
vt 0.722656 0.878906 0
vt 0.714844 0.945312 0

# 68 vertex normals
vn 0 -1 0
vn -0.309017 -0.809017 0.5
vn -0.681718 -0.716567 0.147621
vn -0.525731 0.850651 0
vn -0.147621 -0.681718 -0.716567
vn 0.587785 -0.688191 0.425325
vn 0 1 0
vn -0.850651 0.525731 0
vn -0.688191 0.425325 0.587785
vn -0.850651 0 0.525731
vn -1 0 0
vn -0.681718 0.716567 -0.147621
vn -0.688191 0.425325 -0.587785
vn -0.587785 0.688191 -0.425325
vn 0 0 1
vn 0 0.525731 0.850651
vn 0.525731 0 0.850651
vn 0.688191 0.425325 0.587785
vn -0.147621 0.681718 0.716567
vn -0.587785 0.688191 0.425325
vn 0.587785 0.688191 0.425325
vn 0 0.295242 0.955423
vn -0.716567 -0.147621 0.681718
vn -0.951056 0.262866 -0.16246
vn -0.951056 -0.262866 -0.16246
vn -0.716567 -0.147621 -0.681718
vn 0 -0.295242 0.955423
vn -0.442863 -0.864188 -0.238856
vn 0.716567 -0.147621 0.681718
vn 0 -0.525731 0.850651
vn -0.525731 0 -0.850651
vn 0.850651 -0.525731 0
vn 0.425325 -0.587785 -0.688191
vn 0 0.525731 -0.850651
vn 0 0 -1
vn 0.147621 0.681718 -0.716567
vn 0.688191 0.425325 -0.587785
vn 0.587785 0.688191 -0.425325
vn 0 0.295242 -0.955423
vn 0.716567 -0.147621 -0.681718
vn 0.951056 0.262866 0.16246
vn 1 0 0
vn 0.951056 -0.262866 0.16246
vn 0.681718 0.716567 0.147621
vn 0.850651 0.525731 0
vn 0.850651 0 -0.525731
vn 0 -0.295242 -0.955423
vn 0.688191 -0.425325 -0.587785
vn 0.587785 -0.688191 -0.425325
vn 0.681718 -0.716567 0.147621
vn 0 -0.525731 -0.850651
vn 0.688191 -0.425325 0.587785
vn 0.716567 0.147621 0.681718
vn 0.716567 0.147621 -0.681718
vn 0.147621 -0.681718 -0.716567
vn 0.951056 0.262866 -0.16246
vn -0.587785 -0.688191 -0.425325
vn -0.688191 -0.425325 -0.587785
vn -0.716567 0.147621 -0.681718
vn -0.262866 0.16246 -0.951056
vn -0.688191 -0.425325 0.587785
vn -0.587785 -0.688191 0.425325
vn -0.850651 -0.525731 0
vn -0.681718 -0.716567 -0.147621
vn -0.147621 -0.681718 0.716567
vn -0.716567 0.147621 0.681718
vn -0.951056 0.262866 0.16246
vn 0.262866 0.16246 0.951056

# Mesh '' with 4 faces
usemtl $Material_0
l  1 2
l  1 3
l  4 5
l  6 7

# Mesh '' with 220 faces
usemtl $Material_0
f  8/1/7 9/2/7 10/3/7
f  11/4/7 8/1/7 10/3/7
f  9/2/7 12/5/7 10/3/7
f  12/5/7 13/6/7 10/3/7
f  14/7/7 11/4/7 10/3/7
f  15/8/7 14/7/7 10/3/7
f  16/9/7 15/8/7 10/3/7
f  13/6/7 16/9/7 10/3/7
f  17/10/8 18/11/9 9/12/10
f  8/13/11 17/10/8 9/12/10
f  17/10/8 19/14/12 18/11/9
f  20/15/13 17/10/8 8/13/11
f  21/16/14 19/14/12 17/10/8
f  20/15/13 21/16/14 17/10/8
f  9/12/10 18/11/9 12/17/15
f  12/17/15 22/18/16 13/19/17
f  18/11/9 22/18/16 12/17/15
f  22/18/16 23/20/18 13/19/17
f  22/18/16 24/21/19 23/20/18
f  25/22/20 24/21/19 22/18/16
f  18/11/9 25/22/20 22/18/16
f  24/21/19 26/23/21 23/20/18
f  24/21/19 27/24/22 26/23/21
f  28/25/9 27/24/22 24/21/19
f  27/24/22 29/26/18 26/23/21
f  27/24/22 30/27/15 29/26/18
f  31/28/23 30/27/15 27/24/22
f  28/25/9 31/28/23 27/24/22
f  32/29/24 28/25/9 25/22/20
f  33/30/11 31/28/23 28/25/9
f  32/29/24 33/30/11 28/25/9
f  25/22/20 28/25/9 24/21/19
f  34/31/25 35/32/23 31/28/23
f  33/30/11 34/31/25 31/28/23
f  31/28/23 35/32/23 30/27/15
f  36/33/26 33/30/11 32/29/24
f  37/34/26 34/31/25 33/30/11
f  36/33/26 37/34/26 33/30/11
f  34/31/25 38/35/25 35/32/23
f  39/36/26 38/35/25 34/31/25
f  37/34/26 39/36/26 34/31/25
f  38/35/25 40/37/23 35/32/23
f  35/32/23 41/38/27 30/27/15
f  35/32/23 40/37/23 41/38/27
f  38/35/25 3/39/3 40/37/23
f  42/40/28 3/39/3 38/35/25
f  39/36/26 42/40/28 38/35/25
f  3/39/3 2/41/2 40/37/23
f  40/37/23 43/42/27 41/38/27
f  40/37/23 2/41/2 43/42/27
f  41/38/27 44/43/29 45/44/29
f  30/27/15 41/38/27 45/44/29
f  41/38/27 43/42/27 44/43/29
f  30/27/15 45/44/29 29/26/18
f  43/42/27 46/45/29 44/43/29
f  43/42/27 47/46/30 46/45/29
f  2/41/2 47/46/30 43/42/27
f  47/46/30 7/47/6 46/45/29
f  48/48/13 36/33/26 32/29/24
f  48/48/13 32/29/24 19/14/12
f  21/16/14 48/48/13 19/14/12
f  19/14/12 32/29/24 25/22/20
f  19/14/12 25/22/20 18/11/9
f  11/49/31 20/15/13 8/13/11
f  3/50/3 1/51/1 2/52/2
f  42/53/28 1/51/1 3/50/3
f  2/52/2 1/51/4 47/54/30
f  47/54/30 6/51/4 7/55/6
f  7/55/6 6/51/1 49/56/32
f  49/56/32 50/51/7 51/57/33
f  51/57/33 4/51/4 5/58/5
f  5/58/5 4/51/1 42/53/28
f  52/18/34 20/20/13 11/19/31
f  14/17/35 52/18/34 11/19/31
f  52/18/34 53/21/36 20/20/13
f  54/11/37 52/18/34 14/17/35
f  55/22/38 53/21/36 52/18/34
f  54/11/37 55/22/38 52/18/34
f  53/21/36 21/23/14 20/20/13
f  53/21/36 56/24/39 21/23/14
f  57/25/37 56/24/39 53/21/36
f  56/24/39 48/26/13 21/23/14
f  56/24/39 58/27/35 48/26/13
f  59/28/40 58/27/35 56/24/39
f  57/25/37 59/28/40 56/24/39
f  55/22/38 57/25/37 53/21/36
f  60/29/41 57/25/37 55/22/38
f  61/30/42 59/28/40 57/25/37
f  60/29/41 61/30/42 57/25/37
f  59/28/40 62/32/40 58/27/35
f  63/31/43 62/32/40 59/28/40
f  61/30/42 63/31/43 59/28/40
f  45/33/29 61/30/42 60/29/41
f  44/34/29 63/31/43 61/30/42
f  45/33/29 44/34/29 61/30/42
f  64/14/44 60/29/41 55/22/38
f  29/48/18 60/29/41 64/14/44
f  29/48/18 45/33/29 60/29/41
f  64/14/44 55/22/38 54/11/37
f  65/10/45 64/14/44 54/11/37
f  26/16/21 64/14/44 65/10/45
f  15/12/46 54/11/37 14/17/35
f  65/10/45 54/11/37 15/12/46
f  16/13/42 65/10/45 15/12/46
f  23/15/18 65/10/45 16/13/42
f  23/15/18 26/16/21 65/10/45
f  26/16/21 29/48/18 64/14/44
f  13/49/17 23/15/18 16/13/42
f  44/34/29 46/36/29 63/31/43
f  46/36/29 66/35/43 63/31/43
f  46/36/29 7/40/6 66/35/43
f  63/31/43 66/35/43 62/32/40
f  66/35/43 67/37/40 62/32/40
f  66/35/43 49/39/32 67/37/40
f  7/40/6 49/39/32 66/35/43
f  62/32/40 68/38/47 58/27/35
f  62/32/40 67/37/40 68/38/47
f  67/37/40 69/42/47 68/38/47
f  67/37/40 51/41/33 69/42/47
f  49/39/32 51/41/33 67/37/40
f  68/38/47 37/43/26 36/44/26
f  58/27/35 68/38/47 36/44/26
f  68/38/47 69/42/47 37/43/26
f  58/27/35 36/44/26 48/26/13
f  69/42/47 39/45/26 37/43/26
f  69/42/47 5/46/5 39/45/26
f  51/41/33 5/46/5 69/42/47
f  5/46/5 42/47/28 39/45/26
f  4/19/1 1/19/1 42/19/28
f  50/19/7 4/19/4 51/19/33
f  6/19/1 50/19/7 49/19/32
f  1/19/4 6/19/4 47/19/30
f  10/59/1 9/59/1 8/60/1
f  10/59/1 8/60/1 11/61/1
f  10/59/1 13/62/1 12/63/1
f  10/59/1 12/63/1 9/59/1
f  10/64/1 11/65/1 14/66/1
f  10/64/1 14/66/1 15/64/1
f  10/64/1 15/64/1 16/67/1
f  10/64/1 16/67/1 13/68/1
f  9/59/46 18/69/48 17/70/32
f  9/59/46 17/70/32 8/60/42
f  12/63/35 18/69/48 9/59/46
f  18/69/48 25/71/49 19/72/50
f  18/69/48 19/72/50 17/70/32
f  12/63/35 22/73/51 18/69/48
f  22/73/51 25/71/49 18/69/48
f  8/60/42 17/70/32 20/74/52
f  17/70/32 21/75/6 20/74/52
f  8/60/42 20/74/52 11/61/17
f  17/70/32 19/72/50 21/75/6
f  19/72/50 48/76/52 21/75/6
f  25/71/49 32/77/43 19/72/50
f  19/72/50 32/77/43 48/76/52
f  25/71/49 28/78/48 32/77/43
f  28/78/48 33/79/42 32/77/43
f  32/77/43 33/79/42 36/80/53
f  32/77/43 36/80/53 48/76/52
f  28/78/48 31/81/54 33/79/42
f  24/82/55 27/83/47 28/78/48
f  24/82/55 28/78/48 25/71/49
f  27/83/47 31/81/54 28/78/48
f  31/81/54 35/84/54 34/85/56
f  31/81/54 34/85/56 33/79/42
f  27/83/47 30/86/35 31/81/54
f  30/86/35 35/84/54 31/81/54
f  26/87/57 29/88/58 27/83/47
f  26/87/57 27/83/47 24/82/55
f  29/88/58 30/86/35 27/83/47
f  29/88/58 45/89/59 30/86/35
f  45/89/59 41/90/60 30/86/35
f  30/86/35 41/90/60 35/84/54
f  45/89/59 44/91/59 41/90/60
f  23/92/58 26/87/57 24/82/55
f  23/92/58 24/82/55 22/73/51
f  22/73/51 24/82/55 25/71/49
f  13/62/31 23/92/58 22/73/51
f  13/62/31 22/73/51 12/63/35
f  33/79/42 34/85/56 37/93/53
f  33/79/42 37/93/53 36/80/53
f  11/65/17 20/94/52 52/95/30
f  11/65/17 52/95/30 14/66/15
f  14/66/15 52/95/30 54/96/61
f  52/95/30 55/97/62 54/96/61
f  14/66/15 54/96/61 15/64/10
f  15/64/10 54/96/61 65/98/63
f  54/96/61 55/97/62 64/99/64
f  54/96/61 64/99/64 65/98/63
f  52/95/30 53/100/65 55/97/62
f  53/100/65 57/101/61 55/97/62
f  55/97/62 57/101/61 60/102/25
f  55/97/62 60/102/25 64/99/64
f  65/98/63 64/99/64 26/103/57
f  64/99/64 60/102/25 29/104/58
f  64/99/64 29/104/58 26/103/57
f  15/64/10 65/98/63 16/67/11
f  16/67/11 65/98/63 23/105/58
f  16/67/11 23/105/58 13/68/31
f  65/98/63 26/103/57 23/105/58
f  57/101/61 61/106/11 60/102/25
f  60/102/25 61/106/11 45/107/59
f  60/102/25 45/107/59 29/104/58
f  57/101/61 59/108/66 61/106/11
f  59/108/66 63/109/67 61/106/11
f  61/106/11 63/109/67 44/110/59
f  61/106/11 44/110/59 45/107/59
f  56/111/27 58/112/15 59/108/66
f  56/111/27 59/108/66 57/101/61
f  58/112/15 62/113/66 59/108/66
f  59/108/66 62/113/66 63/109/67
f  48/114/52 58/112/15 56/111/27
f  48/114/52 36/115/53 58/112/15
f  36/115/53 68/116/68 58/112/15
f  58/112/15 68/116/68 62/113/66
f  36/115/53 37/117/53 68/116/68
f  53/100/65 56/111/27 57/101/61
f  21/118/6 48/114/52 56/111/27
f  21/118/6 56/111/27 53/100/65
f  20/94/52 21/118/6 53/100/65
f  20/94/52 53/100/65 52/95/30

