# File produced by Open Asset Import Library (http://www.assimp.sf.net)
# (assimp v3.1.187496374)

mtllib chest.obj.mtl

# 182 vertex positions
v  10.0046 -15.1864 15.1271
v  10.0046 -15.1864 -14.5107
v  10.0046 -0.656027 -14.5107
v  10.0046 -0.656027 15.1271
v  -9.74435 -15.1864 15.1271
v  -9.74435 -0.656027 15.1271
v  -9.74435 -15.1864 -14.5107
v  -9.74435 -0.656027 -14.5107
v  -8.54745 -0.743035 -12.8172
v  -8.54745 -0.743035 13.4335
v  9.10689 -0.743035 -12.8172
v  9.10689 -0.743035 13.4335
v  9.10689 -4.83242 13.4335
v  -8.54745 -4.83242 13.4335
v  9.10689 -4.83242 -12.8172
v  -8.54745 -4.83242 -12.8172
v  -27.9971 -8.13873 15.1271
v  -23.3591 -10.2269 15.1271
v  -10.4924 -5.00644 15.1271
v  -18.7211 -10.488 15.1271
v  -13.4847 -8.39976 15.1271
v  -27.9971 -8.13873 -14.5107
v  -10.4924 -5.00644 -14.5107
v  -23.3591 -10.2269 -14.5107
v  -13.4847 -8.39976 -14.5107
v  -18.7211 -10.488 -14.5107
v  1.1774 0.562088 -0.538597
v  4.02004 0.301064 -3.92579
v  1.1774 0.562088 -7.10127
v  -2.11409 0.91012 -3.92579
v  0.87817 -2.22218 2.21349
v  5.8154 -2.65722 -3.92579
v  0.87817 -2.22218 -10.0651
v  -5.25596 -1.61312 -3.92579
v  0.728558 -5.09345 -7.10127
v  3.42159 -5.35447 -3.71409
v  0.728558 -5.09345 -0.326899
v  -2.71254 -4.74541 -3.71409
v  2.97275 -5.18046 5.81238
v  0.130106 -3.96234 2.84859
v  2.97275 -2.4832 -0.326899
v  6.26424 -3.70131 2.84859
v  2.97275 -3.78832 9.62296
v  -2.11409 -1.4391 3.90709
v  2.97275 1.25815 -1.80879
v  9.10689 -1.00406 4.11878
v  2.67353 2.65029 2.21349
v  -0.0195084 1.17114 5.17728
v  2.67353 -0.133978 8.35277
v  6.11463 1.34516 5.38898
v  -4.05906 2.12824 9.62296
v  -2.86216 -0.307994 6.23578
v  -4.05906 2.12824 3.06029
v  -5.40558 5.17352 6.23578
v  -6.60248 1.08414 12.3751
v  -4.35829 -3.44029 6.23578
v  -6.60248 1.08414 0.0965004
v  -9.29552 6.65266 6.23578
v  -9.1459 -0.307994 3.27199
v  -7.949 -2.74422 6.44747
v  -9.1459 -0.307994 9.83466
v  -10.4924 2.73729 6.44747
v  8.35882 0.388071 -6.04278
v  8.65805 0.823112 -7.94807
v  8.35882 0.47508 -9.85336
v  7.46114 -0.569019 -4.77258
v  7.46114 -0.569019 -10.9119
v  6.26424 -1.78713 -4.34918
v  6.26424 -1.78713 -11.1236
v  5.06734 -3.09226 -4.98428
v  5.06734 -3.09226 -10.4885
v  4.31927 -3.78832 -9.64166
v  4.31927 -3.78832 -6.04278
v  4.02004 -4.04935 -7.94807
v  5.36656 -4.5714 -6.04278
v  4.91772 -4.91943 -7.94807
v  5.21695 -4.5714 -9.85336
v  6.26424 -3.5273 -4.77258
v  6.26424 -3.5273 -10.9119
v  7.31153 -2.39619 -4.34918
v  7.31153 -2.39619 -11.1236
v  8.65805 -1.09107 -4.98428
v  8.65805 -1.09107 -10.4885
v  9.2565 -0.395002 -9.64166
v  9.2565 -0.307994 -6.04278
v  9.55573 -0.0469694 -7.94807
v  2.97275 -2.65722 11.5283
v  3.42159 -1.17808 10.4698
v  2.97275 0.301064 9.19956
v  1.62624 -3.61431 12.3751
v  1.62624 1.17114 8.56447
v  -0.0195084 -3.96234 12.5868
v  -0.0195084 1.34516 8.56447
v  -1.81486 -3.61431 12.1634
v  -1.81486 0.91012 8.77617
v  -2.86216 0.214055 9.41126
v  -2.86216 -2.65722 11.5283
v  -3.31099 -1.17808 10.4698
v  -2.71254 -3.44029 10.6815
v  -3.31099 -1.87414 9.41126
v  -2.86216 -0.395002 8.35277
v  -1.36602 -4.39738 11.3166
v  -1.36602 0.47508 7.71767
v  0.279718 -4.65841 11.5283
v  0.279718 0.649096 7.50597
v  2.07508 -4.31037 11.3166
v  2.07508 0.214055 7.92937
v  2.97275 -0.569019 8.35277
v  3.12237 -3.35328 10.4698
v  3.42159 -1.87414 9.41126
v  -1.21641 -14.3163 26.3472
v  -0.61796 -14.3163 24.2302
v  -1.21641 -14.3163 22.5366
v  -2.56293 -14.3163 21.2664
v  -2.56293 -14.3163 27.4057
v  -4.20867 -14.3163 21.0547
v  -4.20867 -14.3163 27.8291
v  -6.00403 -14.3163 27.4057
v  -6.00403 -14.3163 21.6898
v  -6.90171 -14.3163 22.5366
v  -7.05132 -14.3163 26.1355
v  -7.35055 -14.3163 24.4419
v  -6.90171 -15.5344 26.3472
v  -7.35055 -15.5344 24.2302
v  -6.90171 -15.5344 22.5366
v  -5.55519 -15.5344 27.4057
v  -5.55519 -15.5344 21.2664
v  -3.90945 -15.5344 27.8291
v  -3.90945 -15.5344 21.0547
v  -2.11409 -15.5344 27.4057
v  -2.11409 -15.5344 21.6898
v  -1.21641 -15.5344 22.5366
v  -1.0668 -15.5344 26.1355
v  -0.61796 -15.5344 24.4419
v  6.86269 -14.3163 -18.7447
v  7.46114 -14.3163 -20.65
v  6.86269 -14.3163 -22.5553
v  5.51617 -14.3163 -17.4745
v  5.51617 -14.3163 -23.6138
v  3.87043 -14.3163 -17.0511
v  3.87043 -14.3163 -23.8255
v  2.07508 -14.3163 -17.6862
v  2.07508 -14.3163 -23.1904
v  1.1774 -14.3163 -22.3436
v  1.02778 -14.3163 -18.7447
v  0.578945 -14.3163 -20.65
v  1.1774 -15.5344 -18.7447
v  0.578945 -15.5344 -20.65
v  1.1774 -15.5344 -22.5553
v  2.52391 -15.5344 -17.4745
v  2.52391 -15.5344 -23.6138
v  4.16966 -15.5344 -17.0511
v  4.16966 -15.5344 -23.8255
v  5.96501 -15.5344 -17.6862
v  5.96501 -15.5344 -23.1904
v  6.86269 -15.5344 -22.3436
v  7.01231 -15.5344 -18.7447
v  7.46114 -15.5344 -20.65
v  9.70534 -13.5332 -21.0734
v  10.1542 -14.1423 -22.767
v  9.70534 -14.4033 -24.6723
v  8.35882 -12.9242 -20.0149
v  8.35882 -14.3163 -25.9425
v  6.71308 -12.4021 -19.5915
v  6.71308 -13.8813 -26.1542
v  5.06734 -12.0541 -20.2266
v  5.06734 -13.2722 -25.7308
v  4.16966 -12.8372 -24.884
v  4.02004 -12.0541 -21.4968
v  3.72082 -12.3151 -23.1904
v  3.87043 -13.1852 -21.0734
v  3.27198 -13.4462 -22.9787
v  3.72082 -14.0553 -24.884
v  5.21695 -14.6644 -25.7308
v  5.21695 -13.2722 -19.8032
v  6.71308 -15.0994 -25.9425
v  6.71308 -13.6203 -19.3798
v  8.50843 -15.4474 -25.3074
v  8.50843 -14.2293 -19.8032
v  9.40611 -15.5344 -24.2489
v  9.40611 -14.7514 -20.8617
v  9.85495 -15.2734 -22.5553

# 136 UV coordinates
vt 0.59375 0.726562 0
vt 0.257812 0.726562 0
vt 0.257812 0.960938 0
vt 0.59375 0.960938 0
vt 0.242188 0.726562 0
vt 0.015625 0.726562 0
vt 0.015625 0.960938 0
vt 0.242188 0.960938 0
vt 0.984375 0.726562 0
vt 0.609375 0.726562 0
vt 0.609375 0.960938 0
vt 0.984375 0.960938 0
vt 0.015625 0.703125 0
vt 0.242188 0.703125 0
vt 0.242188 0.53125 0
vt 0.015625 0.53125 0
vt 0.640625 0.671875 0
vt 0.617188 0.703125 0
vt 0.984375 0.703125 0
vt 0.960938 0.671875 0
vt 0.015625 0.882812 0
vt 0.242188 0.882812 0
vt 0.984375 0.882812 0
vt 0.609375 0.882812 0
vt 0.257812 0.492188 0
vt 0.257812 0.703125 0
vt 0.59375 0.703125 0
vt 0.59375 0.492188 0
vt 0.953125 0.53125 0
vt 0.617188 0.53125 0
vt 0.664062 0.609375 0
vt 0.90625 0.609375 0
vt 0.726562 0.65625 0
vt 0.84375 0.65625 0
vt 0.359375 0.234375 0
vt 0.03125 0.234375 0
vt 0.03125 0.28125 0
vt 0.359375 0.28125 0
vt 0.03125 0.328125 0
vt 0.359375 0.328125 0
vt 0.03125 0.375 0
vt 0.359375 0.375 0
vt 0.03125 0.421875 0
vt 0.359375 0.421875 0
vt 0.03125 0.460938 0
vt 0.359375 0.460938 0
vt 0.359375 0.0234375 0
vt 0.03125 0.0234375 0
vt 0.359375 0.21875 0
vt 0.03125 0.21875 0
vt 0.421875 0.367188 0
vt 0.476562 0.3125 0
vt 0.53125 0.367188 0
vt 0.476562 0.421875 0
vt 0.382812 0.367188 0
vt 0.476562 0.273438 0
vt 0.570312 0.367188 0
vt 0.476562 0.460938 0
vt 0.5625 0.242188 0
vt 0.617188 0.1875 0
vt 0.671875 0.242188 0
vt 0.617188 0.296875 0
vt 0.523438 0.242188 0
vt 0.617188 0.148438 0
vt 0.710938 0.242188 0
vt 0.617188 0.335938 0
vt 0.523438 0.125 0
vt 0.476562 0.078125 0
vt 0.429688 0.125 0
vt 0.476562 0.171875 0
vt 0.570312 0.125 0
vt 0.476562 0.03125 0
vt 0.382812 0.125 0
vt 0.476562 0.21875 0
vt 0.773438 0.046875 0
vt 0.734375 0.0234375 0
vt 0.6875 0.046875 0
vt 0.804688 0.078125 0
vt 0.65625 0.078125 0
vt 0.820312 0.125 0
vt 0.640625 0.125 0
vt 0.804688 0.171875 0
vt 0.65625 0.171875 0
vt 0.6875 0.203125 0
vt 0.773438 0.203125 0
vt 0.734375 0.21875 0
vt 0.945312 0.046875 0
vt 0.914062 0.03125 0
vt 0.875 0.046875 0
vt 0.976562 0.078125 0
vt 0.84375 0.078125 0
vt 0.992188 0.125 0
vt 0.828125 0.125 0
vt 0.976562 0.171875 0
vt 0.84375 0.171875 0
vt 0.875 0.203125 0
vt 0.945312 0.203125 0
vt 0.914062 0.21875 0
vt 0.890625 0.289062 0
vt 0.84375 0.289062 0
vt 0.84375 0.320312 0
vt 0.890625 0.320312 0
vt 0.9375 0.289062 0
vt 0.796875 0.289062 0
vt 0.796875 0.320312 0
vt 0.75 0.320312 0
vt 0.703125 0.320312 0
vt 0.75 0.289062 0
vt 0.703125 0.289062 0
vt 0.9375 0.320312 0
vt 0.984375 0.289062 0
vt 0.984375 0.320312 0
vt 0.742188 0.34375 0
vt 0.703125 0.328125 0
vt 0.664062 0.34375 0
vt 0.78125 0.382812 0
vt 0.625 0.382812 0
vt 0.804688 0.421875 0
vt 0.609375 0.421875 0
vt 0.78125 0.460938 0
vt 0.625 0.460938 0
vt 0.664062 0.5 0
vt 0.742188 0.5 0
vt 0.703125 0.515625 0
vt 0.945312 0.351562 0
vt 0.90625 0.335938 0
vt 0.859375 0.351562 0
vt 0.96875 0.382812 0
vt 0.835938 0.382812 0
vt 0.992188 0.421875 0
vt 0.820312 0.421875 0
vt 0.976562 0.460938 0
vt 0.835938 0.460938 0
vt 0.867188 0.5 0
vt 0.945312 0.5 0
vt 0.90625 0.515625 0

# 109 vertex normals
vn 0.809017 -0.5 0.309017
vn 0.425325 -0.587785 -0.688191
vn 0.442863 0.864188 -0.238856
vn 0.425325 0.587785 0.688191
vn -0.425325 -0.587785 0.688191
vn -0.442863 0.864188 0.238856
vn -0.809017 -0.5 -0.309017
vn -0.425325 0.587785 -0.688191
vn 0.442863 0.864188 0.238856
vn 0.425325 0.587785 -0.688191
vn -0.425325 0.587785 0.688191
vn -0.442863 0.864188 -0.238856
vn -0.5 0.309017 -0.809017
vn 0.587785 0.688191 -0.425325
vn -0.587785 0.688191 0.425325
vn 0.5 0.309017 0.809017
vn 0.238856 0.442863 0.864188
vn -0.850651 0 0.525731
vn -0.147621 -0.681718 0.716567
vn 0.716567 -0.147621 0.681718
vn 0.309017 -0.809017 0.5
vn 0.587785 -0.688191 0.425325
vn -0.525731 0 -0.850651
vn 0.5 -0.309017 -0.809017
vn -0.147621 -0.681718 -0.716567
vn 0.309017 -0.809017 -0.5
vn 0.16246 -0.951056 -0.262866
vn 0.16246 0.951056 0.262866
vn 0.681718 0.716567 -0.147621
vn 0 0.850651 -0.525731
vn 0.262866 0.16246 0.951056
vn 1 0 0
vn 0.262866 -0.16246 -0.951056
vn -1 0 0
vn -0.16246 -0.951056 -0.262866
vn 0.525731 -0.850651 0
vn -0.309017 -0.809017 0.5
vn -0.681718 -0.716567 -0.147621
vn 0 -1 0
vn -0.587785 -0.688191 -0.425325
vn 0.147621 -0.681718 -0.716567
vn 0.442863 -0.864188 -0.238856
vn -0.238856 -0.442863 0.864188
vn -0.238856 0.442863 -0.864188
vn 0 1 0
vn 0.147621 0.681718 0.716567
vn 0.809017 0.5 0.309017
vn 0.951056 -0.262866 -0.16246
vn 0.809017 0.5 -0.309017
vn 0.262866 -0.16246 0.951056
vn 0 -0.295242 -0.955423
vn -0.525731 0.850651 0
vn -0.295242 -0.955423 0
vn -0.864188 -0.238856 0.442863
vn -0.955423 0 -0.295242
vn 0 0.850651 0.525731
vn 0.295242 0.955423 0
vn -0.16246 0.951056 -0.262866
vn -0.309017 0.809017 0.5
vn -0.147621 0.681718 -0.716567
vn -0.688191 0.425325 0.587785
vn -0.864188 0.238856 0.442863
vn -0.716567 0.147621 -0.681718
vn -0.864188 0.238856 -0.442863
vn -0.850651 -0.525731 0
vn 0 -0.850651 0.525731
vn 0.688191 -0.425325 0.587785
vn 0.864188 -0.238856 0.442863
vn 0.716567 -0.147621 -0.681718
vn 0.864188 -0.238856 -0.442863
vn 0.864188 0.238856 0.442863
vn 0.850651 0.525731 0
vn 0.525731 0 0.850651
vn 0.587785 0.688191 0.425325
vn 0 0 1
vn -0.262866 0.16246 0.951056
vn -0.295242 0.955423 0
vn -0.716567 0.147621 0.681718
vn -0.951056 0.262866 0.16246
vn -0.951056 -0.262866 -0.16246
vn -0.716567 -0.147621 -0.681718
vn -0.262866 0.16246 -0.951056
vn 0 0.295242 -0.955423
vn 0.262866 0.16246 -0.951056
vn 0.525731 0 -0.850651
vn 0.809017 -0.5 -0.309017
vn 0.955423 0 -0.295242
vn 0.951056 0.262866 0.16246
vn 0.309017 0.809017 0.5
vn 0.147621 0.681718 -0.716567
vn -0.147621 0.681718 0.716567
vn -0.587785 0.688191 -0.425325
vn -0.809017 0.5 0.309017
vn -0.951056 0.262866 -0.16246
vn -0.587785 -0.688191 0.425325
vn -0.951056 -0.262866 0.16246
vn -0.425325 -0.587785 -0.688191
vn 0.147621 -0.681718 0.716567
vn 0.587785 -0.688191 -0.425325
vn 0.5 0.309017 -0.809017
vn 0.238856 0.442863 -0.864188
vn -0.16246 0.951056 0.262866
vn -0.309017 0.809017 -0.5
vn -0.681718 0.716567 0.147621
vn -0.809017 0.5 -0.309017
vn -0.309017 -0.809017 -0.5
vn 0 -0.525731 0.850651
vn 0 -0.850651 -0.525731
vn 0.850651 -0.525731 0

# Mesh '' with 328 faces
usemtl $Material_0
f  1/1/1 2/2/2 3/3/3
f  3/3/3 4/4/4 1/1/1
f  5/5/5 1/6/1 4/7/4
f  4/7/4 6/8/6 5/5/5
f  2/6/2 7/5/7 8/8/8
f  8/8/8 3/7/3 2/6/2
f  7/9/7 5/10/5 6/11/6
f  6/11/6 8/12/8 7/9/7
f  2/13/2 1/14/1 5/15/5
f  5/15/5 7/16/7 2/13/2
f  9/17/9 8/18/8 6/19/6
f  6/19/6 10/20/10 9/17/9
f  3/18/3 8/19/8 9/20/9
f  9/20/9 11/17/11 3/18/3
f  3/18/3 11/17/11 12/20/12
f  12/20/12 4/19/4 3/18/3
f  12/20/12 10/17/10 6/18/6
f  6/18/6 4/19/4 12/20/12
f  13/21/13 14/22/14 10/8/10
f  10/8/10 12/7/12 13/21/13
f  15/23/15 13/24/13 12/11/12
f  12/11/12 11/12/11 15/23/15
f  16/22/16 15/21/15 11/7/11
f  11/7/11 9/8/9 16/22/16
f  14/24/14 16/23/16 9/12/9
f  9/12/9 10/11/10 14/24/14
f  15/25/15 16/26/16 14/27/14
f  14/27/14 13/28/13 15/25/15
f  6/29/17 17/30/18 18/31/19
f  18/31/19 19/32/20 6/29/17
f  19/32/20 18/31/19 20/33/21
f  20/33/21 21/34/22 19/32/20
f  22/30/23 8/29/14 23/32/24
f  23/32/24 24/31/25 22/30/23
f  24/31/25 23/32/24 25/34/26
f  25/34/26 26/33/27 24/31/25
f  17/35/18 22/36/23 24/37/25
f  24/37/25 18/38/19 17/35/18
f  18/38/19 24/37/25 26/39/27
f  26/39/27 20/40/21 18/38/19
f  20/40/21 26/39/27 25/41/26
f  25/41/26 21/42/22 20/40/21
f  21/42/22 25/41/26 23/43/24
f  23/43/24 19/44/20 21/42/22
f  19/44/20 23/43/24 8/45/14
f  8/45/14 6/46/17 19/44/20
f  22/47/23 17/48/18 8/49/14
f  17/48/18 6/50/17 8/49/14
f  27/51/28 28/52/29 29/53/30
f  27/51/28 29/53/30 30/54/6
f  28/52/29 27/51/28 31/55/31
f  31/55/31 27/51/28 30/54/6
f  28/52/29 32/56/32 33/57/33
f  33/57/33 29/53/30 28/52/29
f  31/55/31 32/56/32 28/52/29
f  30/54/6 34/58/34 31/55/31
f  29/53/30 33/57/33 34/58/34
f  30/54/6 29/53/30 34/58/34
f  35/53/35 36/52/36 37/51/37
f  37/51/37 38/54/38 35/53/35
f  33/57/33 35/53/35 38/54/38
f  36/52/36 35/53/35 33/57/33
f  36/52/36 32/56/32 31/55/31
f  31/55/31 37/51/37 36/52/36
f  33/57/33 32/56/32 36/52/36
f  38/54/38 34/58/34 33/57/33
f  37/51/37 31/55/31 34/58/34
f  34/58/34 38/54/38 37/51/37
f  39/59/39 40/60/40 41/61/41
f  39/59/39 41/61/41 42/62/42
f  40/60/40 39/59/39 43/63/43
f  43/63/43 39/59/39 42/62/42
f  40/60/40 44/64/34 45/65/44
f  45/65/44 41/61/41 40/60/40
f  43/63/43 44/64/34 40/60/40
f  41/61/41 45/65/44 46/66/32
f  42/62/42 41/61/41 46/66/32
f  42/62/42 46/66/32 43/63/43
f  47/61/45 48/60/15 49/59/46
f  49/59/46 50/62/9 47/61/45
f  45/65/44 47/61/45 50/62/9
f  48/60/15 44/64/34 43/63/43
f  43/63/43 49/59/46 48/60/15
f  45/65/44 44/64/34 48/60/15
f  48/60/15 47/61/45 45/65/44
f  46/66/32 50/62/9 49/59/46
f  50/62/9 46/66/32 45/65/44
f  49/59/46 43/63/43 46/66/32
f  51/67/47 52/68/48 53/69/49
f  51/67/47 53/69/49 54/70/9
f  52/68/48 51/67/47 55/71/50
f  55/71/50 51/67/47 54/70/9
f  52/68/48 56/72/36 57/73/51
f  57/73/51 53/69/49 52/68/48
f  55/71/50 56/72/36 52/68/48
f  53/69/49 57/73/51 58/74/52
f  54/70/9 53/69/49 58/74/52
f  54/70/9 58/74/52 55/71/50
f  59/69/7 60/68/53 61/67/54
f  61/67/54 62/70/55 59/69/7
f  57/73/51 59/69/7 62/70/55
f  60/68/53 59/69/7 57/73/51
f  60/68/53 56/72/36 55/71/50
f  55/71/50 61/67/54 60/68/53
f  57/73/51 56/72/36 60/68/53
f  61/67/54 55/71/50 58/74/52
f  58/74/52 62/70/55 61/67/54
f  62/70/55 58/74/52 57/73/51
f  63/75/56 64/76/57 65/77/58
f  66/78/59 63/75/56 65/77/58
f  65/77/58 67/79/60 66/78/59
f  68/80/61 66/78/59 67/79/60
f  67/79/60 69/81/8 68/80/61
f  70/82/62 68/80/61 69/81/8
f  69/81/8 71/83/63 70/82/62
f  70/82/62 71/83/63 72/84/64
f  72/84/64 73/85/54 70/82/62
f  74/86/65 73/85/54 72/84/64
f  75/87/66 76/88/53 77/89/27
f  78/90/21 75/87/66 77/89/27
f  77/89/27 79/91/41 78/90/21
f  80/92/67 78/90/21 79/91/41
f  79/91/41 81/93/2 80/92/67
f  82/94/68 80/92/67 81/93/2
f  81/93/2 83/95/69 82/94/68
f  82/94/68 83/95/69 84/96/70
f  84/96/70 85/97/71 82/94/68
f  86/98/72 85/97/71 84/96/70
f  85/99/71 86/100/72 64/101/57
f  64/101/57 63/102/56 85/99/71
f  82/103/68 85/99/71 63/102/56
f  86/100/72 84/104/70 65/105/58
f  65/105/58 64/101/57 86/100/72
f  67/106/60 65/105/58 84/104/70
f  69/107/8 67/106/60 83/108/69
f  83/108/69 81/109/2 69/107/8
f  84/104/70 83/108/69 67/106/60
f  63/102/56 66/110/59 82/103/68
f  80/111/67 82/103/68 66/110/59
f  66/110/59 68/112/61 80/111/67
f  78/103/21 80/111/67 68/112/61
f  68/112/61 70/110/62 78/103/21
f  75/99/66 78/103/21 70/110/62
f  70/110/62 73/102/54 75/99/66
f  76/100/53 75/99/66 73/102/54
f  73/102/54 74/101/65 76/100/53
f  77/104/27 76/100/53 74/101/65
f  74/101/65 72/105/64 77/104/27
f  79/108/41 77/104/27 72/105/64
f  72/105/64 71/106/63 79/108/41
f  81/109/2 79/108/41 71/106/63
f  71/106/63 69/107/8 81/109/2
f  87/113/73 88/114/71 89/115/74
f  90/116/50 87/113/73 89/115/74
f  89/115/74 91/117/9 90/116/50
f  92/118/75 90/116/50 91/117/9
f  91/117/9 93/119/45 92/118/75
f  94/120/76 92/118/75 93/119/45
f  93/119/45 95/121/77 94/120/76
f  94/120/76 95/121/77 96/122/6
f  96/122/6 97/123/78 94/120/76
f  98/124/79 97/123/78 96/122/6
f  99/125/38 100/126/80 101/127/81
f  102/128/35 99/125/38 101/127/81
f  101/127/81 103/129/82 102/128/35
f  104/130/27 102/128/35 103/129/82
f  103/129/82 105/131/83 104/130/27
f  106/132/42 104/130/27 105/131/83
f  105/131/83 107/133/84 106/132/42
f  106/132/42 107/133/84 108/134/85
f  108/134/85 109/135/86 106/132/42
f  110/136/87 109/135/86 108/134/85
f  109/99/86 110/100/87 88/101/71
f  88/101/71 87/102/73 109/99/86
f  106/103/42 109/99/86 87/102/73
f  110/100/87 108/104/85 89/105/74
f  89/105/74 88/101/71 110/100/87
f  91/106/9 89/105/74 108/104/85
f  108/104/85 107/108/84 91/106/9
f  107/108/84 105/109/83 93/107/45
f  93/107/45 91/106/9 107/108/84
f  87/102/73 90/110/50 106/103/42
f  104/111/27 106/103/42 90/110/50
f  90/110/50 92/112/75 104/111/27
f  102/103/35 104/111/27 92/112/75
f  92/112/75 94/110/76 102/103/35
f  99/99/38 102/103/35 94/110/76
f  94/110/76 97/102/78 99/99/38
f  100/100/80 99/99/38 97/102/78
f  97/102/78 98/101/79 100/100/80
f  101/104/81 100/100/80 98/101/79
f  98/101/79 96/105/6 101/104/81
f  103/108/82 101/104/81 96/105/6
f  96/105/6 95/106/77 103/108/82
f  105/109/83 103/108/82 95/106/77
f  95/106/77 93/107/45 105/109/83
f  111/113/74 112/114/88 113/115/14
f  113/115/14 114/117/10 115/116/89
f  114/117/10 116/119/90 117/118/91
f  117/118/91 115/116/89 114/117/10
f  115/116/89 111/113/74 113/115/14
f  118/120/59 117/118/91 116/119/90
f  116/119/90 119/121/8 118/120/59
f  118/120/59 119/121/8 120/122/92
f  120/122/92 121/123/93 118/120/59
f  122/124/94 121/123/93 120/122/92
f  123/125/95 124/126/96 125/127/40
f  126/128/37 123/125/95 125/127/40
f  125/127/40 127/129/97 126/128/37
f  128/130/98 126/128/37 127/129/97
f  127/129/97 129/131/25 128/130/98
f  130/132/21 128/130/98 129/131/25
f  129/131/25 131/133/2 130/132/21
f  130/132/21 131/133/2 132/134/99
f  132/134/99 133/135/1 130/132/21
f  134/136/48 133/135/1 132/134/99
f  133/108/1 134/109/48 112/107/88
f  112/107/88 111/106/74 133/108/1
f  130/104/21 133/108/1 111/106/74
f  111/106/74 115/105/89 130/104/21
f  128/100/98 130/104/21 115/105/89
f  115/105/89 117/101/91 128/100/98
f  126/99/37 128/100/98 117/101/91
f  117/101/91 118/102/59 126/99/37
f  123/103/95 126/99/37 118/102/59
f  118/102/59 121/110/93 123/103/95
f  124/111/96 123/103/95 121/110/93
f  121/110/93 122/112/94 124/111/96
f  134/109/48 132/108/99 113/106/14
f  113/106/14 112/107/88 134/109/48
f  132/108/99 131/104/2 114/105/10
f  114/105/10 113/106/14 132/108/99
f  131/104/2 129/100/25 116/101/90
f  116/101/90 114/105/10 131/104/2
f  129/100/25 127/99/97 119/102/8
f  119/102/8 116/101/90 129/100/25
f  127/99/97 125/103/40 120/110/92
f  120/110/92 119/102/8 127/99/97
f  125/103/40 124/111/96 122/112/94
f  122/112/94 120/110/92 125/103/40
f  135/113/74 136/114/88 137/115/14
f  138/116/89 135/113/74 137/115/14
f  137/115/14 139/117/10 138/116/89
f  140/118/91 138/116/89 139/117/10
f  139/117/10 141/119/90 140/118/91
f  142/120/59 140/118/91 141/119/90
f  141/119/90 143/121/8 142/120/59
f  142/120/59 143/121/8 144/122/92
f  144/122/92 145/123/93 142/120/59
f  146/124/94 145/123/93 144/122/92
f  147/125/95 148/126/96 149/127/40
f  150/128/37 147/125/95 149/127/40
f  149/127/40 151/129/97 150/128/37
f  152/130/98 150/128/37 151/129/97
f  151/129/97 153/131/25 152/130/98
f  154/132/21 152/130/98 153/131/25
f  153/131/25 155/133/2 154/132/21
f  154/132/21 155/133/2 156/134/99
f  156/134/99 157/135/1 154/132/21
f  158/136/48 157/135/1 156/134/99
f  157/99/1 158/100/48 136/101/88
f  136/101/88 135/102/74 157/99/1
f  154/103/21 157/99/1 135/102/74
f  158/100/48 156/104/99 137/105/14
f  137/105/14 136/101/88 158/100/48
f  139/106/10 137/105/14 156/104/99
f  141/107/90 139/106/10 155/108/2
f  155/108/2 153/109/25 141/107/90
f  156/104/99 155/108/2 139/106/10
f  135/102/74 138/110/89 154/103/21
f  152/111/98 154/103/21 138/110/89
f  138/110/89 140/112/91 152/111/98
f  150/103/37 152/111/98 140/112/91
f  140/112/91 142/110/59 150/103/37
f  147/99/95 150/103/37 142/110/59
f  142/110/59 145/102/93 147/99/95
f  148/100/96 147/99/95 145/102/93
f  145/102/93 146/101/94 148/100/96
f  149/104/40 148/100/96 146/101/94
f  146/101/94 144/105/92 149/104/40
f  151/108/97 149/104/40 144/105/92
f  144/105/92 143/106/8 151/108/97
f  153/109/25 151/108/97 143/106/8
f  143/106/8 141/107/90 153/109/25
f  159/75/47 160/76/32 161/77/49
f  162/78/74 159/75/47 161/77/49
f  161/77/49 163/79/100 162/78/74
f  164/80/56 162/78/74 163/79/100
f  163/79/100 165/81/101 164/80/56
f  166/82/102 164/80/56 165/81/101
f  165/81/101 167/83/44 166/82/102
f  166/82/102 167/83/44 168/84/103
f  168/84/103 169/85/104 166/82/102
f  170/86/105 169/85/104 168/84/103
f  171/87/54 172/88/34 173/89/7
f  173/89/7 174/91/40 175/90/5
f  175/90/5 171/87/54 173/89/7
f  174/91/40 176/93/106 177/92/107
f  177/92/107 175/90/5 174/91/40
f  176/93/106 178/95/108 179/94/98
f  179/94/98 177/92/107 176/93/106
f  179/94/98 178/95/108 180/96/42
f  180/96/42 181/97/22 179/94/98
f  182/98/109 181/97/22 180/96/42
f  181/99/22 182/100/109 160/101/32
f  160/101/32 159/102/47 181/99/22
f  179/103/98 181/99/22 159/102/47
f  161/105/49 160/101/32 182/100/109
f  182/100/109 180/104/42 161/105/49
f  163/106/100 161/105/49 180/104/42
f  165/107/101 163/106/100 178/108/108
f  178/108/108 176/109/106 165/107/101
f  180/104/42 178/108/108 163/106/100
f  159/102/47 162/110/74 179/103/98
f  177/111/107 179/103/98 162/110/74
f  162/110/74 164/112/56 177/111/107
f  175/103/5 177/111/107 164/112/56
f  164/112/56 166/110/102 175/103/5
f  171/99/54 175/103/5 166/110/102
f  166/110/102 169/102/104 171/99/54
f  172/100/34 171/99/54 169/102/104
f  169/102/104 170/101/105 172/100/34
f  173/104/7 172/100/34 170/101/105
f  170/101/105 168/105/103 173/104/7
f  174/108/40 173/104/7 168/105/103
f  168/105/103 167/106/44 174/108/40
f  176/109/106 174/108/40 167/106/44
f  167/106/44 165/107/101 176/109/106

