# File produced by Open Asset Import Library (http://www.assimp.sf.net)
# (assimp v3.1.187496374)

mtllib clamp.obj.mtl

# 121 vertex positions
v  1.39315 -6.01955 -0.720331
v  0.905348 -6.01955 -1.20814
v  0.905348 0.0846558 -1.20814
v  1.55575 0.0846558 -0.720331
v  1.55575 -6.01955 0.0926743
v  2.04356 -7.52469 -1.20814
v  2.36876 -7.52469 0.0926743
v  0.0923405 -6.01955 -1.37074
v  0.0923405 0.0846558 -1.53334
v  1.23055 -7.52469 -2.02114
v  2.36876 -11.622 0.0926743
v  2.04356 -11.622 -1.20814
v  2.20616 -11.622 1.39348
v  2.20616 -7.52469 1.39348
v  1.23055 -11.622 2.20649
v  1.39315 -6.01955 1.06828
v  1.23055 -7.52469 2.20649
v  0.0923405 -11.622 2.53169
v  0.0923405 -7.52469 2.53169
v  1.71835 0.0846558 0.0926743
v  1.55575 0.0846558 1.06828
v  0.905348 -6.01955 1.55609
v  0.0923405 -6.01955 1.71869
v  0.905348 0.0846558 1.55609
v  0.0923405 0.0846558 1.71869
v  1.23055 -11.622 -2.02114
v  0.0923405 -11.622 -2.34634
v  0.0923405 -7.52469 -2.34634
v  -0.558064 -6.01955 1.55609
v  -0.558064 0.0846558 1.55609
v  -1.20847 -6.01955 1.06828
v  -2.02147 -7.52469 1.39348
v  -1.20847 -7.52469 2.20649
v  -1.37107 0.0846558 1.06828
v  -1.37107 -6.01955 0.0926743
v  -2.50928 -7.52469 0.0926743
v  -2.02147 -11.622 1.39348
v  -2.50928 -11.622 0.0926743
v  -2.18408 -7.52469 -1.20814
v  -2.18408 -11.622 -1.20814
v  -1.53367 0.0846558 0.0926743
v  -1.20847 -6.01955 -0.557732
v  -1.20847 -7.52469 -2.02114
v  -1.20847 -11.622 -2.02114
v  -1.37107 0.0846558 -0.557732
v  -0.558064 -6.01955 -1.20814
v  -0.558064 0.0846558 -1.20814
v  -1.20847 -11.622 2.20649
v  -2.99708 -13.0436 -1.69594
v  -3.48489 -13.0436 0.0926743
v  -1.69627 -13.0436 -2.83415
v  -2.34668 -15.7194 -3.64715
v  -4.13529 -15.7194 -2.18374
v  -2.99708 -13.0436 1.88129
v  -1.69627 -13.0436 3.3447
v  -3.97269 -15.7194 2.36909
v  -4.62309 -15.7194 0.0926743
v  0.0923405 -13.0436 3.6699
v  -2.34668 -15.7194 4.1577
v  -2.99708 -19.4822 1.88129
v  -3.48489 -19.4822 0.0926743
v  -0.0702591 -15.7194 4.64551
v  -1.69627 -19.4822 3.3447
v  0.0923405 -21.2382 0.0926743
v  -2.99708 -19.4822 -1.69594
v  -1.69627 -19.4822 -2.83415
v  0.0923405 -19.4822 -3.32195
v  -0.0702591 -15.7194 -4.29756
v  0.0923405 -19.4822 3.6699
v  0.0923405 -13.0436 -3.32195
v  1.55575 -13.0436 -2.99675
v  2.85656 -13.0436 -1.69594
v  2.04356 -15.7194 -3.80976
v  3.50697 -15.7194 -2.18374
v  4.15737 -15.7194 0.0926743
v  2.85656 -19.4822 -1.69594
v  3.34437 -19.4822 0.0926743
v  3.34437 -13.0436 0.0926743
v  3.66957 -15.7194 2.36909
v  2.85656 -19.4822 1.88129
v  1.55575 -19.4822 -2.99675
v  1.55575 -19.4822 3.1821
v  1.88095 -15.7194 4.1577
v  2.85656 -13.0436 1.88129
v  1.55575 -13.0436 3.1821
v  12.45 -10.2841 0.743078
v  10.6614 -10.2841 -6.08617
v  11.1492 -10.2841 7.40973
v  16.5151 -14.5487 0.743078
v  14.7265 -14.5487 9.52354
v  6.10859 -10.2841 -10.8016
v  0.0923405 -10.2841 -12.265
v  8.0598 -14.5487 -14.5414
v  14.076 -14.5487 -8.19999
v  -6.89951 -10.2841 -10.4764
v  0.0923405 -14.5487 -16.4926
v  -11.9402 -10.2841 -5.76097
v  -9.17593 -14.5487 -14.2162
v  9.84842 -20.9038 -17.3057
v  0.254942 -20.9038 -19.7447
v  -15.8426 -14.5487 -7.87479
v  -10.9645 -20.9038 -16.9805
v  -13.5662 -10.2841 0.743078
v  -18.119 -14.5487 0.743078
v  -18.932 -20.9038 -9.5008
v  -15.1922 -14.5487 10.0113
v  -21.5336 -20.9038 0.90568
v  -18.119 -20.9038 11.9626
v  -6.89951 -10.2841 12.2878
v  -11.4523 -10.2841 7.73493
v  -9.33853 -14.5487 16.1902
v  -10.9645 -20.9038 19.4422
v  0.0923405 -14.5487 18.1414
v  0.0923405 -10.2841 13.7512
v  6.10859 -10.2841 12.1252
v  8.0598 -14.5487 16.0276
v  9.68582 -20.9038 19.2796
v  0.254942 -20.9038 21.7186
v  17.8159 -20.9038 11.4748
v  19.9297 -20.9038 0.90568
v  16.8403 -20.9038 -9.826

# 154 UV coordinates
vt 0.15625 0.792969 0
vt 0.120117 0.792969 0
vt 0.120117 0.609375 0
vt 0.15625 0.609375 0
vt 0.216797 0.792969 0
vt 0.120117 0.838867 0
vt 0.216797 0.838867 0
vt 0.107422 0.792969 0
vt 0.107422 0.609375 0
vt 0.0625 0.838867 0
vt 0.214844 0.960938 0
vt 0.121094 0.960938 0
vt 0.308594 0.960938 0
vt 0.308594 0.838867 0
vt 0.367188 0.960938 0
vt 0.277344 0.792969 0
vt 0.367188 0.838867 0
vt 0.390625 0.960938 0
vt 0.390625 0.838867 0
vt 0.216797 0.609375 0
vt 0.277344 0.609375 0
vt 0.313477 0.792969 0
vt 0.325195 0.792969 0
vt 0.313477 0.609375 0
vt 0.325195 0.609375 0
vt 0.0625 0.960938 0
vt 0.0390625 0.960938 0
vt 0.0390625 0.838867 0
vt 0.719727 0.674805 0
vt 0.648438 0.674805 0
vt 0.648438 0.621094 0
vt 0.700195 0.621094 0
vt 0.765625 0.674805 0
vt 0.797852 0.770508 0
vt 0.739258 0.770508 0
vt 0.595703 0.621094 0
vt 0.563477 0.621094 0
vt 0.576172 0.674805 0
vt 0.524414 0.674805 0
vt 0.556641 0.770508 0
vt 0.648438 0.770508 0
vt 0.550781 0.621094 0
vt 0.511719 0.674805 0
vt 0.492188 0.770508 0
vt 0.576172 0.90918 0
vt 0.648438 0.90918 0
vt 0.472656 0.770508 0
vt 0.524414 0.90918 0
vt 0.648438 0.972656 0
vt 0.719727 0.90918 0
vt 0.765625 0.90918 0
vt 0.785156 0.90918 0
vt 0.824219 0.770508 0
vt 0.511719 0.90918 0
vt 0.785156 0.674805 0
vt 0.732422 0.621094 0
vt 0.746094 0.621094 0
vt 0.804688 0.770508 0
vt 0.660156 0.418945 0
vt 0.601562 0.40332 0
vt 0.647461 0.325195 0
vt 0.654297 0.327148 0
vt 0.71582 0.407227 0
vt 0.660156 0.453125 0
vt 0.734375 0.4375 0
vt 0.643555 0.321289 0
vt 0.641602 0.313477 0
vt 0.561523 0.365234 0
vt 0.643555 0.307617 0
vt 0.549805 0.313477 0
vt 0.530273 0.381836 0
vt 0.583984 0.432617 0
vt 0.564453 0.254883 0
vt 0.513672 0.313477 0
vt 0.649414 0.301758 0
vt 0.604492 0.211914 0
vt 0.533203 0.235352 0
vt 0.506836 0.396484 0
vt 0.486328 0.31543 0
vt 0.586914 0.178711 0
vt 0.509766 0.219727 0
vt 0.660156 0.198242 0
vt 0.660156 0.15918 0
vt 0.573242 0.152344 0
vt 0.738281 0.18457 0
vt 0.661133 0.130859 0
vt 0.754883 0.15918 0
vt 0.757812 0.254883 0
vt 0.71875 0.21582 0
vt 0.791016 0.233398 0
vt 0.818359 0.219727 0
vt 0.807617 0.313477 0
vt 0.770508 0.313477 0
vt 0.667969 0.313477 0
vt 0.666016 0.307617 0
vt 0.662109 0.301758 0
vt 0.654297 0.300781 0
vt 0.666016 0.321289 0
vt 0.662109 0.325195 0
vt 0.755859 0.365234 0
vt 0.789062 0.381836 0
vt 0.817383 0.395508 0
vt 0.837891 0.31543 0
vt 0.750977 0.463867 0
vt 0.661133 0.482422 0
vt 0.570312 0.456055 0
vt 0.213867 0.293945 0
vt 0.168945 0.21582 0
vt 0.226562 0.201172 0
vt 0.22168 0.292969 0
vt 0.209961 0.298828 0
vt 0.128906 0.254883 0
vt 0.150391 0.1875 0
vt 0.226562 0.166992 0
vt 0.283203 0.211914 0
vt 0.300781 0.181641 0
vt 0.228516 0.293945 0
vt 0.323242 0.254883 0
vt 0.356445 0.238281 0
vt 0.317383 0.155273 0
vt 0.383789 0.224609 0
vt 0.227539 0.137695 0
vt 0.136719 0.164062 0
vt 0.0966797 0.238281 0
vt 0.0732422 0.222656 0
vt 0.116211 0.305664 0
vt 0.0800781 0.305664 0
vt 0.0527344 0.304688 0
vt 0.131836 0.365234 0
vt 0.0996094 0.384766 0
vt 0.21582 0.317383 0
vt 0.170898 0.408203 0
vt 0.209961 0.311523 0
vt 0.15332 0.44043 0
vt 0.0761719 0.399414 0
vt 0.22168 0.318359 0
vt 0.226562 0.421875 0
vt 0.226562 0.459961 0
vt 0.139648 0.466797 0
vt 0.228516 0.317383 0
vt 0.286133 0.40332 0
vt 0.304688 0.435547 0
vt 0.227539 0.489258 0
vt 0.324219 0.365234 0
vt 0.357422 0.385742 0
vt 0.321289 0.459961 0
vt 0.233398 0.311523 0
vt 0.234375 0.305664 0
vt 0.336914 0.305664 0
vt 0.374023 0.305664 0
vt 0.384766 0.399414 0
vt 0.233398 0.298828 0
vt 0.404297 0.304688 0
vt 0.208008 0.305664 0

# 96 vertex normals
vn 0.809017 0.5 -0.309017
vn 0.425325 0.587785 -0.688191
vn 0.525731 0 -0.850651
vn 0.955423 0 -0.295242
vn 0.850651 0.525731 0
vn 0.864188 0.238856 -0.442863
vn 0.951056 0.262866 -0.16246
vn 0 0.525731 -0.850651
vn 0 0 -1
vn 0.5 0.309017 -0.809017
vn 0.864188 0.238856 0.442863
vn 0.5 0.309017 0.809017
vn 0.809017 0.5 0.309017
vn 0 0.295242 0.955423
vn 1 0 0
vn 0.850651 0 0.525731
vn 0.425325 0.587785 0.688191
vn 0 0.525731 0.850651
vn 0.525731 0 0.850651
vn 0 0 1
vn 0 0.295242 -0.955423
vn -0.425325 0.587785 0.688191
vn -0.525731 0 0.850651
vn -0.587785 0.688191 0.425325
vn -0.864188 0.238856 0.442863
vn -0.5 0.309017 0.809017
vn -0.850651 0 0.525731
vn -0.850651 0.525731 0
vn -0.951056 0.262866 0.16246
vn -0.864188 0.238856 -0.442863
vn -1 0 0
vn -0.587785 0.688191 -0.425325
vn -0.5 0.309017 -0.809017
vn -0.850651 0 -0.525731
vn -0.425325 0.587785 -0.688191
vn -0.525731 0 -0.850651
vn -0.688191 0.425325 -0.587785
vn -0.809017 0.5 0.309017
vn -0.587785 -0.688191 0.425325
vn -0.850651 -0.525731 0
vn -0.425325 -0.587785 0.688191
vn 0 -1 0
vn -0.809017 -0.5 -0.309017
vn -0.425325 -0.587785 -0.688191
vn 0 -0.525731 -0.850651
vn 0 -0.525731 0.850651
vn 0.850651 0 -0.525731
vn 0.688191 -0.425325 -0.587785
vn 0.850651 -0.525731 0
vn 0.809017 -0.5 0.309017
vn 0.425325 -0.587785 -0.688191
vn 0.425325 -0.587785 0.688191
vn 0.688191 0.425325 0.587785
vn 0.525731 0.850651 0
vn 0.442863 0.864188 -0.238856
vn 0.442863 0.864188 0.238856
vn 0.587785 0.688191 0.425325
vn 0.309017 0.809017 -0.5
vn 0 0.850651 -0.525731
vn -0.309017 0.809017 -0.5
vn -0.442863 0.864188 -0.238856
vn 0.238856 0.442863 -0.864188
vn -0.525731 0.850651 0
vn -0.809017 0.5 -0.309017
vn -0.688191 0.425325 0.587785
vn -0.309017 0.809017 0.5
vn -0.442863 0.864188 0.238856
vn -0.238856 0.442863 0.864188
vn 0 0.850651 0.525731
vn 0.309017 0.809017 0.5
vn 0.688191 0.425325 -0.587785
vn -0.442863 -0.864188 0.238856
vn -0.525731 -0.850651 0
vn -0.295242 -0.955423 0
vn -0.16246 -0.951056 0.262866
vn -0.309017 -0.809017 0.5
vn -0.809017 -0.5 0.309017
vn -0.442863 -0.864188 -0.238856
vn -0.587785 -0.688191 -0.425325
vn -0.16246 -0.951056 -0.262866
vn -0.309017 -0.809017 -0.5
vn -0.688191 -0.425325 0.587785
vn -0.238856 -0.442863 0.864188
vn 0 -0.850651 0.525731
vn 0.309017 -0.809017 0.5
vn 0.16246 -0.951056 0.262866
vn 0.442863 -0.864188 0.238856
vn 0.587785 -0.688191 0.425325
vn 0.295242 -0.955423 0
vn 0.525731 -0.850651 0
vn 0.442863 -0.864188 -0.238856
vn 0.587785 -0.688191 -0.425325
vn 0.309017 -0.809017 -0.5
vn 0.16246 -0.951056 -0.262866
vn 0 -0.850651 -0.525731
vn 0.238856 -0.442863 -0.864188

# Mesh '' with 300 faces
usemtl $Material_0
f  1/1/1 2/2/2 3/3/3
f  3/3/3 4/4/4 1/1/1
f  5/5/5 1/1/1 4/4/4
f  2/2/2 1/1/1 6/6/6
f  7/7/7 6/6/6 1/1/1
f  1/1/1 5/5/5 7/7/7
f  2/2/2 8/8/8 9/9/9
f  9/9/9 3/3/3 2/2/2
f  6/6/6 10/10/10 2/2/2
f  11/11/7 12/12/6 6/6/6
f  6/6/6 7/7/7 11/11/7
f  10/10/10 6/6/6 12/12/6
f  13/13/11 11/11/7 7/7/7
f  14/14/11 7/7/7 5/5/5
f  7/7/7 14/14/11 13/13/11
f  15/15/12 13/13/11 14/14/11
f  5/5/5 16/16/13 14/14/11
f  17/17/12 14/14/11 16/16/13
f  14/14/11 17/17/12 15/15/12
f  18/18/14 15/15/12 17/17/12
f  17/17/12 19/19/14 18/18/14
f  16/16/13 5/5/5 20/20/15
f  20/20/15 21/21/16 16/16/13
f  22/22/17 16/16/13 21/21/16
f  16/16/13 22/22/17 17/17/12
f  19/19/14 17/17/12 22/22/17
f  22/22/17 23/23/18 19/19/14
f  21/21/16 24/24/19 22/22/17
f  23/23/18 22/22/17 24/24/19
f  24/24/19 25/25/20 23/23/18
f  4/4/4 20/20/15 5/5/5
f  12/12/6 26/26/10 10/10/10
f  26/26/10 27/27/21 28/28/21
f  28/28/21 10/10/10 26/26/10
f  10/10/10 28/28/21 8/8/8
f  8/8/8 2/2/2 10/10/10
f  29/2/22 23/8/18 25/9/20
f  25/9/20 30/3/23 29/2/22
f  31/1/24 29/2/22 30/3/23
f  32/6/25 33/10/26 29/2/22
f  29/2/22 31/1/24 32/6/25
f  30/3/23 34/4/27 31/1/24
f  35/5/28 31/1/24 34/4/27
f  36/7/29 32/6/25 31/1/24
f  31/1/24 35/5/28 36/7/29
f  33/10/26 32/6/25 37/12/25
f  38/11/29 37/12/25 32/6/25
f  32/6/25 36/7/29 38/11/29
f  39/14/30 36/7/29 35/5/28
f  40/13/30 38/11/29 36/7/29
f  36/7/29 39/14/30 40/13/30
f  34/4/27 41/20/31 35/5/28
f  42/16/32 35/5/28 41/20/31
f  35/5/28 42/16/32 39/14/30
f  43/17/33 39/14/30 42/16/32
f  44/15/33 40/13/30 39/14/30
f  39/14/30 43/17/33 44/15/33
f  41/20/31 45/21/34 42/16/32
f  46/22/35 42/16/32 45/21/34
f  42/16/32 46/22/35 43/17/33
f  28/19/21 43/17/33 46/22/35
f  46/22/35 8/23/8 28/19/21
f  45/21/34 47/24/36 46/22/35
f  8/23/8 46/22/35 47/24/36
f  47/24/36 9/25/9 8/23/8
f  27/18/21 44/15/33 43/17/33
f  43/17/33 28/19/21 27/18/21
f  37/12/25 48/26/26 33/10/26
f  48/26/26 18/27/14 19/28/14
f  19/28/14 33/10/26 48/26/26
f  33/10/26 19/28/14 23/8/18
f  23/8/18 29/2/22 33/10/26
f  49/29/37 50/30/28 38/31/29
f  38/31/29 40/32/30 49/29/37
f  51/33/35 49/29/37 40/32/30
f  52/34/36 53/35/34 49/29/37
f  49/29/37 51/33/35 52/34/36
f  50/30/28 49/29/37 53/35/34
f  37/36/25 38/31/29 50/30/28
f  48/37/26 37/36/25 54/38/38
f  50/30/28 54/38/38 37/36/25
f  54/38/38 55/39/22 48/37/26
f  55/39/22 54/38/38 56/40/27
f  57/41/31 56/40/27 54/38/38
f  54/38/38 50/30/28 57/41/31
f  18/42/14 55/39/22 58/43/18
f  48/37/26 55/39/22 18/42/14
f  58/43/18 55/39/22 59/44/23
f  56/40/27 59/44/23 55/39/22
f  59/44/23 56/40/27 60/45/39
f  61/46/40 60/45/39 56/40/27
f  56/40/27 57/41/31 61/46/40
f  62/47/20 59/44/23 63/48/41
f  60/45/39 63/48/41 59/44/23
f  60/45/39 64/49/42 63/48/41
f  61/46/40 64/49/42 60/45/39
f  65/50/43 61/46/40 57/41/31
f  65/50/43 64/49/42 61/46/40
f  66/51/44 65/50/43 53/35/34
f  57/41/31 53/35/34 65/50/43
f  66/51/44 64/49/42 65/50/43
f  53/35/34 57/41/31 50/30/28
f  53/35/34 52/34/36 66/51/44
f  67/52/45 66/51/44 52/34/36
f  67/52/45 64/49/42 66/51/44
f  52/34/36 68/53/9 67/52/45
f  63/48/41 69/54/46 62/47/20
f  63/48/41 64/49/42 69/54/46
f  59/44/23 62/47/20 58/43/18
f  68/53/9 52/34/36 51/33/35
f  51/33/35 70/55/8 68/53/9
f  40/32/30 44/56/33 51/33/35
f  70/55/8 51/33/35 44/56/33
f  44/56/33 27/57/21 70/55/8
f  71/39/2 70/43/8 27/42/21
f  27/42/21 26/37/10 71/39/2
f  72/38/1 71/39/2 26/37/10
f  70/43/8 71/39/2 73/44/3
f  74/40/47 73/44/3 71/39/2
f  71/39/2 72/38/1 74/40/47
f  73/44/3 68/47/9 70/43/8
f  75/41/15 74/40/47 72/38/1
f  73/44/3 74/40/47 76/45/48
f  77/46/49 76/45/48 74/40/47
f  74/40/47 75/41/15 77/46/49
f  72/38/1 78/30/5 75/41/15
f  79/35/16 75/41/15 78/30/5
f  80/50/50 77/46/49 75/41/15
f  75/41/15 79/35/16 80/50/50
f  77/46/49 64/49/42 76/45/48
f  80/50/50 64/49/42 77/46/49
f  76/45/48 81/48/51 73/44/3
f  76/45/48 64/49/42 81/48/51
f  68/47/9 73/44/3 81/48/51
f  81/48/51 67/54/45 68/47/9
f  81/48/51 64/49/42 67/54/45
f  82/51/52 80/50/50 79/35/16
f  82/51/52 64/49/42 80/50/50
f  79/35/16 83/58/19 82/51/52
f  69/52/46 82/51/52 83/58/19
f  69/52/46 64/49/42 82/51/52
f  83/58/19 79/35/16 84/29/53
f  84/29/53 85/33/12 83/58/19
f  62/53/20 83/58/19 85/33/12
f  84/29/53 78/30/5 11/31/7
f  11/31/7 13/32/11 84/29/53
f  85/33/12 84/29/53 13/32/11
f  78/30/5 84/29/53 79/35/16
f  13/32/11 15/56/12 85/33/12
f  58/55/18 85/33/12 15/56/12
f  85/33/12 58/55/18 62/53/20
f  15/56/12 18/57/14 58/55/18
f  78/30/5 72/38/1 12/36/6
f  12/36/6 11/31/7 78/30/5
f  26/37/10 12/36/6 72/38/1
f  83/58/19 62/53/20 69/52/46
f  86/59/54 87/60/55 1/61/1
f  1/61/1 5/62/5 86/59/54
f  88/63/56 86/59/54 5/62/5
f  87/60/55 86/59/54 89/64/5
f  90/65/57 89/64/5 86/59/54
f  86/59/54 88/63/56 90/65/57
f  2/66/2 1/61/1 87/60/55
f  8/67/8 2/66/2 91/68/58
f  87/60/55 91/68/58 2/66/2
f  46/69/35 8/67/8 92/70/59
f  91/68/58 92/70/59 8/67/8
f  92/70/59 91/68/58 93/71/2
f  94/72/1 93/71/2 91/68/58
f  91/68/58 87/60/55 94/72/1
f  92/70/59 95/73/60 46/69/35
f  95/73/60 92/70/59 96/74/8
f  93/71/2 96/74/8 92/70/59
f  42/75/32 46/69/35 95/73/60
f  95/73/60 97/76/61 42/75/32
f  95/73/60 98/77/35 97/76/61
f  96/74/8 98/77/35 95/73/60
f  99/78/62 100/79/8 96/74/8
f  96/74/8 93/71/2 99/78/62
f  98/77/35 96/74/8 100/79/8
f  97/76/61 98/77/35 101/80/32
f  101/80/32 98/77/35 102/81/35
f  100/79/8 102/81/35 98/77/35
f  103/82/63 101/80/32 104/83/28
f  97/76/61 101/80/32 103/82/63
f  104/83/28 101/80/32 105/84/64
f  102/81/35 105/84/64 101/80/32
f  103/82/63 104/83/28 106/85/24
f  106/85/24 104/83/28 107/86/28
f  105/84/64 107/86/28 104/83/28
f  107/86/28 108/87/65 106/85/24
f  109/88/66 110/89/67 106/85/24
f  106/85/24 111/90/22 109/88/66
f  106/85/24 110/89/67 103/82/63
f  111/90/22 106/85/24 108/87/65
f  108/87/65 112/91/68 111/90/22
f  111/90/22 113/92/18 114/93/69
f  114/93/69 109/88/66 111/90/22
f  113/92/18 111/90/22 112/91/68
f  109/88/66 114/93/69 23/94/18
f  23/94/18 29/95/22 109/88/66
f  110/89/67 109/88/66 29/95/22
f  29/95/22 31/96/24 110/89/67
f  103/82/63 110/89/67 31/96/24
f  31/96/24 35/97/28 103/82/63
f  97/76/61 103/82/63 35/97/28
f  35/97/28 42/75/32 97/76/61
f  114/93/69 22/98/17 23/94/18
f  16/99/13 22/98/17 115/100/70
f  114/93/69 115/100/70 22/98/17
f  5/62/5 16/99/13 88/63/56
f  115/100/70 88/63/56 16/99/13
f  115/100/70 116/101/17 88/63/56
f  113/92/18 116/101/17 115/100/70
f  115/100/70 114/93/69 113/92/18
f  116/101/17 90/65/57 88/63/56
f  90/65/57 116/101/17 117/102/17
f  118/103/18 117/102/17 116/101/17
f  116/101/17 113/92/18 118/103/18
f  112/91/68 118/103/18 113/92/18
f  117/102/17 119/104/13 90/65/57
f  89/64/5 90/65/57 119/104/13
f  119/104/13 120/105/5 89/64/5
f  89/64/5 94/72/1 87/60/55
f  94/72/1 89/64/5 120/105/5
f  120/105/5 121/106/71 94/72/1
f  93/71/2 94/72/1 121/106/71
f  121/106/71 99/78/62 93/71/2
f  1/107/72 87/108/72 86/109/73
f  86/109/73 5/110/74 1/107/72
f  87/108/72 1/107/72 2/111/75
f  2/111/75 91/112/76 87/108/72
f  87/108/72 94/113/77 89/114/40
f  89/114/40 86/109/73 87/108/72
f  94/113/77 87/108/72 91/112/76
f  5/110/74 86/109/73 88/115/78
f  86/109/73 89/114/40 90/116/79
f  90/116/79 88/115/78 86/109/73
f  88/115/78 16/117/80 5/110/74
f  16/117/80 88/115/78 115/118/81
f  88/115/78 90/116/79 116/119/44
f  88/115/78 116/119/44 115/118/81
f  119/120/43 90/116/79 89/114/40
f  90/116/79 119/120/43 117/121/44
f  117/121/44 116/119/44 90/116/79
f  120/122/40 89/114/40 94/113/77
f  89/114/40 120/122/40 119/120/43
f  94/113/77 121/123/82 120/122/40
f  93/124/41 99/125/83 121/123/82
f  121/123/82 94/113/77 93/124/41
f  92/126/84 96/127/46 93/124/41
f  93/124/41 91/112/76 92/126/84
f  91/112/76 93/124/41 94/113/77
f  99/125/83 93/124/41 96/127/46
f  96/127/46 100/128/46 99/125/83
f  95/129/85 98/130/52 96/127/46
f  96/127/46 92/126/84 95/129/85
f  100/128/46 96/127/46 98/130/52
f  42/131/86 97/132/87 95/129/85
f  95/129/85 46/133/86 42/131/86
f  46/133/86 95/129/85 92/126/84
f  97/132/87 98/130/52 95/129/85
f  101/134/88 98/130/52 97/132/87
f  102/135/52 98/130/52 101/134/88
f  98/130/52 102/135/52 100/128/46
f  35/136/89 103/137/90 97/132/87
f  97/132/87 42/131/86 35/136/89
f  103/137/90 101/134/88 97/132/87
f  104/138/49 101/134/88 103/137/90
f  105/139/50 101/134/88 104/138/49
f  101/134/88 105/139/50 102/135/52
f  31/140/89 110/141/91 103/137/90
f  103/137/90 35/136/89 31/140/89
f  106/142/92 104/138/49 103/137/90
f  103/137/90 110/141/91 106/142/92
f  107/143/49 104/138/49 106/142/92
f  104/138/49 107/143/49 105/139/50
f  106/142/92 110/141/91 109/144/93
f  109/144/93 111/145/51 106/142/92
f  108/146/48 106/142/92 111/145/51
f  106/142/92 108/146/48 107/143/49
f  29/147/94 109/144/93 110/141/91
f  110/141/91 31/140/89 29/147/94
f  23/148/94 114/149/95 109/144/93
f  109/144/93 29/147/94 23/148/94
f  111/145/51 109/144/93 114/149/95
f  114/149/95 113/150/45 111/145/51
f  112/151/96 111/145/51 113/150/45
f  111/145/51 112/151/96 108/146/48
f  22/152/80 115/118/81 114/149/95
f  23/148/94 22/152/80 114/149/95
f  113/150/45 114/149/95 115/118/81
f  115/118/81 116/119/44 113/150/45
f  118/153/45 113/150/45 116/119/44
f  113/150/45 118/153/45 112/151/96
f  115/118/81 22/152/80 16/117/80
f  116/119/44 117/121/44 118/153/45
f  92/126/84 8/154/84 46/133/86
f  8/154/84 92/126/84 91/112/76
f  91/112/76 2/111/75 8/154/84

