# File produced by Open Asset Import Library (http://www.assimp.sf.net)
# (assimp v3.1.187496374)

mtllib column.obj.mtl

# 180 vertex positions
v  0.042099 9.79988 63.561
v  -31.9361 9.79988 54.8397
v  0.042099 -0.375 63.561
v  0.042099 15.6141 43.938
v  -21.7612 15.6141 38.1238
v  32.0203 9.79988 54.8397
v  32.0203 -0.375 54.8397
v  -31.9361 -0.375 54.8397
v  -55.193 9.79988 31.5828
v  -55.193 -0.375 31.5828
v  -37.7503 15.6141 21.4079
v  -63.1875 9.79988 -0.395401
v  -44.2913 15.6141 -0.395401
v  -63.1875 -0.375 -0.395401
v  -55.193 9.79988 -32.3736
v  -37.7503 15.6141 -22.1987
v  -44.2913 41.0513 -0.395401
v  -37.7503 41.0513 -22.1987
v  -21.7612 15.6141 -38.1878
v  -21.7612 41.0513 -38.1878
v  -55.193 -0.375 -32.3736
v  -31.9361 9.79988 -55.6305
v  0.042099 15.6141 -44.7288
v  0.042099 41.0513 -44.7288
v  -20.3077 48.3191 -36.0075
v  0.042099 48.3191 -41.0949
v  -35.57 48.3191 -20.7452
v  -21.7612 57.0404 -38.1878
v  0.042099 57.0404 -44.7288
v  -40.6574 48.3191 -0.395401
v  -37.7503 57.0404 -22.1987
v  -21.7612 83.9311 -38.1878
v  0.042099 83.9311 -44.7288
v  -44.2913 57.0404 -0.395401
v  -37.7503 83.9311 -22.1987
v  -20.3077 91.1989 -36.0075
v  0.042099 91.1989 -41.0949
v  -44.2913 83.9311 -0.395401
v  -35.57 91.1989 -20.7452
v  -37.7503 57.0404 21.4079
v  -35.57 48.3191 19.9544
v  -37.7503 83.9311 21.4079
v  -40.6574 91.1989 -0.395401
v  -37.7503 99.1935 -22.1987
v  -21.7612 99.1935 -38.1878
v  -35.57 91.1989 19.9544
v  -44.2913 99.1935 -0.395401
v  -21.7612 83.9311 38.1238
v  -21.7612 57.0404 38.1238
v  -20.3077 91.1989 35.2167
v  -37.7503 99.1935 21.4079
v  -44.2913 126.084 -0.395401
v  -37.7503 126.084 -22.1987
v  -21.7612 99.1935 38.1238
v  -37.7503 126.084 21.4079
v  0.042099 91.1989 40.3041
v  0.042099 83.9311 43.938
v  0.042099 99.1935 43.938
v  -21.7612 126.084 38.1238
v  -35.57 133.352 19.9544
v  -40.6574 133.352 -0.395401
v  0.042099 126.084 43.938
v  -20.3077 133.352 35.2167
v  21.8454 99.1935 38.1238
v  20.3919 91.1989 35.2167
v  0.042099 133.352 40.3041
v  21.8454 126.084 38.1238
v  -21.7612 141.347 38.1238
v  -37.7503 141.347 21.4079
v  0.042099 141.347 43.938
v  20.3919 133.352 35.2167
v  38.5613 126.084 21.4079
v  38.5613 99.1935 21.4079
v  35.6542 133.352 19.9544
v  21.8454 141.347 38.1238
v  0.042099 168.237 43.938
v  -21.7612 168.237 38.1238
v  38.5613 141.347 21.4079
v  21.8454 168.237 38.1238
v  40.7416 133.352 -0.395401
v  44.3755 126.084 -0.395401
v  44.3755 141.347 -0.395401
v  38.5613 168.237 21.4079
v  32.0203 174.051 54.8397
v  0.042099 174.051 63.561
v  44.3755 168.237 -0.395401
v  55.2772 174.051 31.5828
v  38.5613 141.347 -22.1987
v  35.6542 133.352 -20.7452
v  38.5613 168.237 -22.1987
v  63.9985 174.051 -0.395401
v  55.2772 184.226 31.5828
v  32.0203 184.226 54.8397
v  55.2772 174.051 -32.3736
v  63.9985 184.226 -0.395401
v  21.8454 168.237 -38.1878
v  21.8454 141.347 -38.1878
v  32.0203 174.051 -55.6305
v  55.2772 184.226 -32.3736
v  0.042099 168.237 -44.7288
v  0.042099 141.347 -44.7288
v  0.042099 133.352 -41.0949
v  20.3919 133.352 -36.0075
v  0.042099 126.084 -44.7288
v  21.8454 126.084 -38.1878
v  0.042099 99.1935 -44.7288
v  21.8454 99.1935 -38.1878
v  38.5613 126.084 -22.1987
v  38.5613 99.1935 -22.1987
v  20.3919 91.1989 -36.0075
v  35.6542 91.1989 -20.7452
v  44.3755 99.1935 -0.395401
v  40.7416 91.1989 -0.395401
v  21.8454 83.9311 -38.1878
v  38.5613 83.9311 -22.1987
v  21.8454 57.0404 -38.1878
v  38.5613 57.0404 -22.1987
v  44.3755 83.9311 -0.395401
v  20.3919 48.3191 -36.0075
v  35.6542 48.3191 -20.7452
v  44.3755 57.0404 -0.395401
v  38.5613 83.9311 21.4079
v  35.6542 91.1989 19.9544
v  40.7416 48.3191 -0.395401
v  38.5613 57.0404 21.4079
v  21.8454 83.9311 38.1238
v  21.8454 57.0404 38.1238
v  35.6542 48.3191 19.9544
v  20.3919 48.3191 35.2167
v  0.042099 57.0404 43.938
v  0.042099 48.3191 40.3041
v  38.5613 41.0513 21.4079
v  21.8454 41.0513 38.1238
v  44.3755 41.0513 -0.395401
v  44.3755 15.6141 -0.395401
v  38.5613 15.6141 21.4079
v  21.8454 15.6141 38.1238
v  0.042099 41.0513 43.938
v  63.9985 9.79988 -0.395401
v  55.2772 9.79988 31.5828
v  38.5613 15.6141 -22.1987
v  55.2772 9.79988 -32.3736
v  55.2772 -0.375 -32.3736
v  63.9985 -0.375 -0.395401
v  55.2772 -0.375 31.5828
v  -21.7612 41.0513 38.1238
v  -20.3077 48.3191 35.2167
v  -37.7503 41.0513 21.4079
v  32.0203 -0.375 -55.6305
v  32.0203 9.79988 -55.6305
v  0.042099 -0.375 -63.625
v  0.042099 9.79988 -63.625
v  21.8454 15.6141 -38.1878
v  38.5613 41.0513 -22.1987
v  21.8454 41.0513 -38.1878
v  0.042099 174.051 -63.625
v  0.042099 184.226 -63.625
v  32.0203 184.226 -55.6305
v  0.042099 184.226 63.561
v  -31.9361 184.226 54.8397
v  -31.9361 174.051 54.8397
v  -55.193 184.226 31.5828
v  -55.193 174.051 31.5828
v  -63.1875 184.226 -0.395401
v  -37.7503 168.237 21.4079
v  -63.1875 174.051 -0.395401
v  -44.2913 168.237 -0.395401
v  -55.193 174.051 -32.3736
v  -55.193 184.226 -32.3736
v  -44.2913 141.347 -0.395401
v  -37.7503 168.237 -22.1987
v  -37.7503 141.347 -22.1987
v  -21.7612 168.237 -38.1878
v  -31.9361 174.051 -55.6305
v  -35.57 133.352 -20.7452
v  -21.7612 141.347 -38.1878
v  -20.3077 133.352 -36.0075
v  -21.7612 126.084 -38.1878
v  -31.9361 184.226 -55.6305
v  -31.9361 -0.375 -55.6305

# 195 UV coordinates
vt 0.492188 0.0703125 0
vt 0.570312 0.0703125 0
vt 0.492188 0.015625 0
vt 0.492188 0.125 0
vt 0.570312 0.125 0
vt 0.414062 0.0703125 0
vt 0.414062 0.015625 0
vt 0.570312 0.015625 0
vt 0.640625 0.0703125 0
vt 0.640625 0.015625 0
vt 0.640625 0.125 0
vt 0.71875 0.0703125 0
vt 0.71875 0.125 0
vt 0.71875 0.015625 0
vt 0.796875 0.0703125 0
vt 0.796875 0.125 0
vt 0.71875 0.234375 0
vt 0.796875 0.234375 0
vt 0.875 0.125 0
vt 0.875 0.234375 0
vt 0.796875 0.015625 0
vt 0.875 0.0703125 0
vt 0.945312 0.125 0
vt 0.945312 0.234375 0
vt 0.875 0.273438 0
vt 0.945312 0.273438 0
vt 0.796875 0.273438 0
vt 0.875 0.320312 0
vt 0.945312 0.320312 0
vt 0.71875 0.273438 0
vt 0.796875 0.320312 0
vt 0.875 0.460938 0
vt 0.945312 0.460938 0
vt 0.71875 0.320312 0
vt 0.796875 0.460938 0
vt 0.875 0.5 0
vt 0.945312 0.5 0
vt 0.71875 0.460938 0
vt 0.796875 0.5 0
vt 0.640625 0.320312 0
vt 0.640625 0.273438 0
vt 0.640625 0.460938 0
vt 0.71875 0.5 0
vt 0.796875 0.539062 0
vt 0.875 0.539062 0
vt 0.640625 0.5 0
vt 0.71875 0.539062 0
vt 0.570312 0.460938 0
vt 0.570312 0.320312 0
vt 0.570312 0.5 0
vt 0.640625 0.539062 0
vt 0.71875 0.6875 0
vt 0.796875 0.6875 0
vt 0.570312 0.539062 0
vt 0.640625 0.6875 0
vt 0.492188 0.5 0
vt 0.492188 0.460938 0
vt 0.492188 0.539062 0
vt 0.570312 0.6875 0
vt 0.640625 0.71875 0
vt 0.71875 0.71875 0
vt 0.492188 0.6875 0
vt 0.570312 0.71875 0
vt 0.414062 0.539062 0
vt 0.414062 0.5 0
vt 0.492188 0.71875 0
vt 0.414062 0.6875 0
vt 0.570312 0.765625 0
vt 0.640625 0.765625 0
vt 0.492188 0.765625 0
vt 0.414062 0.71875 0
vt 0.34375 0.6875 0
vt 0.34375 0.539062 0
vt 0.34375 0.71875 0
vt 0.414062 0.765625 0
vt 0.492188 0.875 0
vt 0.570312 0.875 0
vt 0.34375 0.765625 0
vt 0.414062 0.875 0
vt 0.265625 0.71875 0
vt 0.265625 0.6875 0
vt 0.265625 0.765625 0
vt 0.34375 0.875 0
vt 0.414062 0.9375 0
vt 0.492188 0.9375 0
vt 0.265625 0.875 0
vt 0.34375 0.9375 0
vt 0.1875 0.765625 0
vt 0.1875 0.71875 0
vt 0.1875 0.875 0
vt 0.265625 0.9375 0
vt 0.34375 0.992188 0
vt 0.414062 0.992188 0
vt 0.1875 0.9375 0
vt 0.265625 0.992188 0
vt 0.117188 0.875 0
vt 0.117188 0.765625 0
vt 0.117188 0.9375 0
vt 0.1875 0.992188 0
vt 0.0390625 0.875 0
vt 0.0390625 0.765625 0
vt 0.0390625 0.71875 0
vt 0.117188 0.71875 0
vt 0.0390625 0.6875 0
vt 0.117188 0.6875 0
vt 0.0390625 0.539062 0
vt 0.117188 0.539062 0
vt 0.1875 0.6875 0
vt 0.1875 0.539062 0
vt 0.0390625 0.5 0
vt 0.117188 0.5 0
vt 0.1875 0.5 0
vt 0.265625 0.539062 0
vt 0.265625 0.5 0
vt 0.117188 0.460938 0
vt 0.1875 0.460938 0
vt 0.0390625 0.460938 0
vt 0.0390625 0.320312 0
vt 0.117188 0.320312 0
vt 0.1875 0.320312 0
vt 0.265625 0.460938 0
vt 0.0390625 0.273438 0
vt 0.117188 0.273438 0
vt 0.1875 0.273438 0
vt 0.265625 0.320312 0
vt 0.34375 0.460938 0
vt 0.34375 0.5 0
vt 0.265625 0.273438 0
vt 0.34375 0.320312 0
vt 0.414062 0.460938 0
vt 0.414062 0.320312 0
vt 0.34375 0.273438 0
vt 0.414062 0.273438 0
vt 0.492188 0.320312 0
vt 0.492188 0.273438 0
vt 0.34375 0.234375 0
vt 0.414062 0.234375 0
vt 0.265625 0.234375 0
vt 0.265625 0.125 0
vt 0.34375 0.125 0
vt 0.414062 0.125 0
vt 0.492188 0.234375 0
vt 0.265625 0.0703125 0
vt 0.34375 0.0703125 0
vt 0.1875 0.125 0
vt 0.1875 0.0703125 0
vt 0.1875 0.015625 0
vt 0.265625 0.015625 0
vt 0.34375 0.015625 0
vt 0.570312 0.234375 0
vt 0.570312 0.273438 0
vt 0.640625 0.234375 0
vt 0.117188 0.015625 0
vt 0.117188 0.0703125 0
vt 0.0390625 0.015625 0
vt 0.0390625 0.0703125 0
vt 0.117188 0.125 0
vt 0.1875 0.234375 0
vt 0.0390625 0.125 0
vt 0.117188 0.234375 0
vt 0.0390625 0.234375 0
vt 0.0390625 0.9375 0
vt 0.0390625 0.992188 0
vt 0.117188 0.992188 0
vt 0.492188 0.992188 0
vt 0.570312 0.992188 0
vt 0.570312 0.9375 0
vt 0.640625 0.992188 0
vt 0.640625 0.9375 0
vt 0.71875 0.992188 0
vt 0.640625 0.875 0
vt 0.71875 0.9375 0
vt 0.71875 0.875 0
vt 0.796875 0.9375 0
vt 0.796875 0.992188 0
vt 0.71875 0.765625 0
vt 0.796875 0.875 0
vt 0.796875 0.765625 0
vt 0.875 0.875 0
vt 0.875 0.9375 0
vt 0.796875 0.71875 0
vt 0.875 0.765625 0
vt 0.875 0.71875 0
vt 0.945312 0.765625 0
vt 0.945312 0.875 0
vt 0.875 0.6875 0
vt 0.945312 0.71875 0
vt 0.945312 0.6875 0
vt 0.945312 0.539062 0
vt 0.945312 0.9375 0
vt 0.945312 0.992188 0
vt 0.875 0.992188 0
vt 0.945312 0.0703125 0
vt 0.875 0.015625 0
vt 0.945312 0.015625 0

# 58 vertex normals
vn 0.147621 0.681718 0.716567
vn -0.309017 0.809017 0.5
vn 0 0 1
vn 0 0.525731 0.850651
vn -0.425325 0.587785 0.688191
vn 0.309017 0.809017 0.5
vn 0.525731 0 0.850651
vn -0.525731 0 0.850651
vn -0.587785 0.688191 0.425325
vn -0.955423 0 0.295242
vn -0.809017 0.5 0.309017
vn -0.681718 0.716567 0.147621
vn -0.850651 0.525731 0
vn -1 0 0
vn -0.587785 0.688191 -0.425325
vn -0.850651 0 -0.525731
vn -0.425325 0.587785 -0.688191
vn -0.525731 0 -0.850651
vn -0.309017 0.809017 -0.5
vn 0 0.525731 -0.850651
vn 0 0 -1
vn -0.850651 0 0.525731
vn 0.850651 0 0.525731
vn 0 -0.525731 0.850651
vn -0.425325 -0.587785 0.688191
vn 0.425325 -0.587785 0.688191
vn 1 0 0
vn 0.809017 -0.5 0.309017
vn 0.309017 -0.809017 0.5
vn -0.147621 -0.681718 0.716567
vn 0.850651 -0.525731 0
vn 0.587785 -0.688191 0.425325
vn 0.850651 0 -0.525731
vn 0.587785 -0.688191 -0.425325
vn 0.681718 -0.716567 0.147621
vn 0.425325 -0.587785 -0.688191
vn 0.525731 0 -0.850651
vn 0.309017 -0.809017 -0.5
vn 0 -0.525731 -0.850651
vn 0.850651 0.525731 0
vn 0.587785 0.688191 0.425325
vn 0.425325 0.587785 0.688191
vn 0.681718 0.716567 -0.147621
vn 0.809017 0.5 -0.309017
vn 0.587785 0.688191 -0.425325
vn 0.309017 0.809017 -0.5
vn -0.147621 0.681718 -0.716567
vn 0.425325 0.587785 -0.688191
vn 0.147621 -0.681718 -0.716567
vn -0.309017 -0.809017 0.5
vn -0.587785 -0.688191 0.425325
vn -0.681718 -0.716567 -0.147621
vn -0.850651 -0.525731 0
vn -0.587785 -0.688191 -0.425325
vn -0.955423 0 -0.295242
vn -0.809017 -0.5 -0.309017
vn -0.425325 -0.587785 -0.688191
vn -0.309017 -0.809017 -0.5

# Mesh '' with 336 faces
usemtl $Material_0
f  1/1/1 2/2/2 3/3/3
f  4/4/4 5/5/5 1/1/1
f  5/5/5 2/2/2 1/1/1
f  6/6/6 1/1/1 7/7/7
f  1/1/1 3/3/3 7/7/7
f  4/4/4 1/1/1 6/6/6
f  2/2/2 8/8/8 3/3/3
f  2/2/2 9/9/9 8/8/8
f  9/9/9 10/10/10 8/8/8
f  11/11/11 9/9/9 2/2/2
f  9/9/9 12/12/12 10/10/10
f  11/11/11 13/13/13 9/9/9
f  13/13/13 12/12/12 9/9/9
f  12/12/12 14/14/14 10/10/10
f  12/12/12 15/15/15 14/14/14
f  13/13/13 16/16/15 12/12/12
f  16/16/15 15/15/15 12/12/12
f  17/17/14 13/13/13 11/11/11
f  17/17/14 18/18/16 13/13/13
f  18/18/16 16/16/15 13/13/13
f  16/16/15 19/19/17 15/15/15
f  18/18/16 20/20/18 16/16/15
f  20/20/18 19/19/17 16/16/15
f  15/15/15 21/21/16 14/14/14
f  15/15/15 22/22/19 21/21/16
f  19/19/17 22/22/19 15/15/15
f  19/19/17 23/23/20 22/22/19
f  20/20/18 24/24/21 19/19/17
f  24/24/21 23/23/20 19/19/17
f  25/25/18 20/20/18 18/18/16
f  25/25/18 26/26/21 20/20/18
f  26/26/21 24/24/21 20/20/18
f  27/27/16 25/25/18 18/18/16
f  28/28/18 25/25/18 27/27/16
f  28/28/18 29/29/21 25/25/18
f  29/29/21 26/26/21 25/25/18
f  30/30/14 27/27/16 17/17/14
f  27/27/16 18/18/16 17/17/14
f  31/31/16 27/27/16 30/30/14
f  31/31/16 28/28/18 27/27/16
f  32/32/18 28/28/18 31/31/16
f  32/32/18 33/33/21 28/28/18
f  33/33/21 29/29/21 28/28/18
f  34/34/14 31/31/16 30/30/14
f  35/35/16 31/31/16 34/34/14
f  35/35/16 32/32/18 31/31/16
f  36/36/18 32/32/18 35/35/16
f  36/36/18 37/37/21 32/32/18
f  37/37/21 33/33/21 32/32/18
f  38/38/14 35/35/16 34/34/14
f  39/39/16 35/35/16 38/38/14
f  39/39/16 36/36/18 35/35/16
f  40/40/22 34/34/14 41/41/22
f  34/34/14 30/30/14 41/41/22
f  38/38/14 34/34/14 40/40/22
f  42/42/22 38/38/14 40/40/22
f  43/43/14 38/38/14 42/42/22
f  43/43/14 39/39/16 38/38/14
f  44/44/16 39/39/16 43/43/14
f  44/44/16 45/45/18 39/39/16
f  45/45/18 36/36/18 39/39/16
f  46/46/22 43/43/14 42/42/22
f  47/47/14 43/43/14 46/46/22
f  47/47/14 44/44/16 43/43/14
f  48/48/8 42/42/22 49/49/8
f  42/42/22 40/40/22 49/49/8
f  46/46/22 42/42/22 48/48/8
f  50/50/8 46/46/22 48/48/8
f  51/51/22 46/46/22 50/50/8
f  51/51/22 47/47/14 46/46/22
f  52/52/14 47/47/14 51/51/22
f  52/52/14 53/53/16 47/47/14
f  53/53/16 44/44/16 47/47/14
f  54/54/8 51/51/22 50/50/8
f  55/55/22 51/51/22 54/54/8
f  55/55/22 52/52/14 51/51/22
f  56/56/3 50/50/8 57/57/3
f  50/50/8 48/48/8 57/57/3
f  54/54/8 50/50/8 56/56/3
f  58/58/3 54/54/8 56/56/3
f  59/59/8 54/54/8 58/58/3
f  59/59/8 55/55/22 54/54/8
f  60/60/22 55/55/22 59/59/8
f  60/60/22 61/61/14 55/55/22
f  61/61/14 52/52/14 55/55/22
f  62/62/3 59/59/8 58/58/3
f  63/63/8 59/59/8 62/62/3
f  63/63/8 60/60/22 59/59/8
f  64/64/7 58/58/3 65/65/7
f  58/58/3 56/56/3 65/65/7
f  62/62/3 58/58/3 64/64/7
f  66/66/3 63/63/8 62/62/3
f  67/67/7 62/62/3 64/64/7
f  66/66/3 62/62/3 67/67/7
f  68/68/8 63/63/8 66/66/3
f  68/68/8 69/69/22 63/63/8
f  69/69/22 60/60/22 63/63/8
f  70/70/3 68/68/8 66/66/3
f  71/71/7 66/66/3 67/67/7
f  70/70/3 66/66/3 71/71/7
f  72/72/23 67/67/7 73/73/23
f  67/67/7 64/64/7 73/73/23
f  71/71/7 67/67/7 72/72/23
f  74/74/23 71/71/7 72/72/23
f  75/75/7 71/71/7 74/74/23
f  75/75/7 70/70/3 71/71/7
f  76/76/24 77/77/25 70/70/3
f  77/77/25 68/68/8 70/70/3
f  76/76/24 70/70/3 75/75/7
f  78/78/23 75/75/7 74/74/23
f  79/79/26 75/75/7 78/78/23
f  79/79/26 76/76/24 75/75/7
f  80/80/27 74/74/23 81/81/27
f  74/74/23 72/72/23 81/81/27
f  78/78/23 74/74/23 80/80/27
f  82/82/27 78/78/23 80/80/27
f  83/83/28 78/78/23 82/82/27
f  83/83/28 79/79/26 78/78/23
f  84/84/29 79/79/26 83/83/28
f  84/84/29 85/85/30 79/79/26
f  85/85/30 76/76/24 79/79/26
f  86/86/31 83/83/28 82/82/27
f  87/87/32 83/83/28 86/86/31
f  87/87/32 84/84/29 83/83/28
f  88/88/33 82/82/27 89/89/33
f  82/82/27 80/80/27 89/89/33
f  86/86/31 82/82/27 88/88/33
f  90/90/34 86/86/31 88/88/33
f  91/91/35 86/86/31 90/90/34
f  91/91/35 87/87/32 86/86/31
f  92/92/23 87/87/32 91/91/35
f  92/92/23 93/93/7 87/87/32
f  93/93/7 84/84/29 87/87/32
f  94/94/34 91/91/35 90/90/34
f  95/95/27 91/91/35 94/94/34
f  95/95/27 92/92/23 91/91/35
f  96/96/36 90/90/34 97/97/37
f  90/90/34 88/88/33 97/97/37
f  94/94/34 90/90/34 96/96/36
f  98/98/38 94/94/34 96/96/36
f  99/99/33 94/94/34 98/98/38
f  99/99/33 95/95/27 94/94/34
f  100/100/39 96/96/36 101/101/21
f  96/96/36 97/97/37 101/101/21
f  98/98/38 96/96/36 100/100/39
f  101/101/21 97/97/37 102/102/21
f  97/97/37 103/103/37 102/102/21
f  97/97/37 88/88/33 103/103/37
f  102/102/21 103/103/37 104/104/21
f  103/103/37 105/105/37 104/104/21
f  103/103/37 89/89/33 105/105/37
f  88/88/33 89/89/33 103/103/37
f  104/104/21 105/105/37 106/106/21
f  105/105/37 107/107/37 106/106/21
f  105/105/37 108/108/33 107/107/37
f  89/89/33 108/108/33 105/105/37
f  89/89/33 80/80/27 108/108/33
f  108/108/33 109/109/33 107/107/37
f  108/108/33 81/81/27 109/109/33
f  80/80/27 81/81/27 108/108/33
f  106/106/21 107/107/37 37/110/21
f  107/107/37 110/111/37 37/110/21
f  107/107/37 109/109/33 110/111/37
f  109/109/33 111/112/33 110/111/37
f  109/109/33 112/113/27 111/112/33
f  81/81/27 112/113/27 109/109/33
f  81/81/27 72/72/23 112/113/27
f  112/113/27 113/114/27 111/112/33
f  112/113/27 73/73/23 113/114/27
f  72/72/23 73/73/23 112/113/27
f  110/111/37 111/112/33 114/115/37
f  111/112/33 115/116/33 114/115/37
f  111/112/33 113/114/27 115/116/33
f  37/110/21 110/111/37 33/117/21
f  110/111/37 114/115/37 33/117/21
f  33/117/21 114/115/37 29/118/21
f  114/115/37 116/119/37 29/118/21
f  114/115/37 115/116/33 116/119/37
f  115/116/33 117/120/33 116/119/37
f  115/116/33 118/121/27 117/120/33
f  113/114/27 118/121/27 115/116/33
f  29/118/21 116/119/37 26/122/21
f  116/119/37 119/123/37 26/122/21
f  116/119/37 117/120/33 119/123/37
f  117/120/33 120/124/33 119/123/37
f  117/120/33 121/125/27 120/124/33
f  118/121/27 121/125/27 117/120/33
f  118/121/27 122/126/23 121/125/27
f  113/114/27 123/127/23 118/121/27
f  123/127/23 122/126/23 118/121/27
f  121/125/27 124/128/27 120/124/33
f  121/125/27 125/129/23 124/128/27
f  122/126/23 125/129/23 121/125/27
f  122/126/23 126/130/7 125/129/23
f  123/127/23 65/65/7 122/126/23
f  65/65/7 126/130/7 122/126/23
f  73/73/23 123/127/23 113/114/27
f  73/73/23 64/64/7 123/127/23
f  64/64/7 65/65/7 123/127/23
f  65/65/7 56/56/3 126/130/7
f  126/130/7 127/131/7 125/129/23
f  126/130/7 57/57/3 127/131/7
f  56/56/3 57/57/3 126/130/7
f  125/129/23 128/132/23 124/128/27
f  125/129/23 127/131/7 128/132/23
f  127/131/7 129/133/7 128/132/23
f  127/131/7 130/134/3 129/133/7
f  57/57/3 130/134/3 127/131/7
f  57/57/3 48/48/8 130/134/3
f  130/134/3 49/49/8 131/135/3
f  48/48/8 49/49/8 130/134/3
f  130/134/3 131/135/3 129/133/7
f  128/132/23 129/133/7 132/136/23
f  129/133/7 133/137/7 132/136/23
f  129/133/7 131/135/3 133/137/7
f  124/128/27 128/132/23 134/138/27
f  128/132/23 132/136/23 134/138/27
f  134/138/27 132/136/23 135/139/40
f  132/136/23 136/140/41 135/139/40
f  132/136/23 133/137/7 136/140/41
f  133/137/7 137/141/42 136/140/41
f  133/137/7 138/142/3 137/141/42
f  131/135/3 138/142/3 133/137/7
f  135/139/40 136/140/41 139/143/43
f  136/140/41 140/144/41 139/143/43
f  136/140/41 137/141/42 140/144/41
f  141/145/44 135/139/40 142/146/45
f  135/139/40 139/143/43 142/146/45
f  134/138/27 135/139/40 141/145/44
f  142/146/45 139/143/43 143/147/33
f  139/143/43 144/148/27 143/147/33
f  139/143/43 140/144/41 144/148/27
f  140/144/41 145/149/23 144/148/27
f  140/144/41 6/6/6 145/149/23
f  137/141/42 6/6/6 140/144/41
f  6/6/6 7/7/7 145/149/23
f  137/141/42 4/4/4 6/6/6
f  138/142/3 146/150/8 4/4/4
f  146/150/8 5/5/5 4/4/4
f  138/142/3 4/4/4 137/141/42
f  147/151/8 146/150/8 138/142/3
f  146/150/8 148/152/22 5/5/5
f  147/151/8 41/41/22 146/150/8
f  41/41/22 148/152/22 146/150/8
f  5/5/5 11/11/11 2/2/2
f  148/152/22 11/11/11 5/5/5
f  148/152/22 17/17/14 11/11/11
f  41/41/22 30/30/14 148/152/22
f  30/30/14 17/17/14 148/152/22
f  40/40/22 41/41/22 147/151/8
f  49/49/8 40/40/22 147/151/8
f  49/49/8 147/151/8 131/135/3
f  131/135/3 147/151/8 138/142/3
f  142/146/45 143/147/33 149/153/37
f  150/154/46 142/146/45 149/153/37
f  141/145/44 142/146/45 150/154/46
f  150/154/46 149/153/37 151/155/21
f  152/156/47 150/154/46 151/155/21
f  153/157/48 150/154/46 152/156/47
f  153/157/48 141/145/44 150/154/46
f  154/158/33 141/145/44 153/157/48
f  154/158/33 134/138/27 141/145/44
f  23/159/20 153/157/48 152/156/47
f  155/160/37 153/157/48 23/159/20
f  155/160/37 154/158/33 153/157/48
f  120/124/33 154/158/33 155/160/37
f  120/124/33 124/128/27 154/158/33
f  124/128/27 134/138/27 154/158/33
f  24/161/21 155/160/37 23/159/20
f  119/123/37 155/160/37 24/161/21
f  119/123/37 120/124/33 155/160/37
f  26/122/21 119/123/37 24/161/21
f  156/162/49 98/98/38 100/100/39
f  157/163/21 158/164/37 156/162/49
f  158/164/37 98/98/38 156/162/49
f  158/164/37 99/99/33 98/98/38
f  93/93/7 159/165/3 84/84/29
f  159/165/3 85/85/30 84/84/29
f  159/165/3 160/166/8 85/85/30
f  85/85/30 161/167/50 76/76/24
f  160/166/8 161/167/50 85/85/30
f  160/166/8 162/168/22 161/167/50
f  161/167/50 77/77/25 76/76/24
f  161/167/50 163/169/51 77/77/25
f  162/168/22 163/169/51 161/167/50
f  162/168/22 164/170/14 163/169/51
f  163/169/51 165/171/51 77/77/25
f  163/169/51 166/172/52 165/171/51
f  164/170/14 166/172/52 163/169/51
f  77/77/25 165/171/51 68/68/8
f  165/171/51 69/69/22 68/68/8
f  165/171/51 167/173/53 69/69/22
f  166/172/52 167/173/53 165/171/51
f  166/172/52 168/174/54 167/173/53
f  164/170/14 169/175/55 166/172/52
f  169/175/55 168/174/54 166/172/52
f  167/173/53 170/176/14 69/69/22
f  167/173/53 171/177/56 170/176/14
f  168/174/54 171/177/56 167/173/53
f  69/69/22 170/176/14 60/60/22
f  170/176/14 61/61/14 60/60/22
f  170/176/14 172/178/16 61/61/14
f  171/177/56 172/178/16 170/176/14
f  171/177/56 173/179/57 172/178/16
f  168/174/54 174/180/58 171/177/56
f  174/180/58 173/179/57 171/177/56
f  172/178/16 175/181/16 61/61/14
f  172/178/16 176/182/18 175/181/16
f  173/179/57 176/182/18 172/178/16
f  61/61/14 175/181/16 52/52/14
f  175/181/16 53/53/16 52/52/14
f  175/181/16 177/183/18 53/53/16
f  176/182/18 177/183/18 175/181/16
f  176/182/18 101/184/21 177/183/18
f  173/179/57 100/185/39 176/182/18
f  100/185/39 101/184/21 176/182/18
f  177/183/18 178/186/18 53/53/16
f  177/183/18 102/187/21 178/186/18
f  101/184/21 102/187/21 177/183/18
f  53/53/16 178/186/18 44/44/16
f  178/186/18 45/45/18 44/44/16
f  178/186/18 104/188/21 45/45/18
f  102/187/21 104/188/21 178/186/18
f  45/45/18 106/189/21 36/36/18
f  104/188/21 106/189/21 45/45/18
f  106/189/21 37/37/21 36/36/18
f  156/190/49 100/185/39 173/179/57
f  174/180/58 156/190/49 173/179/57
f  157/191/21 156/190/49 174/180/58
f  179/192/18 174/180/58 168/174/54
f  179/192/18 157/191/21 174/180/58
f  169/175/55 179/192/18 168/174/54
f  23/23/20 152/193/47 22/22/19
f  22/22/19 152/193/47 180/194/18
f  152/193/47 151/195/21 180/194/18
f  22/22/19 180/194/18 21/21/16

