# File produced by Open Asset Import Library (http://www.assimp.sf.net)
# (assimp v3.1.187496374)

mtllib crown.obj.mtl

# 164 vertex positions
v  8.81739 -12.1005 1.9047
v  9.0334 -12.1005 -1.8056
v  9.0334 -10.3946 -1.8056
v  8.81739 -10.3946 1.9047
v  7.73733 -12.4417 6.79553
v  8.49337 -12.4417 -6.35914
v  8.49337 -10.1672 -6.35914
v  10.6535 -8.91622 -1.8056
v  10.4375 -8.91622 1.9047
v  7.73733 -10.1672 6.79553
v  5.36122 -12.4417 11.3491
v  5.36122 -10.1672 11.3491
v  11.6255 -5.7319 -1.8056
v  11.4095 -5.7319 1.9047
v  11.3015 -6.41426 11.855
v  11.6255 -6.41426 -11.9246
v  11.6255 0.0680971 -1.8056
v  13.2456 -2.20641 -14.117
v  11.4095 0.0680971 1.9047
v  13.0296 -2.20641 14.0475
v  7.62933 -2.20641 19.107
v  4.06516 -6.41426 15.9026
v  13.4616 2.57006 14.5534
v  7.62933 2.57006 19.7816
v  1.47303 -6.98288 17.5891
v  1.47303 -1.97896 20.7935
v  1.25702 -9.93974 13.5415
v  1.25702 -12.5554 13.5415
v  13.2456 6.20927 14.3848
v  7.62933 6.20927 19.4443
v  1.47303 3.59359 21.6367
v  9.35741 4.27594 1.9047
v  11.1935 8.93868 11.855
v  4.06516 8.93868 15.734
v  1.47303 7.80143 21.2994
v  7.73733 9.73476 6.62688
v  4.17316 9.73476 10.3372
v  1.58104 12.0093 11.0118
v  1.47303 11.0995 17.4205
v  4.17316 8.59751 5.95229
v  1.58104 10.6446 6.12094
v  4.17316 6.323 1.9047
v  1.58104 7.2328 1.39875
v  4.17316 6.323 -1.8056
v  1.36502 7.2328 -1.131
v  9.57342 4.27594 -1.8056
v  6.00925 6.43672 -1.8056
v  6.00925 6.43672 1.9047
v  13.4616 6.20927 -14.2857
v  11.5175 8.93868 -11.7559
v  13.6776 2.57006 -14.623
v  7.73733 6.7779 -20.0198
v  7.73733 3.13869 -20.3571
v  8.49337 9.73476 -6.35914
v  4.06516 10.4171 -10.0694
v  4.06516 9.50731 -15.6349
v  1.36502 7.80143 -21.0317
v  1.36502 11.0995 -17.1527
v  1.36502 12.0093 -10.744
v  1.36502 3.59359 -21.369
v  7.73733 -1.63778 -19.6825
v  1.36502 -1.97896 -20.5257
v  4.06516 -5.84563 -15.8035
v  1.36502 -6.98288 -17.3214
v  1.36502 -9.93974 -12.4305
v  5.25321 -10.1672 -10.9127
v  5.25321 -12.4417 -10.9127
v  1.36502 -12.5554 -12.4305
v  5.57723 8.59751 -3.99804
v  5.14521 8.59751 4.26579
v  1.36502 10.872 -1.131
v  1.58104 10.872 1.39875
v  1.36502 13.2603 -0.962349
v  1.36502 10.872 -3.32344
v  1.36502 13.2603 -3.32344
v  1.58104 13.2603 1.2301
v  1.58104 10.872 3.59119
v  1.36502 16.2171 -0.962349
v  1.58104 13.2603 3.59119
v  1.58104 16.2171 1.2301
v  -1.2271 16.4446 -0.962349
v  -1.01109 16.4446 1.2301
v  -1.2271 13.4877 -0.962349
v  -1.2271 13.4877 -3.32344
v  -1.01109 13.4877 1.2301
v  -1.01109 13.4877 3.59119
v  -1.2271 11.0995 -1.131
v  -1.2271 11.0995 -3.32344
v  -1.01109 11.0995 1.39875
v  -1.2271 7.46025 -1.131
v  -1.01109 11.0995 3.59119
v  -1.01109 7.46025 1.39875
v  -4.68327 6.7779 -1.8056
v  -4.46726 6.7779 1.9047
v  -6.51936 6.43672 -1.63695
v  -6.51936 6.43672 1.9047
v  -10.0835 4.27594 -1.63695
v  -8.35545 9.73476 -7.70833
v  -10.0835 4.27594 1.9047
v  -5.97933 8.59751 4.26579
v  -12.0276 0.0680971 -1.63695
v  -11.7036 8.93868 -11.9246
v  -13.6477 6.20927 -14.623
v  -12.0276 0.0680971 2.07335
v  -8.78747 9.73476 6.45823
v  -12.0276 -5.7319 -1.63695
v  -12.0276 -5.7319 2.07335
v  -11.7036 8.93868 12.1923
v  -13.5397 6.20927 14.8907
v  -4.46726 8.59751 5.95229
v  -1.01109 10.872 6.12094
v  -4.46726 9.73476 10.3372
v  -1.01109 12.2367 11.0118
v  -4.46726 8.93868 15.734
v  -1.1191 11.2132 17.4205
v  -8.24744 6.66418 19.6129
v  -13.7557 2.57006 15.0594
v  -8.24744 2.57006 19.9502
v  -13.3237 -2.20641 14.5534
v  -11.0556 -8.91622 -1.63695
v  -11.0556 -8.91622 2.07335
v  -8.24744 -2.20641 19.2756
v  -11.8116 -6.41426 12.361
v  -1.1191 3.82104 21.6367
v  -1.1191 8.02888 21.2994
v  -1.1191 -1.75151 20.7935
v  -4.46726 -6.41426 15.9026
v  -1.1191 -6.75543 17.5891
v  -2.63117 -9.71229 13.5415
v  -6.62736 -10.1672 10.8431
v  -8.89547 -10.1672 6.28959
v  -6.62736 -12.4417 10.8431
v  -8.89547 -12.4417 6.28959
v  -9.4355 -12.1005 1.9047
v  -9.4355 -10.3946 1.9047
v  -9.4355 -10.3946 -1.63695
v  -9.4355 -12.1005 -1.63695
v  -8.78747 -10.1672 -6.35914
v  -8.78747 -12.4417 -6.35914
v  -11.8116 -6.41426 -12.0932
v  -5.76332 -12.4417 -10.9127
v  -5.76332 -10.1672 -10.9127
v  -13.4317 -2.20641 -14.2857
v  -13.8637 2.57006 -14.7916
v  -8.67946 -1.63778 -18.8392
v  -4.57526 -5.84563 -15.8035
v  -8.67946 3.13869 -19.5138
v  -1.2271 -1.75151 -20.5257
v  -1.2271 -6.75543 -17.3214
v  -1.2271 3.82104 -21.369
v  -8.67946 6.7779 -19.1765
v  -4.57526 9.50731 -15.6349
v  -1.2271 8.02888 -21.0317
v  -4.57526 10.4171 -10.0694
v  -1.2271 11.2132 -17.1527
v  -1.2271 12.2367 -10.744
v  -4.57526 9.16614 -5.85319
v  -1.2271 10.872 -5.85319
v  -5.65532 8.59751 -4.33534
v  -2.84718 -9.71229 -12.4305
v  -2.84718 -12.328 -12.4305
v  -2.63117 -12.328 13.5415
v  1.36502 10.6446 -5.85319
v  4.06516 9.16614 -5.85319

# 186 UV coordinates
vt 0.351562 0.359375 0
vt 0.429688 0.359375 0
vt 0.429688 0.414062 0
vt 0.351562 0.414062 0
vt 0.265625 0.359375 0
vt 0.507812 0.359375 0
vt 0.507812 0.414062 0
vt 0.429688 0.445312 0
vt 0.351562 0.445312 0
vt 0.265625 0.414062 0
vt 0.1875 0.359375 0
vt 0.1875 0.414062 0
vt 0.429688 0.523438 0
vt 0.351562 0.523438 0
vt 0.179688 0.507812 0
vt 0.617188 0.507812 0
vt 0.429688 0.648438 0
vt 0.65625 0.601562 0
vt 0.351562 0.648438 0
vt 0.140625 0.601562 0
vt 0.046875 0.59375 0
vt 0.101562 0.5 0
vt 0.125 0.710938 0
vt 0.03125 0.703125 0
vt 0.0703125 0.484375 0
vt 0.015625 0.59375 0
vt 0.148438 0.414062 0
vt 0.148438 0.359375 0
vt 0.132812 0.789062 0
vt 0.0390625 0.78125 0
vt 0 0.71875 0
vt 0.351562 0.742188 0
vt 0.179688 0.851562 0
vt 0.101562 0.84375 0
vt 0 0.8125 0
vt 0.273438 0.859375 0
vt 0.203125 0.859375 0
vt 0.1875 0.90625 0
vt 0.0703125 0.890625 0
vt 0.28125 0.835938 0
vt 0.28125 0.875 0
vt 0.359375 0.78125 0
vt 0.367188 0.796875 0
vt 0.429688 0.78125 0
vt 0.414062 0.796875 0
vt 0.429688 0.742188 0
vt 0.429688 0.789062 0
vt 0.359375 0.789062 0
vt 0.65625 0.789062 0
vt 0.609375 0.851562 0
vt 0.664062 0.710938 0
vt 0.757812 0.796875 0
vt 0.765625 0.710938 0
vt 0.507812 0.867188 0
vt 0.578125 0.875 0
vt 0.679688 0.851562 0
vt 0.78125 0.8125 0
vt 0.710938 0.882812 0
vt 0.59375 0.90625 0
vt 0.789062 0.71875 0
vt 0.757812 0.609375 0
vt 0.773438 0.59375 0
vt 0.679688 0.507812 0
vt 0.710938 0.484375 0
vt 0.625 0.414062 0
vt 0.59375 0.414062 0
vt 0.59375 0.359375 0
vt 0.625 0.359375 0
vt 0.46875 0.835938 0
vt 0.3125 0.835938 0
vt 0.789062 0.0234375 0
vt 0.71875 0.0234375 0
vt 0.71875 0.148438 0
vt 0.789062 0.148438 0
vt 0.71875 0.226562 0
vt 0.65625 0.148438 0
vt 0.65625 0.226562 0
vt 0.789062 0.226562 0
vt 0.859375 0.148438 0
vt 0.71875 0.320312 0
vt 0.859375 0.226562 0
vt 0.789062 0.320312 0
vt 0.921875 0.265625 0
vt 0.867188 0.265625 0
vt 0.867188 0.320312 0
vt 0.921875 0.320312 0
vt 0.96875 0.171875 0
vt 0.882812 0.171875 0
vt 0.882812 0.25 0
vt 0.96875 0.25 0
vt 0.804688 0.265625 0
vt 0.804688 0.320312 0
vt 0.984375 0.265625 0
vt 0.984375 0.320312 0
vt 0.96875 0.109375 0
vt 0.882812 0.109375 0
vt 0.882812 0.015625 0
vt 0.96875 0.015625 0
vt 0.421875 0.78125 0
vt 0.367188 0.804688 0
vt 0.414062 0.804688 0
vt 0.421875 0.773438 0
vt 0.359375 0.773438 0
vt 0.429688 0.71875 0
vt 0.53125 0.84375 0
vt 0.351562 0.71875 0
vt 0.3125 0.820312 0
vt 0.429688 0.625 0
vt 0.609375 0.820312 0
vt 0.65625 0.757812 0
vt 0.351562 0.625 0
vt 0.273438 0.84375 0
vt 0.429688 0.492188 0
vt 0.351562 0.492188 0
vt 0.164062 0.828125 0
vt 0.117188 0.757812 0
vt 0.28125 0.828125 0
vt 0.28125 0.882812 0
vt 0.203125 0.851562 0
vt 0.101562 0.828125 0
vt 0.0703125 0.882812 0
vt 0.03125 0.773438 0
vt 0.117188 0.679688 0
vt 0.0234375 0.6875 0
vt 0.125 0.570312 0
vt 0.429688 0.421875 0
vt 0.351562 0.421875 0
vt 0.0390625 0.578125 0
vt 0.164062 0.476562 0
vt 0.0078125 0.59375 0
vt 0.101562 0.484375 0
vt 0.140625 0.414062 0
vt 0.195312 0.414062 0
vt 0.273438 0.414062 0
vt 0.195312 0.359375 0
vt 0.273438 0.359375 0
vt 0.609375 0.476562 0
vt 0.65625 0.570312 0
vt 0.664062 0.679688 0
vt 0.734375 0.59375 0
vt 0.679688 0.5 0
vt 0.75 0.695312 0
vt 0.765625 0.59375 0
vt 0.78125 0.71875 0
vt 0.742188 0.78125 0
vt 0.679688 0.84375 0
vt 0.578125 0.867188 0
vt 0.5 0.835938 0
vt 0.5 0.875 0
vt 0.46875 0.820312 0
vt 0.617188 0.414062 0
vt 0.617188 0.359375 0
vt 0.140625 0.359375 0
vt 0.960938 0.882812 0
vt 0.8125 0.882812 0
vt 0.8125 0.945312 0
vt 0.960938 0.945312 0
vt 0.960938 0.8125 0
vt 0.8125 0.8125 0
vt 0.960938 0.71875 0
vt 0.8125 0.71875 0
vt 0.960938 0.601562 0
vt 0.8125 0.601562 0
vt 0.960938 0.492188 0
vt 0.8125 0.5 0
vt 0.960938 0.414062 0
vt 0.8125 0.414062 0
vt 0.960938 0.34375 0
vt 0.8125 0.34375 0
vt 0.5 0.84375 0
vt 0.359375 0.304688 0
vt 0.429688 0.304688 0
vt 0.421875 0.0078125 0
vt 0.351562 0.015625 0
vt 0.273438 0.304688 0
vt 0.515625 0.296875 0
vt 0.507812 0.015625 0
vt 0.601562 0.242188 0
vt 0.59375 0.0703125 0
vt 0.632812 0.195312 0
vt 0.632812 0.132812 0
vt 0.257812 0.0390625 0
vt 0.1875 0.265625 0
vt 0.171875 0.078125 0
vt 0.132812 0.140625 0
vt 0.132812 0.203125 0

# 94 vertex normals
vn 0.681718 -0.716567 0.147621
vn 0.681718 -0.716567 -0.147621
vn 0.951056 -0.262866 -0.16246
vn 0.951056 -0.262866 0.16246
vn 0.809017 -0.5 -0.309017
vn 0.850651 -0.525731 0
vn 0.864188 -0.238856 0.442863
vn 0.587785 -0.688191 0.425325
vn 0.688191 -0.425325 0.587785
vn 1 0 0
vn 0.587785 -0.688191 -0.425325
vn 0.951056 0.262866 0.16246
vn 0.951056 0.262866 -0.16246
vn 0.5 -0.309017 0.809017
vn 0.309017 -0.809017 0.5
vn 0.850651 0 0.525731
vn 0.525731 0 0.850651
vn 0.147621 -0.681718 0.716567
vn 0 -0.295242 0.955423
vn 0.238856 -0.442863 0.864188
vn 0.425325 0.587785 0.688191
vn 0 0 1
vn 0.681718 0.716567 -0.147621
vn 0.525731 0.850651 0
vn 0.442863 0.864188 0.238856
vn 0.238856 0.442863 0.864188
vn 0.16246 0.951056 -0.262866
vn 0.295242 0.955423 0
vn 0.309017 0.809017 0.5
vn -0.16246 0.951056 -0.262866
vn 0.309017 0.809017 -0.5
vn 0.16246 0.951056 0.262866
vn 0.442863 0.864188 -0.238856
vn 0.809017 0.5 0.309017
vn 0.864188 0.238856 -0.442863
vn 0.955423 0 -0.295242
vn 0.425325 0.587785 -0.688191
vn 0.525731 0 -0.850651
vn 0.238856 0.442863 -0.864188
vn 0 0 -1
vn 0.5 -0.309017 -0.809017
vn 0.238856 -0.442863 -0.864188
vn 0.425325 -0.587785 -0.688191
vn 0.147621 -0.681718 -0.716567
vn 0.716567 -0.147621 -0.681718
vn 0.309017 -0.809017 -0.5
vn 0 -0.295242 -0.955423
vn 0 0.850651 0.525731
vn -0.309017 0.809017 -0.5
vn 0.955423 0 0.295242
vn 0.809017 0.5 -0.309017
vn -0.147621 0.681718 -0.716567
vn -0.688191 0.425325 0.587785
vn -0.951056 0.262866 -0.16246
vn -0.809017 0.5 0.309017
vn -0.955423 0 -0.295242
vn -0.850651 0 -0.525731
vn -0.955423 0 0.295242
vn -0.442863 0.864188 0.238856
vn -0.525731 0 0.850651
vn -0.16246 0.951056 0.262866
vn -0.442863 0.864188 -0.238856
vn -0.681718 0.716567 0.147621
vn -0.681718 0.716567 -0.147621
vn 0 0.850651 -0.525731
vn -0.951056 0.262866 0.16246
vn -0.525731 0.850651 0
vn -1 0 0
vn -0.295242 0.955423 0
vn -0.425325 0.587785 0.688191
vn -0.850651 0 0.525731
vn -0.864188 -0.238856 0.442863
vn -0.850651 -0.525731 0
vn -0.238856 -0.442863 0.864188
vn -0.587785 -0.688191 0.425325
vn -0.238856 0.442863 0.864188
vn -0.425325 -0.587785 0.688191
vn -0.147621 -0.681718 0.716567
vn -0.688191 -0.425325 0.587785
vn -0.809017 -0.5 0.309017
vn -0.309017 -0.809017 0.5
vn -0.681718 -0.716567 0.147621
vn -0.951056 -0.262866 0.16246
vn -0.809017 -0.5 -0.309017
vn -0.681718 -0.716567 -0.147621
vn -0.587785 -0.688191 -0.425325
vn -0.688191 -0.425325 -0.587785
vn -0.5 -0.309017 -0.809017
vn -0.425325 -0.587785 -0.688191
vn -0.525731 0 -0.850651
vn -0.147621 -0.681718 -0.716567
vn -0.425325 0.587785 -0.688191
vn -0.238856 0.442863 -0.864188
vn -0.238856 -0.442863 -0.864188

# Mesh '' with 320 faces
usemtl $Material_0
f  1/1/1 2/2/2 3/3/3
f  3/3/3 4/4/4 1/1/1
f  5/5/1 1/1/1 4/4/4
f  2/2/2 6/6/2 7/7/5
f  7/7/5 3/3/3 2/2/2
f  4/4/4 3/3/3 8/8/6
f  3/3/3 7/7/5 8/8/6
f  8/8/6 9/9/6 4/4/4
f  4/4/4 10/10/7 5/5/1
f  9/9/6 10/10/7 4/4/4
f  11/11/8 5/5/1 10/10/7
f  10/10/7 12/12/9 11/11/8
f  12/12/9 10/10/7 9/9/6
f  9/9/6 8/8/6 13/13/4
f  13/13/4 14/14/10 9/9/6
f  15/15/8 9/9/6 14/14/10
f  9/9/6 15/15/8 12/12/9
f  8/8/6 7/7/5 16/16/11
f  16/16/11 13/13/4 8/8/6
f  14/14/10 13/13/4 17/17/12
f  13/13/4 16/16/11 18/18/3
f  18/18/3 17/17/12 13/13/4
f  17/17/12 19/19/13 14/14/10
f  20/20/4 14/14/10 19/19/13
f  20/20/4 15/15/8 14/14/10
f  21/21/14 15/15/8 20/20/4
f  21/21/14 22/22/15 15/15/8
f  22/22/15 12/12/9 15/15/8
f  19/19/13 23/23/16 20/20/4
f  21/21/14 20/20/4 23/23/16
f  23/23/16 24/24/17 21/21/14
f  25/25/18 22/22/15 21/21/14
f  21/21/14 26/26/19 25/25/18
f  26/26/19 21/21/14 24/24/17
f  27/27/20 12/12/9 22/22/15
f  22/22/15 25/25/18 27/27/20
f  28/28/20 11/11/8 12/12/9
f  12/12/9 27/27/20 28/28/20
f  24/24/17 23/23/16 29/29/12
f  29/29/12 30/30/21 24/24/17
f  24/24/17 31/31/22 26/26/19
f  31/31/22 24/24/17 30/30/21
f  29/29/12 32/32/23 33/33/24
f  29/29/12 23/23/16 19/19/13
f  19/19/13 32/32/23 29/29/12
f  30/30/21 29/29/12 33/33/24
f  33/33/24 34/34/25 30/30/21
f  35/35/26 30/30/21 34/34/25
f  33/33/24 36/36/27 37/37/28
f  37/37/28 34/34/25 33/33/24
f  34/34/25 37/37/28 38/38/28
f  38/38/28 39/39/29 34/34/25
f  35/35/26 34/34/25 39/39/29
f  37/37/28 40/40/30 41/41/31
f  41/41/31 38/38/28 37/37/28
f  41/41/31 40/40/30 42/42/27
f  42/42/27 43/43/23 41/41/31
f  42/42/27 44/44/32 45/45/33
f  45/45/33 43/43/23 42/42/27
f  46/46/34 32/32/23 19/19/13
f  32/32/23 46/46/34 47/47/29
f  47/47/29 48/48/27 32/32/23
f  36/36/27 32/32/23 48/48/27
f  33/33/24 32/32/23 36/36/27
f  19/19/13 17/17/12 46/46/34
f  17/17/12 49/49/35 50/50/24
f  46/46/34 17/17/12 50/50/24
f  17/17/12 18/18/3 51/51/36
f  51/51/36 49/49/35 17/17/12
f  50/50/24 49/49/35 52/52/37
f  49/49/35 51/51/36 53/53/38
f  53/53/38 52/52/37 49/49/35
f  54/54/29 50/50/24 55/55/28
f  55/55/28 50/50/24 56/56/33
f  52/52/37 56/56/33 50/50/24
f  56/56/33 52/52/37 57/57/39
f  57/57/39 52/52/37 53/53/38
f  55/55/28 56/56/33 58/58/33
f  57/57/39 58/58/33 56/56/33
f  58/58/33 59/59/28 55/55/28
f  53/53/38 60/60/40 57/57/39
f  60/60/40 53/53/38 61/61/41
f  61/61/41 53/53/38 51/51/36
f  61/61/41 62/62/42 60/60/40
f  62/62/42 61/61/41 63/63/43
f  51/51/36 18/18/3 61/61/41
f  16/16/11 63/63/43 61/61/41
f  61/61/41 18/18/3 16/16/11
f  63/63/43 64/64/44 62/62/42
f  65/65/42 64/64/44 63/63/43
f  66/66/45 65/65/42 63/63/43
f  7/7/5 66/66/45 63/63/43
f  63/63/43 16/16/11 7/7/5
f  66/66/45 7/7/5 6/6/2
f  65/65/42 66/66/45 67/67/46
f  6/6/2 67/67/46 66/66/45
f  67/67/46 68/68/47 65/65/42
f  47/47/29 46/46/34 54/54/29
f  46/46/34 50/50/24 54/54/29
f  47/47/29 54/54/29 69/69/48
f  70/70/49 36/36/27 48/48/27
f  30/30/21 35/35/26 31/31/22
f  43/71/23 45/72/33 71/73/36
f  71/73/36 72/74/50 43/71/23
f  72/74/50 71/73/36 73/75/35
f  71/73/36 74/76/38 75/77/51
f  75/77/51 73/75/35 71/73/36
f  73/75/35 76/78/12 72/74/50
f  77/79/16 72/74/50 76/78/12
f  76/78/12 73/75/35 78/80/35
f  76/78/12 79/81/21 77/79/16
f  78/80/35 80/82/21 76/78/12
f  80/83/21 78/84/35 81/85/52
f  81/85/52 82/86/53 80/83/21
f  73/87/35 83/88/54 81/89/52
f  81/89/52 78/90/35 73/87/35
f  73/84/35 75/91/51 84/92/52
f  84/92/52 83/85/54 73/84/35
f  79/93/21 76/83/12 85/86/53
f  85/86/53 86/94/55 79/93/21
f  85/88/53 76/87/12 80/90/21
f  80/90/21 82/89/53 85/88/53
f  83/75/54 85/78/53 82/82/53
f  82/82/53 81/80/52 83/75/54
f  85/78/53 83/75/54 87/73/56
f  88/76/57 87/73/56 83/75/54
f  83/75/54 84/77/52 88/76/57
f  87/73/56 89/74/58 85/78/53
f  86/81/55 85/78/53 89/74/58
f  89/74/58 87/73/56 90/72/59
f  89/74/58 91/79/60 86/81/55
f  90/72/59 92/71/59 89/74/58
f  74/95/38 88/96/57 84/88/52
f  84/88/52 75/87/51 74/95/38
f  91/96/60 77/95/16 79/87/21
f  79/87/21 86/88/55 91/96/60
f  92/97/59 43/98/23 72/95/50
f  72/95/50 89/96/58 92/97/59
f  45/98/33 90/97/59 87/96/56
f  87/96/56 71/95/36 45/98/33
f  93/99/61 94/42/30 92/100/59
f  92/100/59 90/101/59 93/99/61
f  94/42/30 93/99/61 95/102/61
f  95/102/61 96/103/62 94/42/30
f  96/103/62 95/102/61 97/104/63
f  97/104/63 95/102/61 98/105/61
f  97/104/63 99/106/64 96/103/62
f  100/107/65 96/103/62 99/106/64
f  99/106/64 97/104/63 101/108/66
f  102/109/67 97/104/63 98/105/61
f  103/110/54 101/108/66 97/104/63
f  103/110/54 97/104/63 102/109/67
f  101/108/66 104/111/54 99/106/64
f  105/112/62 99/106/64 104/111/54
f  106/113/68 107/114/68 104/111/54
f  104/111/54 101/108/66 106/113/68
f  104/111/54 108/115/67 105/112/62
f  104/111/54 109/116/55 108/115/67
f  109/116/55 104/111/54 107/114/68
f  99/106/64 105/112/62 100/107/65
f  96/103/62 100/107/65 94/42/30
f  92/100/59 94/42/30 110/117/30
f  110/117/30 111/118/49 92/100/59
f  111/118/49 110/117/30 112/119/69
f  112/119/69 113/38/69 111/118/49
f  105/112/62 108/115/67 112/119/69
f  113/38/69 112/119/69 114/120/59
f  108/115/67 114/120/59 112/119/69
f  114/120/59 115/121/61 113/38/69
f  109/116/55 116/122/70 114/120/59
f  115/121/61 114/120/59 116/122/70
f  109/116/55 114/120/59 108/115/67
f  116/122/70 109/116/55 117/123/71
f  107/114/68 117/123/71 109/116/55
f  117/123/71 118/124/60 116/122/70
f  118/124/60 117/123/71 119/125/72
f  107/114/68 119/125/72 117/123/71
f  120/126/73 121/127/73 107/114/68
f  107/114/68 106/113/68 120/126/73
f  119/125/72 107/114/68 121/127/73
f  119/125/72 122/128/74 118/124/60
f  122/128/74 119/125/72 123/129/75
f  121/127/73 123/129/75 119/125/72
f  118/124/60 124/31/22 125/35/76
f  125/35/76 116/122/70 118/124/60
f  122/128/74 126/130/74 124/31/22
f  124/31/22 118/124/60 122/128/74
f  127/131/77 128/25/78 126/130/74
f  126/130/74 122/128/74 127/131/77
f  127/131/77 129/132/74 128/25/78
f  123/129/75 127/131/77 122/128/74
f  130/133/79 129/132/74 127/131/77
f  127/131/77 123/129/75 130/133/79
f  130/133/79 123/129/75 131/134/80
f  131/134/80 123/129/75 121/127/73
f  129/132/74 130/133/79 132/135/81
f  133/136/82 132/135/81 130/133/79
f  130/133/79 131/134/80 133/136/82
f  134/1/82 133/136/82 131/134/80
f  131/134/80 135/4/83 134/1/82
f  121/127/73 135/4/83 131/134/80
f  136/3/73 135/4/83 121/127/73
f  121/127/73 120/126/73 136/3/73
f  137/2/82 134/1/82 135/4/83
f  135/4/83 136/3/73 137/2/82
f  138/7/84 136/3/73 120/126/73
f  139/6/85 137/2/82 136/3/73
f  136/3/73 138/7/84 139/6/85
f  140/137/86 120/126/73 106/113/68
f  120/126/73 140/137/86 138/7/84
f  141/67/87 139/6/85 138/7/84
f  138/7/84 142/66/88 141/67/87
f  142/66/88 138/7/84 140/137/86
f  106/113/68 143/138/84 140/137/86
f  143/138/84 106/113/68 101/108/66
f  101/108/66 144/139/57 143/138/84
f  145/140/88 143/138/84 144/139/57
f  143/138/84 145/140/88 146/141/89
f  144/139/57 101/108/66 103/110/54
f  147/142/90 144/139/57 103/110/54
f  144/139/57 147/142/90 145/140/88
f  148/143/47 145/140/88 147/142/90
f  149/64/91 146/141/89 145/140/88
f  147/142/90 150/144/40 148/143/47
f  145/140/88 148/143/47 149/64/91
f  103/110/54 151/145/92 147/142/90
f  150/144/40 147/142/90 151/145/92
f  151/145/92 103/110/54 102/109/67
f  102/109/67 152/146/62 151/145/92
f  153/57/93 151/145/92 152/146/62
f  152/146/62 102/109/67 98/105/61
f  98/105/61 154/147/69 152/146/62
f  155/58/49 152/146/62 154/147/69
f  152/146/62 155/58/49 153/57/93
f  154/147/69 156/59/69 155/58/49
f  157/148/61 158/149/61 156/59/69
f  156/59/69 154/147/69 157/148/61
f  157/148/61 93/99/61 90/101/59
f  90/101/59 158/149/61 157/148/61
f  154/147/69 98/105/61 157/148/61
f  159/150/48 157/148/61 98/105/61
f  159/150/48 95/102/61 93/99/61
f  98/105/61 95/102/61 159/150/48
f  151/145/92 153/57/93 150/144/40
f  160/151/94 146/141/89 149/64/91
f  146/141/89 160/151/94 142/66/88
f  146/141/89 140/137/86 143/138/84
f  142/66/88 140/137/86 146/141/89
f  161/152/89 141/67/87 142/66/88
f  142/66/88 160/151/94 161/152/89
f  132/135/81 162/153/74 129/132/74
f  116/122/70 125/35/76 115/121/61
f  48/48/27 47/47/29 44/44/32
f  44/44/32 42/42/27 48/48/27
f  40/40/30 70/70/49 42/42/27
f  37/37/28 36/36/27 40/40/30
f  40/40/30 36/36/27 70/70/49
f  48/48/27 42/42/27 70/70/49
f  58/154/33 155/155/49 156/156/69
f  156/156/69 59/157/28 58/154/33
f  155/155/49 58/154/33 57/158/39
f  57/158/39 153/159/93 155/155/49
f  153/159/93 57/158/39 60/160/40
f  60/160/40 150/161/40 153/159/93
f  150/161/40 60/160/40 62/162/42
f  62/162/42 148/163/47 150/161/40
f  148/163/47 62/162/42 64/164/44
f  64/164/44 149/165/91 148/163/47
f  149/165/91 64/164/44 65/166/42
f  65/166/42 160/167/94 149/165/91
f  160/167/94 65/166/42 68/168/47
f  68/168/47 161/169/89 160/167/94
f  59/157/28 156/156/69 158/155/61
f  158/155/61 163/154/29 59/157/28
f  163/154/29 158/155/61 90/159/59
f  90/159/59 45/158/33 163/154/29
f  157/148/61 159/150/48 93/99/61
f  162/169/74 28/168/20 27/166/20
f  27/166/20 129/167/74 162/169/74
f  129/167/74 27/166/20 25/164/18
f  25/164/18 128/165/78 129/167/74
f  128/165/78 25/164/18 26/162/19
f  26/162/19 126/163/74 128/165/78
f  126/163/74 26/162/19 31/160/22
f  31/160/22 124/161/22 126/163/74
f  124/161/22 31/160/22 35/158/26
f  35/158/26 125/159/76 124/161/22
f  125/159/76 35/158/26 39/154/29
f  39/154/29 115/155/61 125/159/76
f  115/155/61 39/154/29 38/157/28
f  38/157/28 113/156/69 115/155/61
f  44/44/32 164/170/32 163/149/29
f  163/149/29 45/45/33 44/44/32
f  164/170/32 55/55/28 59/59/28
f  59/59/28 163/149/29 164/170/32
f  44/44/32 69/69/48 164/170/32
f  47/47/29 69/69/48 44/44/32
f  69/69/48 54/54/29 164/170/32
f  54/54/29 55/55/28 164/170/32
f  111/155/49 41/154/31 43/158/23
f  43/158/23 92/159/59 111/155/49
f  41/154/31 111/155/49 113/156/69
f  113/156/69 38/157/28 41/154/31
f  94/42/30 100/107/65 110/117/30
f  105/112/62 110/117/30 100/107/65
f  112/119/69 110/117/30 105/112/62
f  134/171/82 137/172/82 2/173/2
f  2/173/2 1/174/1 134/171/82
f  133/175/82 134/171/82 1/174/1
f  137/172/82 139/176/85 6/177/2
f  6/177/2 2/173/2 137/172/82
f  139/176/85 141/178/87 67/179/46
f  67/179/46 6/177/2 139/176/85
f  141/178/87 161/180/89 67/179/46
f  67/179/46 161/180/89 68/181/47
f  1/174/1 5/182/1 133/175/82
f  132/183/81 133/175/82 5/182/1
f  5/182/1 11/184/8 132/183/81
f  132/183/81 11/184/8 28/185/20
f  28/185/20 162/186/74 132/183/81

