# File produced by Open Asset Import Library (http://www.assimp.sf.net)
# (assimp v3.1.187496374)

mtllib ewell.obj.mtl

# 82 vertex positions
v  0.0406828 -0.019574 -0.035593
v  9.75388 -0.019574 -0.035593
v  9.27223 -0.019574 4.0584
v  6.70345 -0.019574 7.34964
v  3.57275 -0.019574 9.75787
v  0.0406828 -0.019574 10.2395
v  -4.29413 -0.019574 9.75787
v  -7.66565 -0.019574 7.1891
v  -9.99361 -0.019574 4.0584
v  -10.7161 -0.019574 -0.035593
v  -9.99361 -0.019574 -3.88876
v  -7.66565 -0.019574 -7.34056
v  -4.29413 -0.019574 -9.58824
v  0.0406828 -0.019574 -10.2304
v  3.57275 -0.019574 -9.58824
v  6.70345 -0.019574 -7.34056
v  9.27223 -0.019574 -3.88876
v  -9.99361 8.2741 -3.88876
v  -7.66565 8.2741 -7.34056
v  -10.7161 8.2741 -0.035593
v  -9.99361 8.2741 4.0584
v  -7.66565 8.2741 7.1891
v  -4.29413 8.2741 9.75787
v  0.0406828 8.2741 10.2395
v  -4.29413 8.2741 -9.58824
v  0.0406828 8.2741 -10.2304
v  3.57275 8.2741 -9.58824
v  6.70345 8.2741 -7.34056
v  9.27223 8.2741 -3.88876
v  9.75388 8.2741 -0.035593
v  9.27223 8.2741 4.0584
v  6.70345 8.2741 7.34964
v  3.57275 8.2741 9.75787
v  7.98784 8.71963 -3.40711
v  8.38921 8.71963 -0.035593
v  5.74016 8.71963 -6.37726
v  7.10482 8.2741 -2.92547
v  7.5062 8.2741 0.0446815
v  7.98784 8.71963 3.57675
v  7.10482 8.2741 3.09511
v  5.74016 8.71963 6.38635
v  5.17824 8.2741 5.58361
v  3.01083 8.71963 8.47348
v  2.85028 8.2741 7.42992
v  -0.0395908 8.71963 8.95513
v  0.120957 8.2741 7.83129
v  -3.81248 8.71963 8.47348
v  -3.17029 8.2741 7.42992
v  -6.70236 8.71963 6.30608
v  -5.65879 8.2741 5.50333
v  -8.78949 8.71963 3.57675
v  -7.42483 8.2741 3.09511
v  -9.43169 8.71963 -0.035593
v  -7.98675 8.2741 0.0446815
v  -8.78949 8.71963 -3.40711
v  -7.42483 8.2741 -2.92547
v  -6.70236 8.71963 -6.37726
v  -5.65879 8.2741 -5.49425
v  -3.81248 8.71963 -8.30385
v  -3.17029 8.2741 -7.26028
v  -0.0395908 8.71963 -8.86577
v  0.120957 8.2741 -7.74193
v  3.01083 8.71963 -8.30385
v  2.85028 8.2741 -7.26028
v  5.17824 8.2741 -5.49425
v  -5.65879 1.48837 -5.49425
v  -7.42483 1.48837 -2.92547
v  -3.17029 1.48837 -7.26028
v  0.120957 1.48837 -7.74193
v  -7.98675 1.48837 0.0446815
v  -7.42483 1.48837 3.09511
v  -5.65879 1.48837 5.50333
v  -3.17029 1.48837 7.42992
v  0.120957 1.48837 7.83129
v  0.120957 1.48837 -0.035593
v  2.85028 1.48837 7.42992
v  5.17824 1.48837 5.58361
v  7.10482 1.48837 3.09511
v  7.5062 1.48837 0.0446815
v  7.10482 1.48837 -2.92547
v  5.17824 1.48837 -5.49425
v  2.85028 1.48837 -7.26028

# 100 UV coordinates
vt 0.218333 0.345 0
vt 0.218333 0.508333 0
vt 0.288333 0.5 0
vt 0.343333 0.458333 0
vt 0.386667 0.403333 0
vt 0.393333 0.345 0
vt 0.386667 0.266667 0
vt 0.343333 0.211667 0
vt 0.288333 0.168333 0
vt 0.218333 0.156667 0
vt 0.151667 0.168333 0
vt 0.0933333 0.211667 0
vt 0.0533333 0.266667 0
vt 0.0416667 0.345 0
vt 0.0533333 0.403333 0
vt 0.0933333 0.458333 0
vt 0.151667 0.5 0
vt 0.723333 0.61 0
vt 0.723333 0.961667 0
vt 0.765 0.961667 0
vt 0.765 0.61 0
vt 0.671667 0.61 0
vt 0.671667 0.961667 0
vt 0.621667 0.61 0
vt 0.621667 0.961667 0
vt 0.578333 0.61 0
vt 0.578333 0.961667 0
vt 0.536667 0.61 0
vt 0.536667 0.961667 0
vt 0.495 0.61 0
vt 0.495 0.961667 0
vt 0.808333 0.961667 0
vt 0.808333 0.61 0
vt 0.846667 0.961667 0
vt 0.846667 0.61 0
vt 0.62 0.168333 0
vt 0.631667 0.188333 0
vt 0.686667 0.185 0
vt 0.686667 0.161667 0
vt 0.561667 0.211667 0
vt 0.576667 0.226667 0
vt 0.64 0.203333 0
vt 0.686667 0.2 0
vt 0.75 0.188333 0
vt 0.741667 0.203333 0
vt 0.756667 0.168333 0
vt 0.8 0.226667 0
vt 0.785 0.238333 0
vt 0.815 0.211667 0
vt 0.835 0.275 0
vt 0.815 0.278333 0
vt 0.855 0.266667 0
vt 0.843333 0.328333 0
vt 0.823333 0.325 0
vt 0.861667 0.325 0
vt 0.835 0.391667 0
vt 0.815 0.38 0
vt 0.855 0.403333 0
vt 0.796667 0.441667 0
vt 0.785 0.426667 0
vt 0.811667 0.458333 0
vt 0.75 0.476667 0
vt 0.741667 0.453333 0
vt 0.756667 0.5 0
vt 0.686667 0.488333 0
vt 0.686667 0.465 0
vt 0.686667 0.513333 0
vt 0.631667 0.476667 0
vt 0.64 0.453333 0
vt 0.62 0.5 0
vt 0.576667 0.441667 0
vt 0.593333 0.426667 0
vt 0.561667 0.458333 0
vt 0.546667 0.391667 0
vt 0.565 0.38 0
vt 0.523333 0.403333 0
vt 0.535 0.328333 0
vt 0.553333 0.325 0
vt 0.511667 0.325 0
vt 0.546667 0.275 0
vt 0.565 0.278333 0
vt 0.523333 0.266667 0
vt 0.593333 0.238333 0
vt 0.085 0.911667 0
vt 0.143333 0.95 0
vt 0.21 0.778333 0
vt 0.0466667 0.851667 0
vt 0.21 0.961667 0
vt 0.28 0.95 0
vt 0.335 0.911667 0
vt 0.378333 0.851667 0
vt 0.39 0.778333 0
vt 0.378333 0.72 0
vt 0.338333 0.665 0
vt 0.28 0.621667 0
vt 0.21 0.61 0
vt 0.143333 0.621667 0
vt 0.085 0.665 0
vt 0.0466667 0.72 0
vt 0.0383333 0.778333 0

# 40 vertex normals
vn 0 -1 0
vn 0.850651 -0.525731 0
vn 0.809017 -0.5 0.309017
vn 0.425325 -0.587785 0.688191
vn 0.238856 -0.442863 0.864188
vn 0 -0.525731 0.850651
vn -0.425325 -0.587785 0.688191
vn -0.688191 -0.425325 0.587785
vn -0.809017 -0.5 0.309017
vn -0.850651 -0.525731 0
vn -0.809017 -0.5 -0.309017
vn -0.425325 -0.587785 -0.688191
vn -0.238856 -0.442863 -0.864188
vn 0 -0.525731 -0.850651
vn 0.425325 -0.587785 -0.688191
vn 0.688191 -0.425325 -0.587785
vn 0.809017 -0.5 -0.309017
vn -0.809017 0.5 -0.309017
vn -0.587785 0.688191 -0.425325
vn -0.850651 0.525731 0
vn -0.809017 0.5 0.309017
vn -0.425325 0.587785 0.688191
vn -0.147621 0.681718 0.716567
vn 0 0.525731 0.850651
vn -0.425325 0.587785 -0.688191
vn 0 0.525731 -0.850651
vn 0.425325 0.587785 -0.688191
vn 0.809017 0.5 -0.309017
vn 0.850651 0.525731 0
vn 0.809017 0.5 0.309017
vn 0.587785 0.688191 0.425325
vn 0.425325 0.587785 0.688191
vn 0 1 0
vn -0.688191 0.425325 -0.587785
vn 0.587785 0.688191 -0.425325
vn 0.147621 0.681718 0.716567
vn -0.688191 0.425325 0.587785
vn 0.688191 0.425325 0.587785
vn 0.238856 0.442863 -0.864188
vn -0.238856 0.442863 0.864188

# Mesh '' with 160 faces
usemtl $Material_0
f  1/1/1 2/2/2 3/3/3
f  3/3/3 4/4/4 1/1/1
f  1/1/1 4/4/4 5/5/5
f  5/5/5 6/6/6 1/1/1
f  1/1/1 6/6/6 7/7/7
f  7/7/7 8/8/8 1/1/1
f  1/1/1 8/8/8 9/9/9
f  9/9/9 10/10/10 1/1/1
f  1/1/1 10/10/10 11/11/11
f  11/11/11 12/12/12 1/1/1
f  1/1/1 12/12/12 13/13/13
f  13/13/13 14/14/14 1/1/1
f  1/1/1 14/14/14 15/15/15
f  15/15/15 16/16/16 1/1/1
f  1/1/1 16/16/16 17/17/17
f  17/17/17 2/2/2 1/1/1
f  11/18/11 18/19/18 19/20/19
f  19/20/19 12/21/12 11/18/11
f  18/19/18 11/18/11 10/22/10
f  10/22/10 20/23/20 18/19/18
f  20/23/20 10/22/10 9/24/9
f  9/24/9 21/25/21 20/23/20
f  21/25/21 9/24/9 8/26/8
f  8/26/8 22/27/22 21/25/21
f  22/27/22 8/26/8 7/28/7
f  7/28/7 23/29/23 22/27/22
f  23/29/23 7/28/7 6/30/6
f  6/30/6 24/31/24 23/29/23
f  12/21/12 19/20/19 25/32/25
f  25/32/25 13/33/13 12/21/12
f  13/33/13 25/32/25 26/34/26
f  26/34/26 14/35/14 13/33/13
f  14/30/14 26/31/26 27/29/27
f  27/29/27 15/28/15 14/30/14
f  15/28/15 27/29/27 28/27/27
f  28/27/27 16/26/16 15/28/15
f  16/26/16 28/27/27 29/25/28
f  29/25/28 17/24/17 16/26/16
f  17/24/17 29/25/28 30/23/29
f  30/23/29 2/22/2 17/24/17
f  2/22/2 30/23/29 31/19/30
f  31/19/30 3/18/3 2/22/2
f  3/18/3 31/19/30 32/20/31
f  32/20/31 4/21/4 3/18/3
f  4/21/4 32/20/31 33/32/32
f  33/32/32 5/33/5 4/21/4
f  5/33/5 33/32/32 24/34/24
f  24/34/24 6/35/6 5/33/5
f  29/36/28 34/37/33 35/38/33
f  35/38/33 30/39/29 29/36/28
f  34/37/33 29/36/28 28/40/27
f  28/40/27 36/41/33 34/37/33
f  37/42/21 34/37/33 36/41/33
f  34/37/33 37/42/21 38/43/20
f  38/43/20 35/38/33 34/37/33
f  30/39/29 35/38/33 39/44/33
f  35/38/33 38/43/20 40/45/18
f  40/45/18 39/44/33 35/38/33
f  39/44/33 31/46/30 30/39/29
f  31/46/30 39/44/33 41/47/33
f  39/44/33 40/45/18 42/48/34
f  42/48/34 41/47/33 39/44/33
f  32/49/31 31/46/30 41/47/33
f  32/49/31 41/47/33 43/50/33
f  41/47/33 42/48/34 44/51/25
f  44/51/25 43/50/33 41/47/33
f  43/50/33 33/52/32 32/49/31
f  33/52/32 43/50/33 45/53/33
f  43/50/33 44/51/25 46/54/26
f  46/54/26 45/53/33 43/50/33
f  45/53/33 24/55/24 33/52/32
f  24/55/24 45/53/33 47/56/33
f  45/53/33 46/54/26 48/57/27
f  48/57/27 47/56/33 45/53/33
f  47/56/33 23/58/23 24/55/24
f  23/58/23 47/56/33 49/59/33
f  48/57/27 50/60/35 47/56/33
f  47/56/33 50/60/35 49/59/33
f  22/61/22 23/58/23 49/59/33
f  22/61/22 49/59/33 51/62/33
f  49/59/33 50/60/35 52/63/28
f  52/63/28 51/62/33 49/59/33
f  51/62/33 21/64/21 22/61/22
f  21/64/21 51/62/33 53/65/33
f  51/62/33 52/63/28 54/66/29
f  54/66/29 53/65/33 51/62/33
f  53/65/33 20/67/20 21/64/21
f  20/67/20 53/65/33 55/68/33
f  53/65/33 54/66/29 56/69/30
f  56/69/30 55/68/33 53/65/33
f  55/68/33 18/70/18 20/67/20
f  57/71/33 18/70/18 55/68/33
f  56/69/30 58/72/32 55/68/33
f  55/68/33 58/72/32 57/71/33
f  19/73/19 18/70/18 57/71/33
f  57/71/33 59/74/33 19/73/19
f  57/71/33 58/72/32 60/75/36
f  60/75/36 59/74/33 57/71/33
f  19/73/19 59/74/33 25/76/25
f  25/76/25 59/74/33 61/77/33
f  60/75/36 62/78/24 59/74/33
f  59/74/33 62/78/24 61/77/33
f  61/77/33 26/79/26 25/76/25
f  61/77/33 63/80/33 26/79/26
f  61/77/33 62/78/24 64/81/22
f  64/81/22 63/80/33 61/77/33
f  63/80/33 27/82/27 26/79/26
f  63/80/33 36/41/33 27/82/27
f  64/81/22 65/83/37 63/80/33
f  63/80/33 65/83/37 36/41/33
f  27/82/27 36/41/33 28/40/27
f  36/41/33 65/83/37 37/42/21
f  66/26/38 58/27/32 56/25/30
f  56/25/30 67/24/30 66/26/38
f  58/27/32 66/26/38 68/28/32
f  68/28/32 60/29/36 58/27/32
f  60/29/36 68/28/32 69/30/24
f  69/30/24 62/31/24 60/29/36
f  67/24/30 56/25/30 54/23/29
f  54/23/29 70/22/29 67/24/30
f  70/22/29 54/23/29 52/19/28
f  52/19/28 71/18/28 70/22/29
f  71/18/28 52/19/28 50/20/35
f  50/20/35 72/21/27 71/18/28
f  72/21/27 50/20/35 48/32/27
f  48/32/27 73/33/39 72/21/27
f  73/33/39 48/32/27 46/34/26
f  46/34/26 74/35/26 73/33/39
f  66/84/38 67/85/30 75/86/33
f  68/87/32 66/84/38 75/86/33
f  75/86/33 67/85/30 70/88/29
f  70/88/29 71/89/28 75/86/33
f  75/86/33 71/89/28 72/90/27
f  72/90/27 73/91/39 75/86/33
f  75/86/33 73/91/39 74/92/26
f  74/92/26 76/93/25 75/86/33
f  75/86/33 76/93/25 77/94/34
f  77/94/34 78/95/18 75/86/33
f  75/86/33 78/95/18 79/96/20
f  79/96/20 80/97/21 75/86/33
f  75/86/33 80/97/21 81/98/22
f  81/98/22 82/99/40 75/86/33
f  75/86/33 82/99/40 69/100/24
f  75/86/33 69/100/24 68/87/32
f  74/30/26 46/31/26 44/29/25
f  44/29/25 76/28/25 74/30/26
f  76/28/25 44/29/25 42/27/34
f  42/27/34 77/26/34 76/28/25
f  77/26/34 42/27/34 40/25/18
f  40/25/18 78/24/18 77/26/34
f  78/24/18 40/25/18 38/23/20
f  38/23/20 79/22/20 78/24/18
f  79/22/20 38/23/20 37/19/21
f  37/19/21 80/18/21 79/22/20
f  37/19/21 65/20/37 80/18/21
f  80/18/21 65/20/37 81/21/22
f  81/21/22 65/20/37 64/32/22
f  64/32/22 82/33/40 81/21/22
f  82/33/40 64/32/22 62/34/24
f  62/34/24 69/35/24 82/33/40

