# File produced by Open Asset Import Library (http://www.assimp.sf.net)
# (assimp v3.1.187496374)

mtllib food.obj.mtl

# 173 vertex positions
v  4.57292 -10.2016 13.6762
v  4.57292 -10.8565 6.41575
v  4.78676 -7.3508 6.16539
v  4.67984 -7.77456 13.1755
v  3.9314 -11.0491 15.5539
v  3.71756 -10.895 14.6776
v  4.35908 -9.58521 17.4316
v  6.92514 -9.00735 2.53516
v  6.81822 -6.61883 2.2848
v  4.89367 -5.38605 2.15962
v  6.49747 -11.627 2.78553
v  7.99433 -9.54669 -2.84758
v  7.56666 -6.42621 -3.09794
v  4.89367 -5.42458 -3.22312
v  7.13898 -12.9368 -2.59722
v  6.06979 -11.8967 -6.35262
v  6.17671 -9.81636 -6.60298
v  4.466 -12.8598 2.9107
v  4.35908 -14.4008 -2.47204
v  4.466 -12.9754 -6.35262
v  4.67984 -10.009 -8.60587
v  6.28363 -7.96719 -6.72817
v  4.78676 -7.42785 -6.97853
v  4.57292 -8.58358 17.0561
v  4.35908 -6.15654 14.6776
v  4.25216 -7.23522 17.682
v  4.25216 -5.69425 16.1798
v  2.43453 -10.2016 13.6762
v  2.43453 -10.8565 6.41575
v  2.75529 -10.7409 14.6776
v  2.86221 -10.895 15.5539
v  2.64837 -7.3508 6.16539
v  2.54145 -7.77456 13.1755
v  2.75529 -5.38605 2.15962
v  1.1515 -6.31064 2.2848
v  2.75529 -5.42458 -3.22312
v  0.830743 -8.9303 2.53516
v  0.509985 -6.00244 -3.22312
v  3.18297 -5.7713 16.1798
v  2.54145 -8.58358 17.0561
v  2.96913 -6.19506 14.6776
v  1.04458 -11.2803 2.66034
v  2.32761 -12.8213 2.78553
v  0.403066 -12.5516 -2.59722
v  2.22069 -14.3622 -2.47204
v  -0.131531 -9.39259 -2.84758
v  1.57918 -11.627 -6.47781
v  2.32761 -12.9754 -6.35262
v  1.57918 -9.77783 -6.60298
v  1.6861 -7.65899 -6.85335
v  2.54145 -10.009 -8.60587
v  2.64837 -7.38932 -6.97853
v  2.86221 -10.3172 16.8057
v  3.18297 -6.07949 17.3064
v  2.96913 -7.27375 17.682
v  3.9314 -10.4713 16.8057
v  2.64837 -9.62374 17.4316
v  4.14524 -6.00244 17.1812
v  10.3466 -10.3557 5.03877
v  13.0195 -10.3557 6.29057
v  14.5164 -10.3942 0.281922
v  11.5227 -10.3557 0.281922
v  10.2396 -10.3557 10.7971
v  8.20817 -10.3557 8.54381
v  8.20817 -13.8999 3.91214
v  9.17045 -13.8999 0.156742
v  13.0195 -10.3942 -5.226
v  10.3466 -10.3557 -4.09938
v  8.20817 -13.8999 -3.3483
v  -6.76053 -13.8999 -3.22312
v  -5.15674 -13.8999 -6.10226
v  6.49747 -13.8999 -6.10226
v  -3.01835 -13.8999 -7.85479
v  8.20817 -10.3557 -7.60443
v  10.2396 -10.3942 -9.73249
v  4.35908 -10.3557 -9.85767
v  3.39681 -13.8999 -7.85479
v  -0.131531 -13.8999 -8.98141
v  -3.76679 -10.3557 -9.73249
v  -6.43977 -10.3557 -7.47925
v  -4.83598 -10.3942 -12.3613
v  -8.25739 -10.3942 -9.60731
v  -8.47123 -10.3557 -3.9742
v  -0.131531 -10.3942 -14.239
v  -0.0246115 -10.3557 -11.1095
v  5.42827 -10.3942 -12.4865
v  -9.75426 -10.3557 0.407102
v  -7.82972 -13.8999 0.281922
v  -6.76053 -13.8999 3.78697
v  -10.9304 -10.3942 -5.10082
v  -12.5342 -10.3942 0.407102
v  -8.47123 -10.3557 4.91359
v  -6.43977 -10.3557 8.41863
v  -5.15674 -13.8999 6.54093
v  6.49747 -13.8999 6.66611
v  3.39681 -13.8999 8.41863
v  -10.9304 -10.3557 6.16539
v  -8.25739 -10.3557 10.5467
v  -3.76679 -10.3557 10.5467
v  -3.01835 -13.8999 8.29345
v  -0.131531 -13.8999 9.54525
v  -0.0246115 -10.3557 12.0489
v  4.35908 -10.3557 10.6719
v  -4.83598 -10.3557 13.4258
v  -0.131531 -10.3557 15.3035
v  5.42827 -10.3557 13.551
v  13.2334 -11.8582 6.29057
v  14.7302 -11.8582 0.281922
v  10.4535 -11.8582 10.7971
v  5.64211 -11.8196 13.551
v  -0.0246115 -11.8196 15.3035
v  -4.62214 -11.8196 13.4258
v  -8.04356 -11.8582 10.5467
v  -10.7165 -11.8582 6.16539
v  -12.3203 -11.8582 0.407102
v  -10.7165 -11.8582 -5.10082
v  -8.04356 -11.8582 -9.60731
v  -4.62214 -11.8582 -12.3613
v  -0.0246115 -11.8582 -14.239
v  5.64211 -11.8582 -12.4865
v  10.4535 -11.8582 -9.73249
v  13.2334 -11.8582 -5.226
v  11.6296 -12.7827 -4.85046
v  9.17045 -12.7827 -8.73105
v  12.9126 -12.7827 0.156742
v  11.7365 -15.2098 0.281922
v  10.5604 -15.2098 -4.09938
v  4.78676 -12.7827 -11.2346
v  -0.131531 -12.7827 -12.7368
v  8.31509 -15.2098 -7.60443
v  4.466 -15.2098 -9.85767
v  -4.30138 -12.7827 -11.1095
v  0.0823078 -15.2098 -11.2346
v  -3.65987 -15.1712 10.6719
v  -6.33285 -15.2098 8.41863
v  -3.65987 -15.2098 -9.73249
v  -8.36432 -15.2098 4.91359
v  -9.64735 -15.2098 0.407102
v  -7.29512 -12.7827 9.29489
v  -4.30138 -12.7827 11.7985
v  -9.64735 -12.7827 5.28913
v  -8.36432 -15.2098 -3.9742
v  -11.1442 -12.7827 0.281922
v  -0.131531 -12.7827 13.4258
v  4.78676 -12.7827 11.9237
v  0.0823078 -15.1712 12.0489
v  4.466 -15.1712 10.7971
v  9.17045 -12.7827 9.42007
v  8.31509 -15.2098 8.54381
v  10.5604 -15.2098 5.03877
v  11.6296 -12.7827 5.41431
v  -9.64735 -12.7827 -4.72528
v  -7.29512 -12.7827 -8.60587
v  -6.33285 -15.2098 -7.47925
v  -8.47123 -14.0155 2.15962
v  -6.43977 -12.2049 4.78841
v  -6.11901 -11.4344 3.16107
v  -5.79825 -14.0155 7.16683
v  -6.33285 -14.0155 -2.7224
v  -1.30764 -9.19997 4.91359
v  -6.11901 -11.2803 0.0315619
v  -5.69133 -10.2787 2.2848
v  -1.30764 -6.58031 3.28624
v  -1.30764 -8.81472 -1.59578
v  2.11377 -10.3942 2.2848
v  -1.30764 -10.8565 8.41863
v  2.43453 -11.5885 3.16107
v  4.03832 -14.0155 3.28624
v  2.96913 -14.0155 -1.97132
v  2.64837 -12.359 4.78841
v  -1.30764 -13.8614 8.79417
v  2.32761 -14.0155 6.91647
v  -1.30764 -14.0155 -4.22456

# 169 UV coordinates
vt 0.375 0.101562 0
vt 0.578125 0.109375 0
vt 0.578125 0.234375 0
vt 0.382812 0.226562 0
vt 0.328125 0.0703125 0
vt 0.351562 0.078125 0
vt 0.273438 0.109375 0
vt 0.679688 0.21875 0
vt 0.671875 0.289062 0
vt 0.679688 0.320312 0
vt 0.679688 0.109375 0
vt 0.820312 0.203125 0
vt 0.820312 0.304688 0
vt 0.835938 0.335938 0
vt 0.820312 0.0859375 0
vt 0.929688 0.125 0
vt 0.929688 0.195312 0
vt 0.679688 0.046875 0
vt 0.828125 0.0078125 0
vt 0.9375 0.078125 0
vt 0.992188 0.195312 0
vt 0.914062 0.265625 0
vt 0.9375 0.28125 0
vt 0.28125 0.148438 0
vt 0.335938 0.28125 0
vt 0.265625 0.195312 0
vt 0.289062 0.289062 0
vt 0.28125 0.101562 0
vt 0.273438 0.117188 0
vt 0.328125 0.273438 0
vt 0.25 0.625 0
vt 0.265625 0.578125 0
vt 0.171875 0.5625 0
vt 0.179688 0.617188 0
vt 0.328125 0.609375 0
vt 0.304688 0.648438 0
vt 0.242188 0.65625 0
vt 0.1875 0.648438 0
vt 0.101562 0.609375 0
vt 0.125 0.648438 0
vt 0.140625 0.671875 0
vt 0.171875 0.914062 0
vt 0.132812 0.898438 0
vt 0.101562 0.710938 0
vt 0.101562 0.867188 0
vt 0.078125 0.6875 0
vt 0.0390625 0.664062 0
vt 0.0546875 0.757812 0
vt 0.0859375 0.765625 0
vt 0.078125 0.820312 0
vt 0.078125 0.882812 0
vt 0.117188 0.921875 0
vt 0.0390625 0.90625 0
vt 0.0859375 0.953125 0
vt 0.171875 0.945312 0
vt 0.0078125 0.835938 0
vt 0.046875 0.828125 0
vt 0.015625 0.75 0
vt 0.234375 0.953125 0
vt 0.226562 0.921875 0
vt 0.273438 0.890625 0
vt 0.15625 0.984375 0
vt 0.242188 0.992188 0
vt 0.296875 0.921875 0
vt 0.335938 0.875 0
vt 0.3125 0.859375 0
vt 0.28125 0.679688 0
vt 0.3125 0.71875 0
vt 0.320312 0.953125 0
vt 0.375 0.898438 0
vt 0.359375 0.828125 0
vt 0.328125 0.820312 0
vt 0.335938 0.773438 0
vt 0.375 0.765625 0
vt 0.34375 0.703125 0
vt 0.40625 0.84375 0
vt 0.421875 0.757812 0
vt 0.382812 0.679688 0
vt 0.0546875 0.367188 0
vt 0 0.367188 0
vt 0 0.429688 0
vt 0.0546875 0.429688 0
vt 0.109375 0.367188 0
vt 0.109375 0.429688 0
vt 0.15625 0.367188 0
vt 0.15625 0.429688 0
vt 0.203125 0.429688 0
vt 0.203125 0.367188 0
vt 0.25 0.367188 0
vt 0.25 0.429688 0
vt 0.296875 0.367188 0
vt 0.296875 0.429688 0
vt 0.34375 0.367188 0
vt 0.34375 0.429688 0
vt 0.828125 0.835938 0
vt 0.8125 0.890625 0
vt 0.835938 0.90625 0
vt 0.859375 0.835938 0
vt 0.828125 0.773438 0
vt 0.8125 0.773438 0
vt 0.8125 0.828125 0
vt 0.78125 0.953125 0
vt 0.765625 0.9375 0
vt 0.710938 0.992188 0
vt 0.703125 0.976562 0
vt 0.796875 0.882812 0
vt 0.757812 0.921875 0
vt 0.640625 0.992188 0
vt 0.640625 0.976562 0
vt 0.703125 0.953125 0
vt 0.554688 0.710938 0
vt 0.53125 0.742188 0
vt 0.648438 0.953125 0
vt 0.515625 0.796875 0
vt 0.523438 0.851562 0
vt 0.515625 0.742188 0
vt 0.546875 0.703125 0
vt 0.5 0.796875 0
vt 0.554688 0.90625 0
vt 0.5 0.867188 0
vt 0.484375 0.789062 0
vt 0.5 0.734375 0
vt 0.53125 0.679688 0
vt 0.585938 0.648438 0
vt 0.59375 0.664062 0
vt 0.671875 0.640625 0
vt 0.664062 0.664062 0
vt 0.601562 0.679688 0
vt 0.671875 0.679688 0
vt 0.734375 0.679688 0
vt 0.75 0.65625 0
vt 0.726562 0.6875 0
vt 0.773438 0.71875 0
vt 0.789062 0.71875 0
vt 0.804688 0.703125 0
vt 0.851562 0.765625 0
vt 0.484375 0.867188 0
vt 0.546875 0.921875 0
vt 0.53125 0.929688 0
vt 0.59375 0.953125 0
vt 0.601562 0.9375 0
vt 0.585938 0.96875 0
vt 0.625 0.492188 0
vt 0.617188 0.445312 0
vt 0.585938 0.492188 0
vt 0.632812 0.367188 0
vt 0.53125 0.5625 0
vt 0.5 0.421875 0
vt 0.554688 0.554688 0
vt 0.5625 0.507812 0
vt 0.46875 0.5 0
vt 0.421875 0.554688 0
vt 0.390625 0.421875 0
vt 0.546875 0.335938 0
vt 0.398438 0.390625 0
vt 0.367188 0.335938 0
vt 0.34375 0.453125 0
vt 0.421875 0.34375 0
vt 0.554688 0.289062 0
vt 0.445312 0.28125 0
vt 0.40625 0.539062 0
vt 0.664062 0.445312 0
vt 0.671875 0.570312 0
vt 0.9375 0.570312 0
vt 0.96875 0.4375 0
vt 0.875 0.34375 0
vt 0.742188 0.351562 0
vt 0.757812 0.632812 0
vt 0.859375 0.640625 0

# 101 vertex normals
vn 0.681718 -0.716567 -0.147621
vn 0.587785 -0.688191 0.425325
vn 0.809017 0.5 0.309017
vn 0.850651 0.525731 0
vn 0.295242 -0.955423 0
vn 0.16246 -0.951056 -0.262866
vn 0.716567 -0.147621 0.681718
vn 0.955423 0 0.295242
vn 0.16246 0.951056 0.262866
vn 0.809017 -0.5 0.309017
vn 1 0 0
vn 0.809017 0.5 -0.309017
vn 0.16246 0.951056 -0.262866
vn 0.688191 -0.425325 -0.587785
vn 0.850651 0 -0.525731
vn 0.16246 -0.951056 0.262866
vn 0.309017 -0.809017 -0.5
vn 0.525731 0 -0.850651
vn 0.688191 0.425325 -0.587785
vn 0.147621 0.681718 -0.716567
vn 0.587785 0.688191 -0.425325
vn 0.850651 0 0.525731
vn 0.295242 0.955423 0
vn -0.850651 -0.525731 0
vn -0.587785 -0.688191 0.425325
vn -0.16246 -0.951056 -0.262866
vn -0.681718 -0.716567 0.147621
vn -0.587785 0.688191 0.425325
vn -0.809017 0.5 -0.309017
vn -0.16246 0.951056 0.262866
vn -0.809017 0.5 0.309017
vn -0.16246 0.951056 -0.262866
vn -0.955423 0 0.295242
vn -0.681718 0.716567 -0.147621
vn -0.681718 0.716567 0.147621
vn -0.850651 0 0.525731
vn -0.309017 0.809017 -0.5
vn -0.809017 -0.5 0.309017
vn -0.442863 -0.864188 0.238856
vn -0.295242 -0.955423 0
vn -0.955423 0 -0.295242
vn -0.864188 -0.238856 -0.442863
vn -0.587785 -0.688191 -0.425325
vn -0.850651 0 -0.525731
vn -0.688191 0.425325 -0.587785
vn -0.525731 0 -0.850651
vn -0.147621 0.681718 -0.716567
vn -0.262866 0.16246 0.951056
vn 0.147621 -0.681718 0.716567
vn -0.5 -0.309017 0.809017
vn 0.425325 0.587785 0.688191
vn -0.442863 0.864188 -0.238856
vn 0.587785 0.688191 0.425325
vn 0.525731 0.850651 0
vn -0.525731 0.850651 0
vn 0.309017 0.809017 0.5
vn 0.681718 0.716567 -0.147621
vn -0.442863 0.864188 0.238856
vn 0.442863 0.864188 0.238856
vn -0.309017 0.809017 0.5
vn 0.147621 0.681718 0.716567
vn -0.425325 0.587785 -0.688191
vn -0.587785 0.688191 -0.425325
vn 0 0.850651 0.525731
vn 0.309017 0.809017 -0.5
vn 0.442863 0.864188 -0.238856
vn 0 0.850651 -0.525731
vn -0.425325 0.587785 0.688191
vn 0 0.525731 0.850651
vn 0.850651 -0.525731 0
vn 0.688191 -0.425325 0.587785
vn 0.238856 -0.442863 0.864188
vn -0.147621 -0.681718 0.716567
vn -0.425325 -0.587785 0.688191
vn -0.688191 -0.425325 0.587785
vn -0.809017 -0.5 -0.309017
vn -0.688191 -0.425325 -0.587785
vn -0.425325 -0.587785 -0.688191
vn 0 -0.525731 -0.850651
vn 0.238856 -0.442863 -0.864188
vn 0.809017 -0.5 -0.309017
vn 0.587785 -0.688191 -0.425325
vn 0.681718 -0.716567 0.147621
vn 0.442863 -0.864188 -0.238856
vn 0.147621 -0.681718 -0.716567
vn -0.147621 -0.681718 -0.716567
vn 0 -0.850651 -0.525731
vn -0.309017 -0.809017 0.5
vn -0.309017 -0.809017 -0.5
vn -0.525731 -0.850651 0
vn -0.442863 -0.864188 -0.238856
vn -0.681718 -0.716567 -0.147621
vn 0 -0.850651 0.525731
vn 0.309017 -0.809017 0.5
vn 0.442863 -0.864188 0.238856
vn -0.951056 -0.262866 0.16246
vn -0.147621 0.681718 0.716567
vn 0.425325 0.587785 -0.688191
vn 0.688191 0.425325 0.587785
vn 0.716567 0.147621 0.681718
vn 0 0.295242 -0.955423

# Mesh '' with 334 faces
usemtl $Material_0
f  1/1/1 2/2/2 3/3/3
f  3/3/3 4/4/4 1/1/1
f  5/5/5 6/6/6 1/1/1
f  5/5/5 1/1/1 7/7/7
f  7/7/7 1/1/1 4/4/4
f  8/8/8 9/9/3 3/3/3
f  3/3/3 2/2/2 8/8/8
f  3/3/3 9/9/3 10/10/9
f  2/2/2 11/11/10 8/8/8
f  12/12/11 8/8/8 11/11/10
f  9/9/3 8/8/8 12/12/11
f  12/12/11 13/13/12 9/9/3
f  14/14/13 10/10/9 9/9/3
f  11/11/10 15/15/1 12/12/11
f  16/16/14 17/17/15 12/12/11
f  12/12/11 15/15/1 16/16/14
f  13/13/12 12/12/11 17/17/15
f  2/2/2 18/18/16 11/11/10
f  15/15/1 11/11/10 18/18/16
f  18/18/16 19/19/5 15/15/1
f  16/16/14 15/15/1 19/19/5
f  19/19/5 20/20/17 16/16/14
f  16/16/14 21/21/18 17/17/15
f  21/21/18 16/16/14 20/20/17
f  17/17/15 22/22/19 13/13/12
f  17/17/15 21/21/18 22/22/19
f  21/21/18 23/23/20 22/22/19
f  13/13/12 22/22/19 23/23/20
f  23/23/20 14/14/13 13/13/12
f  9/9/3 13/13/12 14/14/13
f  4/4/4 24/24/7 7/7/7
f  4/4/4 25/25/21 24/24/7
f  26/26/22 24/24/7 25/25/21
f  26/26/22 25/25/21 27/27/23
f  1/1/1 28/1/24 29/2/25
f  29/2/25 2/2/2 1/1/1
f  30/6/26 28/1/24 1/1/1
f  1/1/1 6/6/6 30/6/26
f  30/6/26 6/6/6 5/5/5
f  5/5/5 31/5/27 30/6/26
f  32/3/28 33/4/29 4/4/4
f  4/4/4 3/3/3 32/3/28
f  34/10/30 32/3/28 10/10/9
f  10/10/9 32/3/28 3/3/3
f  35/9/31 32/3/28 34/10/30
f  36/14/32 34/10/30 10/10/9
f  10/10/9 14/14/13 36/14/32
f  35/9/31 37/8/33 32/3/28
f  38/13/34 35/9/31 34/10/30
f  37/8/33 35/9/31 38/13/34
f  33/4/29 32/3/28 29/2/25
f  29/2/25 32/3/28 37/8/33
f  29/2/25 28/1/24 33/4/29
f  39/27/35 33/4/29 40/24/36
f  40/24/36 33/4/29 28/1/24
f  33/4/29 39/27/35 41/25/37
f  37/8/33 42/11/38 29/2/25
f  42/11/38 43/18/39 29/2/25
f  42/11/38 44/15/24 45/19/40
f  45/19/40 43/18/39 42/11/38
f  37/8/33 44/15/24 42/11/38
f  37/8/33 46/12/41 44/15/24
f  44/15/24 47/16/42 48/20/43
f  48/20/43 45/19/40 44/15/24
f  47/16/42 44/15/24 46/12/41
f  38/13/34 46/12/41 37/8/33
f  46/12/41 49/17/44 47/16/42
f  46/12/41 38/13/34 50/22/45
f  50/22/45 49/17/44 46/12/41
f  47/16/42 51/21/46 48/20/43
f  47/16/42 49/17/44 51/21/46
f  49/17/44 50/22/45 51/21/46
f  52/23/47 50/22/45 38/13/34
f  51/21/46 50/22/45 52/23/47
f  34/10/30 36/14/32 38/13/34
f  38/13/34 36/14/32 52/23/47
f  52/23/47 36/14/32 14/14/13
f  14/14/13 23/23/20 52/23/47
f  51/21/46 52/23/47 21/21/18
f  52/23/47 23/23/20 21/21/18
f  45/19/40 48/20/43 20/20/17
f  48/20/43 51/21/46 20/20/17
f  20/20/17 19/19/5 45/19/40
f  20/20/17 51/21/46 21/21/18
f  31/5/27 28/1/24 30/6/26
f  40/24/36 28/1/24 31/5/27
f  53/7/25 31/5/27 5/5/5
f  40/24/36 31/5/27 53/7/25
f  54/26/28 40/24/36 55/26/48
f  5/5/5 56/5/49 53/7/25
f  57/7/50 53/7/25 56/5/49
f  56/28/49 7/7/7 57/29/50
f  40/24/36 57/7/50 7/29/7
f  7/7/7 24/24/7 40/24/36
f  55/26/48 40/24/36 24/24/7
f  24/24/7 26/26/22 55/26/48
f  55/26/48 26/26/22 58/27/51
f  58/27/51 54/27/28 55/26/48
f  27/27/23 58/27/51 26/26/22
f  27/27/23 39/27/35 54/27/28
f  54/27/28 58/27/51 27/27/23
f  27/27/23 25/25/21 41/30/37
f  41/25/37 39/27/35 27/30/23
f  25/25/21 4/4/4 33/4/29
f  33/4/29 41/25/37 25/25/21
f  39/27/35 40/24/36 54/26/28
f  40/24/36 53/7/25 57/7/50
f  7/7/7 56/28/49 5/5/5
f  29/2/25 43/18/39 18/18/16
f  18/18/16 2/2/2 29/2/25
f  43/18/39 45/19/40 19/19/5
f  19/19/5 18/18/16 43/18/39
f  59/31/52 60/32/53 61/33/54
f  59/31/52 61/33/54 62/34/55
f  63/35/56 60/32/53 59/31/52
f  59/31/52 64/36/52 63/35/56
f  65/37/52 64/36/52 59/31/52
f  59/31/52 62/34/55 66/38/55
f  66/38/55 65/37/52 59/31/52
f  61/33/54 67/39/57 68/40/58
f  68/40/58 62/34/55 61/33/54
f  69/41/58 66/38/55 62/34/55
f  62/34/55 68/40/58 69/41/58
f  65/37/52 66/38/55 70/42/59
f  66/38/55 69/41/58 71/43/59
f  71/43/59 70/42/59 66/38/55
f  72/44/58 69/41/58 68/40/58
f  69/41/58 72/44/58 73/45/9
f  73/45/9 71/43/59 69/41/58
f  74/46/60 68/40/58 67/39/57
f  68/40/58 74/46/60 72/44/58
f  67/39/57 75/47/21 74/46/60
f  76/48/60 74/46/60 75/47/21
f  77/49/60 72/44/58 74/46/60
f  74/46/60 76/48/60 77/49/60
f  72/44/58 77/49/60 73/45/9
f  78/50/61 77/49/60 76/48/60
f  73/45/9 77/49/60 78/50/61
f  79/51/56 73/45/9 78/50/61
f  73/45/9 79/51/56 80/52/59
f  80/52/59 71/43/59 73/45/9
f  70/42/59 71/43/59 80/52/59
f  81/53/62 82/54/63 80/52/59
f  80/52/59 79/51/56 81/53/62
f  83/55/59 80/52/59 82/54/63
f  80/52/59 83/55/59 70/42/59
f  84/56/20 81/53/62 79/51/56
f  79/51/56 85/57/64 84/56/20
f  78/50/61 85/57/64 79/51/56
f  76/48/60 85/57/64 78/50/61
f  86/58/65 84/56/20 85/57/64
f  85/57/64 76/48/60 86/58/65
f  75/47/21 86/58/65 76/48/60
f  87/59/54 88/60/54 70/42/59
f  70/42/59 83/55/59 87/59/54
f  70/42/59 88/60/54 65/37/52
f  89/61/66 88/60/54 87/59/54
f  65/37/52 88/60/54 89/61/66
f  90/62/63 91/63/34 87/59/54
f  87/59/54 83/55/59 90/62/63
f  92/64/66 87/59/54 91/63/34
f  87/59/54 92/64/66 89/61/66
f  82/54/63 90/62/63 83/55/59
f  89/61/66 92/64/66 93/65/66
f  93/65/66 94/66/13 89/61/66
f  65/37/52 89/61/66 95/67/37
f  89/61/66 94/66/13 96/68/37
f  96/68/37 95/67/37 89/61/66
f  91/63/34 97/69/35 92/64/66
f  93/65/66 92/64/66 97/69/35
f  97/69/35 98/70/28 93/65/66
f  99/71/65 93/65/66 98/70/28
f  100/72/65 94/66/13 93/65/66
f  100/72/65 93/65/66 99/71/65
f  94/66/13 100/72/65 101/73/67
f  101/73/67 96/68/37 94/66/13
f  96/68/37 101/73/67 102/74/67
f  96/68/37 102/74/67 103/75/37
f  95/67/37 96/68/37 103/75/37
f  101/73/67 100/72/65 99/71/65
f  99/71/65 102/74/67 101/73/67
f  98/70/28 104/76/68 99/71/65
f  102/74/67 99/71/65 104/76/68
f  104/76/68 105/77/69 102/74/67
f  103/75/37 102/74/67 105/77/69
f  105/77/69 106/78/56 103/75/37
f  64/36/52 103/75/37 106/78/56
f  103/75/37 64/36/52 95/67/37
f  106/78/56 63/35/56 64/36/52
f  65/37/52 95/67/37 64/36/52
f  107/79/10 108/80/70 61/81/54
f  61/81/54 60/82/53 107/79/10
f  109/83/71 107/79/10 60/82/53
f  60/82/53 63/84/56 109/83/71
f  110/85/72 109/83/71 63/84/56
f  63/84/56 106/86/56 110/85/72
f  110/85/72 106/86/56 105/87/69
f  105/87/69 111/88/73 110/85/72
f  112/89/74 111/88/73 105/87/69
f  105/87/69 104/90/68 112/89/74
f  113/91/75 112/89/74 104/90/68
f  104/90/68 98/92/28 113/91/75
f  114/93/38 113/91/75 98/92/28
f  98/92/28 97/94/35 114/93/38
f  115/91/24 114/89/38 97/90/35
f  97/90/35 91/92/34 115/91/24
f  116/93/76 115/91/24 91/92/34
f  91/92/34 90/94/63 116/93/76
f  117/79/77 116/80/76 90/81/63
f  90/81/63 82/82/63 117/79/77
f  118/83/78 117/79/77 82/82/63
f  82/82/63 81/84/62 118/83/78
f  119/85/79 118/83/78 81/84/62
f  81/84/62 84/86/20 119/85/79
f  120/88/80 119/85/79 84/86/20
f  84/86/20 86/87/65 120/88/80
f  121/89/14 120/88/80 86/87/65
f  86/87/65 75/90/21 121/89/14
f  122/91/81 121/89/14 75/90/21
f  75/90/21 67/92/57 122/91/81
f  108/93/70 122/91/81 67/92/57
f  67/92/57 61/94/54 108/93/70
f  123/95/1 124/96/82 121/97/14
f  121/97/14 122/98/81 123/95/1
f  125/99/83 123/95/1 122/98/81
f  126/100/1 127/101/84 123/95/1
f  123/95/1 125/99/83 126/100/1
f  124/96/82 123/95/1 127/101/84
f  120/102/80 121/97/14 124/96/82
f  124/96/82 128/103/85 120/102/80
f  119/104/79 120/102/80 128/103/85
f  128/103/85 129/105/86 119/104/79
f  130/106/6 131/107/17 128/103/85
f  130/106/6 128/103/85 124/96/82
f  129/105/86 128/103/85 131/107/17
f  118/108/78 119/104/79 129/105/86
f  129/105/86 132/109/78 118/108/78
f  131/107/17 133/110/87 129/105/86
f  132/109/78 129/105/86 133/110/87
f  134/111/88 135/112/39 131/107/17
f  131/107/17 130/106/6 134/111/88
f  133/110/87 131/107/17 135/112/39
f  133/110/87 136/113/89 132/109/78
f  135/112/39 137/114/39 133/110/87
f  133/110/87 137/114/39 138/115/90
f  138/115/90 136/113/89 133/110/87
f  137/114/39 135/112/39 139/116/25
f  135/112/39 134/111/88 140/117/74
f  140/117/74 139/116/25 135/112/39
f  138/115/90 137/114/39 141/118/27
f  139/116/25 141/118/27 137/114/39
f  142/119/91 138/115/90 143/120/92
f  141/118/27 143/120/92 138/115/90
f  136/113/89 138/115/90 142/119/91
f  143/120/92 141/118/27 114/121/38
f  141/118/27 139/116/25 113/122/75
f  113/122/75 114/121/38 141/118/27
f  139/116/25 140/117/74 112/123/74
f  112/123/74 113/122/75 139/116/25
f  111/124/73 112/123/74 140/117/74
f  140/117/74 144/125/73 111/124/73
f  144/125/73 140/117/74 134/111/88
f  110/126/72 111/124/73 144/125/73
f  144/125/73 145/127/49 110/126/72
f  134/111/88 146/128/93 144/125/73
f  145/127/49 144/125/73 146/128/93
f  130/106/6 146/128/93 134/111/88
f  146/128/93 147/129/94 145/127/49
f  147/129/94 146/128/93 130/106/6
f  145/127/49 148/130/2 109/131/71
f  109/131/71 110/126/72 145/127/49
f  148/130/2 145/127/49 147/129/94
f  147/129/94 149/132/95 148/130/2
f  130/106/6 127/101/84 147/129/94
f  147/129/94 127/101/84 149/132/95
f  127/101/84 130/106/6 124/96/82
f  149/132/95 127/101/84 126/100/1
f  149/132/95 150/133/83 151/134/83
f  151/134/83 148/130/2 149/132/95
f  126/100/1 150/133/83 149/132/95
f  150/133/83 126/100/1 125/99/83
f  125/99/83 151/134/83 150/133/83
f  148/130/2 151/134/83 107/135/10
f  151/134/83 125/99/83 108/136/70
f  108/136/70 107/135/10 151/134/83
f  122/98/81 108/136/70 125/99/83
f  107/135/10 109/131/71 148/130/2
f  114/121/38 115/137/24 143/120/92
f  152/138/43 143/120/92 115/137/24
f  115/137/24 116/139/76 152/138/43
f  143/120/92 152/138/43 142/119/91
f  153/140/43 152/138/43 116/139/76
f  154/141/43 142/119/91 152/138/43
f  152/138/43 153/140/43 154/141/43
f  116/139/76 117/142/77 153/140/43
f  132/109/78 153/140/43 117/142/77
f  136/113/89 154/141/43 153/140/43
f  153/140/43 132/109/78 136/113/89
f  142/119/91 154/141/43 136/113/89
f  117/142/77 118/108/78 132/109/78
f  155/143/96 156/144/28 157/145/31
f  155/143/96 158/146/75 156/144/28
f  159/147/42 155/143/96 157/145/31
f  158/146/75 160/148/97 156/144/28
f  156/144/28 160/148/97 157/145/31
f  161/149/29 157/145/31 162/150/35
f  163/151/30 162/150/35 157/145/31
f  161/149/29 162/150/35 163/151/30
f  163/151/30 164/152/98 161/149/29
f  157/145/31 160/148/97 163/151/30
f  160/148/97 165/153/4 163/151/30
f  158/146/75 166/154/51 160/148/97
f  166/154/51 165/153/4 160/148/97
f  167/155/4 165/153/4 166/154/51
f  168/156/70 169/157/82 167/155/4
f  167/155/4 170/158/99 168/156/70
f  164/152/98 167/155/4 169/157/82
f  166/154/51 170/158/99 167/155/4
f  158/146/75 171/159/72 166/154/51
f  171/159/72 172/160/100 170/158/99
f  170/158/99 166/154/51 171/159/72
f  172/160/100 168/156/70 170/158/99
f  159/153/42 157/154/31 161/148/29
f  159/147/42 161/149/29 173/161/101
f  169/157/82 173/161/101 164/152/98
f  163/151/30 165/153/4 164/152/98
f  161/153/29 164/148/98 173/154/101
f  167/154/4 164/153/98 165/148/4
f  169/162/82 168/163/70 158/164/75
f  158/164/75 155/165/96 169/162/82
f  169/162/82 155/165/96 159/166/42
f  159/166/42 173/167/101 169/162/82
f  168/163/70 172/168/100 171/169/72
f  171/169/72 158/164/75 168/163/70

