# File produced by Open Asset Import Library (http://www.assimp.sf.net)
# (assimp v3.1.187496374)

mtllib fwell.obj.mtl

# 99 vertex positions
v  0.201232 7.14315 8.07211
v  2.93056 7.14315 7.67074
v  5.41906 7.14315 5.82443
v  7.42592 7.14315 3.25565
v  7.74702 7.14315 0.0446815
v  7.42592 7.14315 -2.92547
v  5.41906 7.14315 -5.6548
v  2.93056 7.14315 -7.42083
v  0.201232 7.14315 -7.90248
v  -3.17029 7.14315 -7.42083
v  -5.81934 7.14315 -5.6548
v  -7.66565 7.14315 -2.92547
v  0.0406828 -0.019574 -0.035593
v  9.75388 -0.019574 -0.035593
v  9.27223 -0.019574 4.0584
v  6.70345 -0.019574 7.34964
v  3.57275 -0.019574 9.75787
v  0.0406828 -0.019574 10.2395
v  -4.29413 -0.019574 9.75787
v  -7.66565 -0.019574 7.1891
v  -9.99361 -0.019574 4.0584
v  -10.7161 -0.019574 -0.035593
v  -9.99361 -0.019574 -3.88876
v  -7.66565 -0.019574 -7.34056
v  -4.29413 -0.019574 -9.58824
v  0.0406828 -0.019574 -10.2304
v  3.57275 -0.019574 -9.58824
v  6.70345 -0.019574 -7.34056
v  9.27223 -0.019574 -3.88876
v  -9.99361 8.2741 -3.88876
v  -7.66565 8.2741 -7.34056
v  -10.7161 8.2741 -0.035593
v  -9.99361 8.2741 4.0584
v  -7.66565 8.2741 7.1891
v  -4.29413 8.2741 9.75787
v  0.0406828 8.2741 10.2395
v  -4.29413 8.2741 -9.58824
v  0.0406828 8.2741 -10.2304
v  3.57275 8.2741 -9.58824
v  6.70345 8.2741 -7.34056
v  9.27223 8.2741 -3.88876
v  9.75388 8.2741 -0.035593
v  9.27223 8.2741 4.0584
v  6.70345 8.2741 7.34964
v  3.57275 8.2741 9.75787
v  7.98784 8.71963 -3.40711
v  8.38921 8.71963 -0.035593
v  5.74016 8.71963 -6.37726
v  7.10482 8.2741 -2.92547
v  7.5062 8.2741 0.0446815
v  7.98784 8.71963 3.57675
v  7.10482 8.2741 3.09511
v  5.74016 8.71963 6.38635
v  5.17824 8.2741 5.58361
v  3.01083 8.71963 8.47348
v  2.85028 8.2741 7.42992
v  -0.0395908 8.71963 8.95513
v  0.120957 8.2741 7.83129
v  -3.81248 8.71963 8.47348
v  -3.17029 8.2741 7.42992
v  -6.70236 8.71963 6.30608
v  -5.65879 8.2741 5.50333
v  -8.78949 8.71963 3.57675
v  -7.42483 8.2741 3.09511
v  -9.43169 8.71963 -0.035593
v  -7.98675 8.2741 0.0446815
v  -8.78949 8.71963 -3.40711
v  -7.42483 8.2741 -2.92547
v  -6.70236 8.71963 -6.37726
v  -5.65879 8.2741 -5.49425
v  -3.81248 8.71963 -8.30385
v  -3.17029 8.2741 -7.26028
v  -0.0395908 8.71963 -8.86577
v  0.120957 8.2741 -7.74193
v  3.01083 8.71963 -8.30385
v  2.85028 8.2741 -7.26028
v  5.17824 8.2741 -5.49425
v  -5.65879 1.48837 -5.49425
v  -7.42483 1.48837 -2.92547
v  -3.17029 1.48837 -7.26028
v  0.120957 1.48837 -7.74193
v  -7.98675 1.48837 0.0446815
v  -7.42483 1.48837 3.09511
v  -5.65879 1.48837 5.50333
v  -3.17029 1.48837 7.42992
v  0.120957 1.48837 7.83129
v  0.120957 1.48837 -0.035593
v  2.85028 1.48837 7.42992
v  5.17824 1.48837 5.58361
v  7.10482 1.48837 3.09511
v  7.5062 1.48837 0.0446815
v  7.10482 1.48837 -2.92547
v  5.17824 1.48837 -5.49425
v  2.85028 1.48837 -7.26028
v  0.201232 7.14315 0.0446815
v  -8.22757 7.14315 0.0446815
v  -7.66565 7.14315 3.25565
v  -5.81934 7.14315 5.66388
v  -3.17029 7.14315 7.67074

# 107 UV coordinates
vt 0.236667 0.79 0
vt 0.236667 0.953333 0
vt 0.308333 0.946667 0
vt 0.366667 0.903333 0
vt 0.405 0.848333 0
vt 0.413333 0.79 0
vt 0.405 0.711667 0
vt 0.361667 0.656667 0
vt 0.308333 0.613333 0
vt 0.236667 0.601667 0
vt 0.171667 0.613333 0
vt 0.111667 0.656667 0
vt 0.0733333 0.711667 0
vt 0.0616667 0.79 0
vt 0.0733333 0.848333 0
vt 0.111667 0.903333 0
vt 0.171667 0.946667 0
vt 0.718333 0.61 0
vt 0.718333 0.961667 0
vt 0.761667 0.961667 0
vt 0.761667 0.61 0
vt 0.666667 0.61 0
vt 0.666667 0.961667 0
vt 0.618333 0.61 0
vt 0.618333 0.961667 0
vt 0.575 0.61 0
vt 0.575 0.961667 0
vt 0.533333 0.61 0
vt 0.533333 0.961667 0
vt 0.491667 0.61 0
vt 0.491667 0.961667 0
vt 0.805 0.961667 0
vt 0.805 0.61 0
vt 0.843333 0.961667 0
vt 0.843333 0.61 0
vt 0.62 0.168333 0
vt 0.631667 0.188333 0
vt 0.686667 0.185 0
vt 0.686667 0.161667 0
vt 0.561667 0.211667 0
vt 0.576667 0.226667 0
vt 0.64 0.203333 0
vt 0.686667 0.2 0
vt 0.75 0.188333 0
vt 0.741667 0.203333 0
vt 0.756667 0.168333 0
vt 0.8 0.226667 0
vt 0.785 0.238333 0
vt 0.815 0.211667 0
vt 0.835 0.275 0
vt 0.815 0.278333 0
vt 0.855 0.266667 0
vt 0.843333 0.328333 0
vt 0.823333 0.325 0
vt 0.861667 0.325 0
vt 0.835 0.391667 0
vt 0.815 0.38 0
vt 0.855 0.403333 0
vt 0.796667 0.441667 0
vt 0.785 0.426667 0
vt 0.811667 0.458333 0
vt 0.75 0.476667 0
vt 0.741667 0.453333 0
vt 0.756667 0.5 0
vt 0.686667 0.488333 0
vt 0.686667 0.465 0
vt 0.686667 0.513333 0
vt 0.631667 0.476667 0
vt 0.64 0.453333 0
vt 0.62 0.5 0
vt 0.576667 0.441667 0
vt 0.593333 0.426667 0
vt 0.561667 0.458333 0
vt 0.546667 0.391667 0
vt 0.565 0.38 0
vt 0.523333 0.403333 0
vt 0.535 0.328333 0
vt 0.553333 0.325 0
vt 0.511667 0.325 0
vt 0.546667 0.275 0
vt 0.565 0.278333 0
vt 0.523333 0.266667 0
vt 0.593333 0.238333 0
vt 0.236667 0.775 0
vt 0.236667 0.958333 0
vt 0.361667 0.903333 0
vt 0.413333 0.775 0
vt 0.366667 0.656667 0
vt 0.236667 0.606667 0
vt 0.0616667 0.775 0
vt 0.25 0.348333 0
vt 0.25 0.531667 0
vt 0.32 0.52 0
vt 0.375 0.481667 0
vt 0.421667 0.423333 0
vt 0.428333 0.348333 0
vt 0.421667 0.29 0
vt 0.378333 0.235 0
vt 0.32 0.191667 0
vt 0.25 0.18 0
vt 0.186667 0.191667 0
vt 0.125 0.235 0
vt 0.085 0.29 0
vt 0.0766667 0.348333 0
vt 0.085 0.423333 0
vt 0.125 0.481667 0
vt 0.186667 0.52 0

# 41 vertex normals
vn 0 1 0
vn -0.525731 0.850651 0
vn 0 -1 0
vn 0.850651 -0.525731 0
vn 0.809017 -0.5 0.309017
vn 0.425325 -0.587785 0.688191
vn 0.238856 -0.442863 0.864188
vn 0 -0.525731 0.850651
vn -0.425325 -0.587785 0.688191
vn -0.688191 -0.425325 0.587785
vn -0.809017 -0.5 0.309017
vn -0.850651 -0.525731 0
vn -0.809017 -0.5 -0.309017
vn -0.425325 -0.587785 -0.688191
vn -0.238856 -0.442863 -0.864188
vn 0 -0.525731 -0.850651
vn 0.425325 -0.587785 -0.688191
vn 0.688191 -0.425325 -0.587785
vn 0.809017 -0.5 -0.309017
vn -0.809017 0.5 -0.309017
vn -0.587785 0.688191 -0.425325
vn -0.850651 0.525731 0
vn -0.809017 0.5 0.309017
vn -0.425325 0.587785 0.688191
vn -0.147621 0.681718 0.716567
vn 0 0.525731 0.850651
vn -0.425325 0.587785 -0.688191
vn 0 0.525731 -0.850651
vn 0.425325 0.587785 -0.688191
vn 0.809017 0.5 -0.309017
vn 0.850651 0.525731 0
vn 0.809017 0.5 0.309017
vn 0.587785 0.688191 0.425325
vn 0.425325 0.587785 0.688191
vn -0.688191 0.425325 -0.587785
vn 0.587785 0.688191 -0.425325
vn 0.147621 0.681718 0.716567
vn -0.688191 0.425325 0.587785
vn 0.688191 0.425325 0.587785
vn 0.238856 0.442863 -0.864188
vn -0.238856 0.442863 0.864188

# Mesh '' with 22 faces
usemtl $Material_0
l  1 2
l  2 1
l  2 3
l  3 2
l  3 4
l  4 3
l  4 5
l  5 4
l  5 6
l  6 5
l  6 7
l  7 6
l  7 8
l  8 7
l  8 9
l  9 8
l  9 10
l  10 9
l  10 11
l  11 10
l  11 12
l  12 11

# Mesh '' with 176 faces
usemtl $Material_0
f  13/1/3 14/2/4 15/3/5
f  15/3/5 16/4/6 13/1/3
f  13/1/3 16/4/6 17/5/7
f  17/5/7 18/6/8 13/1/3
f  13/1/3 18/6/8 19/7/9
f  19/7/9 20/8/10 13/1/3
f  13/1/3 20/8/10 21/9/11
f  21/9/11 22/10/12 13/1/3
f  13/1/3 22/10/12 23/11/13
f  23/11/13 24/12/14 13/1/3
f  13/1/3 24/12/14 25/13/15
f  25/13/15 26/14/16 13/1/3
f  13/1/3 26/14/16 27/15/17
f  27/15/17 28/16/18 13/1/3
f  13/1/3 28/16/18 29/17/19
f  29/17/19 14/2/4 13/1/3
f  23/18/13 30/19/20 31/20/21
f  31/20/21 24/21/14 23/18/13
f  30/19/20 23/18/13 22/22/12
f  22/22/12 32/23/22 30/19/20
f  32/23/22 22/22/12 21/24/11
f  21/24/11 33/25/23 32/23/22
f  33/25/23 21/24/11 20/26/10
f  20/26/10 34/27/24 33/25/23
f  34/27/24 20/26/10 19/28/9
f  19/28/9 35/29/25 34/27/24
f  35/29/25 19/28/9 18/30/8
f  18/30/8 36/31/26 35/29/25
f  24/21/14 31/20/21 37/32/27
f  37/32/27 25/33/15 24/21/14
f  25/33/15 37/32/27 38/34/28
f  38/34/28 26/35/16 25/33/15
f  26/30/16 38/31/28 39/29/29
f  39/29/29 27/28/17 26/30/16
f  27/28/17 39/29/29 40/27/29
f  40/27/29 28/26/18 27/28/17
f  28/26/18 40/27/29 41/25/30
f  41/25/30 29/24/19 28/26/18
f  29/24/19 41/25/30 42/23/31
f  42/23/31 14/22/4 29/24/19
f  14/22/4 42/23/31 43/19/32
f  43/19/32 15/18/5 14/22/4
f  15/18/5 43/19/32 44/20/33
f  44/20/33 16/21/6 15/18/5
f  16/21/6 44/20/33 45/32/34
f  45/32/34 17/33/7 16/21/6
f  17/33/7 45/32/34 36/34/26
f  36/34/26 18/35/8 17/33/7
f  41/36/30 46/37/1 47/38/1
f  47/38/1 42/39/31 41/36/30
f  46/37/1 41/36/30 40/40/29
f  40/40/29 48/41/1 46/37/1
f  49/42/23 46/37/1 48/41/1
f  46/37/1 49/42/23 50/43/22
f  50/43/22 47/38/1 46/37/1
f  42/39/31 47/38/1 51/44/1
f  47/38/1 50/43/22 52/45/20
f  52/45/20 51/44/1 47/38/1
f  51/44/1 43/46/32 42/39/31
f  43/46/32 51/44/1 53/47/1
f  51/44/1 52/45/20 54/48/35
f  54/48/35 53/47/1 51/44/1
f  44/49/33 43/46/32 53/47/1
f  44/49/33 53/47/1 55/50/1
f  53/47/1 54/48/35 56/51/27
f  56/51/27 55/50/1 53/47/1
f  55/50/1 45/52/34 44/49/33
f  45/52/34 55/50/1 57/53/1
f  55/50/1 56/51/27 58/54/28
f  58/54/28 57/53/1 55/50/1
f  57/53/1 36/55/26 45/52/34
f  36/55/26 57/53/1 59/56/1
f  57/53/1 58/54/28 60/57/29
f  60/57/29 59/56/1 57/53/1
f  59/56/1 35/58/25 36/55/26
f  35/58/25 59/56/1 61/59/1
f  60/57/29 62/60/36 59/56/1
f  59/56/1 62/60/36 61/59/1
f  34/61/24 35/58/25 61/59/1
f  34/61/24 61/59/1 63/62/1
f  61/59/1 62/60/36 64/63/30
f  64/63/30 63/62/1 61/59/1
f  63/62/1 33/64/23 34/61/24
f  33/64/23 63/62/1 65/65/1
f  63/62/1 64/63/30 66/66/31
f  66/66/31 65/65/1 63/62/1
f  65/65/1 32/67/22 33/64/23
f  32/67/22 65/65/1 67/68/1
f  65/65/1 66/66/31 68/69/32
f  68/69/32 67/68/1 65/65/1
f  67/68/1 30/70/20 32/67/22
f  69/71/1 30/70/20 67/68/1
f  68/69/32 70/72/34 67/68/1
f  67/68/1 70/72/34 69/71/1
f  31/73/21 30/70/20 69/71/1
f  69/71/1 71/74/1 31/73/21
f  69/71/1 70/72/34 72/75/37
f  72/75/37 71/74/1 69/71/1
f  31/73/21 71/74/1 37/76/27
f  37/76/27 71/74/1 73/77/1
f  72/75/37 74/78/26 71/74/1
f  71/74/1 74/78/26 73/77/1
f  73/77/1 38/79/28 37/76/27
f  73/77/1 75/80/1 38/79/28
f  73/77/1 74/78/26 76/81/24
f  76/81/24 75/80/1 73/77/1
f  75/80/1 39/82/29 38/79/28
f  75/80/1 48/41/1 39/82/29
f  76/81/24 77/83/38 75/80/1
f  75/80/1 77/83/38 48/41/1
f  39/82/29 48/41/1 40/40/29
f  48/41/1 77/83/38 49/42/23
f  78/26/39 70/27/34 68/25/32
f  68/25/32 79/24/32 78/26/39
f  70/27/34 78/26/39 80/28/34
f  80/28/34 72/29/37 70/27/34
f  72/29/37 80/28/34 81/30/26
f  81/30/26 74/31/26 72/29/37
f  79/24/32 68/25/32 66/23/31
f  66/23/31 82/22/31 79/24/32
f  82/22/31 66/23/31 64/19/30
f  64/19/30 83/18/30 82/22/31
f  83/18/30 64/19/30 62/20/36
f  62/20/36 84/21/29 83/18/30
f  84/21/29 62/20/36 60/32/29
f  60/32/29 85/33/40 84/21/29
f  85/33/40 60/32/29 58/34/28
f  58/34/28 86/35/28 85/33/40
f  78/16/39 79/17/32 87/84/1
f  80/15/34 78/16/39 87/84/1
f  87/84/1 79/17/32 82/85/31
f  82/85/31 83/3/30 87/84/1
f  87/84/1 83/3/30 84/86/29
f  84/86/29 85/5/40 87/84/1
f  87/84/1 85/5/40 86/87/28
f  86/87/28 88/7/27 87/84/1
f  87/84/1 88/7/27 89/88/35
f  89/88/35 90/9/20 87/84/1
f  87/84/1 90/9/20 91/89/22
f  91/89/22 92/11/23 87/84/1
f  87/84/1 92/11/23 93/12/24
f  93/12/24 94/13/41 87/84/1
f  87/84/1 94/13/41 81/90/26
f  87/84/1 81/90/26 80/15/34
f  86/30/28 58/31/28 56/29/27
f  56/29/27 88/28/27 86/30/28
f  88/28/27 56/29/27 54/27/35
f  54/27/35 89/26/35 88/28/27
f  89/26/35 54/27/35 52/25/20
f  52/25/20 90/24/20 89/26/35
f  90/24/20 52/25/20 50/23/22
f  50/23/22 91/22/22 90/24/20
f  91/22/22 50/23/22 49/19/23
f  49/19/23 92/18/23 91/22/22
f  49/19/23 77/20/38 92/18/23
f  92/18/23 77/20/38 93/21/24
f  93/21/24 77/20/38 76/32/24
f  76/32/24 94/33/41 93/21/24
f  94/33/41 76/32/24 74/34/26
f  74/34/26 81/35/26 94/33/41
f  95/91/1 96/92/1 97/93/1
f  97/93/1 98/94/1 95/91/1
f  95/91/1 98/94/1 99/95/1
f  99/95/1 1/96/1 95/91/1
f  95/91/1 1/96/1 2/97/1
f  2/97/1 3/98/1 95/91/1
f  3/98/1 4/99/1 95/91/1
f  95/91/1 4/99/1 5/100/1
f  5/100/1 6/101/1 95/91/1
f  95/91/1 6/101/1 7/102/1
f  8/103/1 95/91/1 7/102/1
f  95/91/1 8/103/1 9/104/1
f  9/104/1 10/105/1 95/91/1
f  95/91/1 10/105/1 11/106/1
f  11/106/1 12/107/1 95/91/1
f  95/91/1 12/107/1 96/92/1

