# File produced by Open Asset Import Library (http://www.assimp.sf.net)
# (assimp v3.1.187496374)

mtllib medikt.obj.mtl

# 8 vertex positions
v  13.6 -14.964 13.172
v  13.6 -14.964 -12.428
v  13.3882 -10.564 -12.428
v  13.3882 -10.564 13.172
v  -13.4 -10.564 13.172
v  -13.1882 -14.964 13.172
v  -13.4 -10.564 -12.428
v  -13.1882 -14.964 -12.428

# 16 UV coordinates
vt 0.898438 0.828571 0
vt 0.476562 0.828571 0
vt 0.476562 0.985714 0
vt 0.898438 0.985714 0
vt 0.0078125 0.0285714 0
vt 0.0078125 0.157143 0
vt 0.460938 0.157143 0
vt 0.460938 0.0285714 0
vt 0.460938 0.185714 0
vt 0.0078125 0.185714 0
vt 0.0078125 0.985714 0
vt 0.460938 0.985714 0
vt 0.898438 0.785714 0
vt 0.898438 0.0285714 0
vt 0.476562 0.0285714 0
vt 0.476562 0.785714 0

# 8 vertex normals
vn 0.688191 -0.425325 0.587785
vn 0.5 -0.309017 -0.809017
vn 0.809017 0.5 -0.309017
vn 0.309017 0.809017 0.5
vn -0.688191 0.425325 0.587785
vn -0.587785 -0.688191 0.425325
vn -0.425325 0.587785 -0.688191
vn -0.587785 -0.688191 -0.425325

# Mesh '' with 12 faces
usemtl $Material_0
f  1/1/1 2/2/2 3/3/3
f  3/3/3 4/4/4 1/1/1
f  1/5/1 4/6/4 5/7/5
f  5/7/5 6/8/6 1/5/1
f  4/9/4 3/10/3 7/11/7
f  7/11/7 5/12/5 4/9/4
f  2/8/2 8/5/8 7/6/7
f  7/6/7 3/7/3 2/8/2
f  8/8/8 6/5/6 5/6/5
f  5/6/5 7/7/7 8/8/8
f  1/13/1 6/14/6 8/15/8
f  8/15/8 2/16/2 1/13/1

