# File produced by Open Asset Import Library (http://www.assimp.sf.net)
# (assimp v3.1.187496374)

mtllib puddle.obj.mtl

# 28 vertex positions
v  0.863422 1.4428 6.4994
v  -15.9291 0.304217 -2.83911
v  -16.209 0.304217 1.31134
v  -13.4102 0.304217 6.4994
v  -11.0313 0.304217 10.8574
v  -10.3316 0.304217 17.083
v  -6.83314 0.304217 23.3087
v  3.10242 0.304217 26.4215
v  10.799 0.304217 20.6109
v  13.8776 0.304217 12.1025
v  14.1575 0.304217 4.63169
v  16.8163 0.304217 -2.83911
v  16.2565 0.304217 -7.19708
v  14.9971 0.304217 -13.2152
v  9.11974 0.304217 -17.9882
v  1.28324 0.304217 -16.5356
v  -2.77495 0.304217 -11.3475
v  -8.65233 0.304217 -7.61212
v  -13.1303 0.304217 -5.74442
v  -0.396015 0.233055 -21.1011
v  -11.1712 1.30048 -17.9882
v  -3.89445 0.233055 -14.6679
v  -3.05483 0.233055 -25.459
v  -9.49195 0.233055 -9.06478
v  -15.5093 0.233055 -9.68734
v  -18.8678 0.233055 -16.3281
v  -15.9291 0.233055 -23.1763
v  -9.49195 0.233055 -26.4967

# 28 UV coordinates
vt 0.515625 0.539062 0
vt 0.390625 0.867188 0
vt 0.445312 0.875 0
vt 0.515625 0.820312 0
vt 0.570312 0.773438 0
vt 0.65625 0.757812 0
vt 0.734375 0.6875 0
vt 0.78125 0.492188 0
vt 0.703125 0.34375 0
vt 0.585938 0.28125 0
vt 0.492188 0.273438 0
vt 0.390625 0.21875 0
vt 0.328125 0.234375 0
vt 0.25 0.257812 0
vt 0.1875 0.375 0
vt 0.210938 0.53125 0
vt 0.273438 0.609375 0
vt 0.328125 0.726562 0
vt 0.351562 0.8125 0
vt 0.148438 0.5625 0
vt 0.1875 0.773438 0
vt 0.234375 0.632812 0
vt 0.0859375 0.617188 0
vt 0.304688 0.742188 0
vt 0.296875 0.859375 0
vt 0.210938 0.921875 0
vt 0.117188 0.867188 0
vt 0.078125 0.742188 0

# 1 vertex normals
vn 0 1 0

# Mesh '' with 26 faces
usemtl $Material_0
f  1/1/1 2/2/1 3/3/1
f  3/3/1 4/4/1 1/1/1
f  1/1/1 4/4/1 5/5/1
f  5/5/1 6/6/1 1/1/1
f  1/1/1 6/6/1 7/7/1
f  7/7/1 8/8/1 1/1/1
f  1/1/1 8/8/1 9/9/1
f  9/9/1 10/10/1 1/1/1
f  1/1/1 10/10/1 11/11/1
f  11/11/1 12/12/1 1/1/1
f  1/1/1 12/12/1 13/13/1
f  13/13/1 14/14/1 1/1/1
f  1/1/1 14/14/1 15/15/1
f  15/15/1 16/16/1 1/1/1
f  1/1/1 16/16/1 17/17/1
f  17/17/1 18/18/1 1/1/1
f  1/1/1 18/18/1 19/19/1
f  19/19/1 2/2/1 1/1/1
f  20/20/1 21/21/1 22/22/1
f  23/23/1 21/21/1 20/20/1
f  22/22/1 21/21/1 24/24/1
f  24/24/1 21/21/1 25/25/1
f  25/25/1 21/21/1 26/26/1
f  26/26/1 21/21/1 27/27/1
f  27/27/1 21/21/1 28/28/1
f  28/28/1 21/21/1 23/23/1

