# File produced by Open Asset Import Library (http://www.assimp.sf.net)
# (assimp v3.1.187496374)

mtllib wbarrel.obj.mtl

# 178 vertex positions
v  0.108938 0.0864541 0.110489
v  9.83757 0.0864541 0.110489
v  9.32009 0.0864541 4.14664
v  6.73269 0.0864541 7.45836
v  3.6278 0.0864541 9.83866
v  0.108938 0.0864541 10.3561
v  -4.2379 0.0864541 9.83866
v  -7.54977 0.0864541 7.35487
v  -9.93018 0.0864541 4.14664
v  -10.6547 0.0864541 0.110489
v  -9.93018 0.0864541 -3.71869
v  -7.54977 0.0864541 -7.13389
v  -4.2379 0.0864541 -9.4107
v  0.108938 0.0864541 -10.0316
v  3.6278 0.0864541 -9.4107
v  6.73269 0.0864541 -7.13389
v  9.32009 0.0864541 -3.71869
v  10.3551 5.43907 4.56061
v  7.45716 5.43907 8.1828
v  10.769 5.43907 0.00699711
v  10.3551 5.43907 -4.13265
v  7.45716 5.43907 -7.96182
v  4.04179 5.43907 -10.4456
v  0.108938 5.43907 -11.17
v  4.04179 5.43907 10.8736
v  0.108938 5.43907 11.391
v  -4.65188 5.43907 10.8736
v  -8.37774 5.43907 7.97582
v  -10.9651 5.43907 4.56061
v  -11.6896 5.43907 0.00699711
v  -10.9651 5.43907 -4.13265
v  -8.37774 5.43907 -7.96182
v  -4.65188 5.43907 -10.4456
v  8.18163 5.43907 -8.68626
v  11.2865 5.43907 -4.54661
v  4.35228 5.43907 -11.4805
v  0.108938 5.43907 -12.205
v  -5.16936 5.43907 -11.4805
v  -9.20571 5.43907 -8.68626
v  -12.1036 5.43907 -4.54661
v  -12.9316 5.43907 0.00699711
v  -12.1036 5.43907 4.97457
v  -9.20571 5.43907 8.80375
v  -5.16936 5.43907 11.9085
v  0.108938 5.43907 12.5294
v  4.35228 5.43907 11.9085
v  8.18163 5.43907 9.01073
v  11.2865 5.43907 4.97457
v  11.804 5.43907 0.00699711
v  4.66277 9.61673 -12.205
v  8.69911 9.61673 -9.30721
v  0.108938 9.61673 -13.0329
v  12.011 9.61673 -4.85709
v  12.632 9.61673 0.110489
v  12.011 9.61673 5.38854
v  8.69911 9.61673 9.63168
v  4.66277 9.61673 12.7364
v  0.108938 9.61673 13.3574
v  -5.47985 9.61673 12.7364
v  -9.82669 9.61673 9.4247
v  -12.8281 9.61673 5.38854
v  -13.7595 9.61673 0.110489
v  -12.8281 9.61673 -4.85709
v  -9.82669 9.61673 -9.30721
v  -5.47985 9.61673 -12.205
v  -9.10221 9.61673 -8.58277
v  -5.16936 9.61673 -11.377
v  -12.0001 9.61673 -4.54661
v  -12.8281 9.61673 0.00699711
v  -12.0001 9.61673 4.97457
v  -9.10221 9.61673 8.70026
v  -5.16936 9.61673 11.805
v  0.108938 9.61673 12.4259
v  4.35228 9.61673 11.805
v  8.07814 9.61673 8.90724
v  11.183 9.61673 4.97457
v  11.7005 9.61673 0.00699711
v  11.183 9.61673 -4.54661
v  8.07814 9.61673 -8.58277
v  4.35228 9.61673 -11.377
v  0.108938 9.61673 -12.1015
v  9.32009 33.116 4.14664
v  9.83757 33.116 0.110489
v  0.108938 33.116 0.110489
v  6.73269 33.116 7.45836
v  9.32009 33.116 -3.71869
v  6.73269 33.116 -7.13389
v  3.6278 33.116 -9.4107
v  0.108938 33.116 -10.0316
v  -4.2379 33.116 -9.4107
v  -7.54977 33.116 -7.13389
v  -9.93018 33.116 -3.71869
v  -10.6547 33.116 0.110489
v  -9.93018 33.116 4.14664
v  -7.54977 33.116 7.35487
v  -4.2379 33.116 9.83866
v  0.108938 33.116 10.3561
v  3.6278 33.116 9.83866
v  7.45716 27.7634 8.1828
v  10.3551 27.7634 4.56061
v  4.04179 27.7634 10.8736
v  10.769 27.7634 0.00699711
v  10.3551 27.7634 -4.13265
v  7.45716 27.7634 -7.96182
v  4.04179 27.7634 -10.4456
v  0.108938 27.7634 -11.17
v  0.108938 27.7634 11.391
v  -4.65188 27.7634 10.8736
v  -8.37774 27.7634 7.97582
v  -10.9651 27.7634 4.56061
v  -11.6896 27.7634 0.00699711
v  -10.9651 27.7634 -4.13265
v  -8.37774 27.7634 -7.96182
v  -4.65188 27.7634 -10.4456
v  11.2865 27.7634 -4.54661
v  8.18163 27.7634 -8.68626
v  11.804 27.7634 0.00699711
v  4.35228 27.7634 -11.4805
v  0.108938 27.7634 -12.205
v  -5.16936 27.7634 -11.4805
v  -9.20571 27.7634 -8.68626
v  -12.1036 27.7634 -4.54661
v  -12.9316 27.7634 0.00699711
v  -12.1036 27.7634 4.97457
v  -9.20571 27.7634 8.80375
v  -5.16936 27.7634 11.9085
v  0.108938 27.7634 12.5294
v  4.35228 27.7634 11.9085
v  8.18163 27.7634 9.01073
v  11.2865 27.7634 4.97457
v  8.69911 23.5858 -9.30721
v  4.66277 23.5858 -12.205
v  12.011 23.5858 -4.85709
v  0.108938 23.5858 -13.0329
v  12.632 23.5858 0.110489
v  12.011 23.5858 5.38854
v  8.69911 23.5858 9.63168
v  4.66277 23.5858 12.7364
v  0.108938 23.5858 13.3574
v  -5.47985 23.5858 12.7364
v  -9.82669 23.5858 9.4247
v  -12.8281 23.5858 5.38854
v  -13.7595 23.5858 0.110489
v  -12.8281 23.5858 -4.85709
v  -9.82669 23.5858 -9.30721
v  -5.47985 23.5858 -12.205
v  -5.16936 23.5858 -11.377
v  -9.10221 23.5858 -8.58277
v  0.108938 23.5858 -12.1015
v  -12.0001 23.5858 -4.54661
v  -12.8281 23.5858 0.00699711
v  -12.0001 23.5858 4.97457
v  -9.10221 23.5858 8.70026
v  -5.16936 23.5858 11.805
v  0.108938 23.5858 12.4259
v  4.35228 23.5858 11.805
v  8.07814 23.5858 8.90724
v  11.183 23.5858 4.97457
v  11.7005 23.5858 0.00699711
v  11.183 23.5858 -4.54661
v  8.07814 23.5858 -8.58277
v  4.35228 23.5858 -11.377
v  11.7005 16.9276 -4.85709
v  12.218 16.9276 0.00699711
v  8.38863 16.9276 -9.20372
v  11.7005 16.9276 5.28505
v  8.38863 16.9276 9.4247
v  4.45577 16.9276 12.5294
v  -0.0980539 16.9276 13.1504
v  4.45577 16.9276 -12.1015
v  -0.0980539 16.9276 -12.8259
v  -5.68684 16.9276 12.5294
v  -9.82669 16.9276 9.21771
v  -12.9316 16.9276 5.28505
v  -13.7595 16.9276 0.00699711
v  -12.9316 16.9276 -4.85709
v  -9.82669 16.9276 -9.20372
v  -5.68684 16.9276 -12.1015

# 137 UV coordinates
vt 0.16276 0.324219 0
vt 0.16276 0.195312 0
vt 0.111979 0.203125 0
vt 0.0690104 0.238281 0
vt 0.0377604 0.277344 0
vt 0.0299479 0.324219 0
vt 0.0377604 0.382812 0
vt 0.0690104 0.425781 0
vt 0.111979 0.460938 0
vt 0.16276 0.46875 0
vt 0.217448 0.460938 0
vt 0.260417 0.425781 0
vt 0.28776 0.382812 0
vt 0.299479 0.324219 0
vt 0.289062 0.277344 0
vt 0.260417 0.238281 0
vt 0.217448 0.203125 0
vt 0.338542 0.535156 0
vt 0.338542 0.647135 0
vt 0.402344 0.647135 0
vt 0.402344 0.535156 0
vt 0.27474 0.535156 0
vt 0.27474 0.647135 0
vt 0.210938 0.535156 0
vt 0.210938 0.647135 0
vt 0.147135 0.535156 0
vt 0.147135 0.647135 0
vt 0.0833333 0.535156 0
vt 0.0833333 0.647135 0
vt 0.0195312 0.535156 0
vt 0.0195312 0.647135 0
vt 0.466146 0.647135 0
vt 0.466146 0.535156 0
vt 0.529948 0.647135 0
vt 0.529948 0.535156 0
vt 0.652344 0.876302 0
vt 0.643229 0.886719 0
vt 0.701823 0.928385 0
vt 0.708333 0.91276 0
vt 0.617188 0.821615 0
vt 0.602865 0.829427 0
vt 0.606771 0.753906 0
vt 0.592448 0.753906 0
vt 0.617188 0.696615 0
vt 0.602865 0.692708 0
vt 0.652344 0.647135 0
vt 0.643229 0.638021 0
vt 0.708333 0.605469 0
vt 0.701823 0.59375 0
vt 0.766927 0.598958 0
vt 0.766927 0.585938 0
vt 0.833333 0.605469 0
vt 0.839844 0.59375 0
vt 0.885417 0.647135 0
vt 0.895833 0.638021 0
vt 0.924479 0.696615 0
vt 0.9375 0.692708 0
vt 0.932292 0.753906 0
vt 0.946615 0.753906 0
vt 0.924479 0.821615 0
vt 0.9375 0.829427 0
vt 0.882812 0.876302 0
vt 0.893229 0.886719 0
vt 0.833333 0.91276 0
vt 0.839844 0.928385 0
vt 0.766927 0.923177 0
vt 0.766927 0.940104 0
vt 0.394531 0.200521 0
vt 0.395833 0.334635 0
vt 0.476562 0.334635 0
vt 0.47526 0.200521 0
vt 0.315104 0.200521 0
vt 0.315104 0.334635 0
vt 0.55599 0.334635 0
vt 0.55599 0.200521 0
vt 0.635417 0.334635 0
vt 0.636719 0.200521 0
vt 0.716146 0.334635 0
vt 0.716146 0.200521 0
vt 0.796875 0.334635 0
vt 0.796875 0.200521 0
vt 0.877604 0.334635 0
vt 0.877604 0.200521 0
vt 0.957031 0.334635 0
vt 0.958333 0.200521 0
vt 0.632812 0.897135 0
vt 0.591146 0.834635 0
vt 0.697917 0.940104 0
vt 0.769531 0.953125 0
vt 0.845052 0.940104 0
vt 0.903646 0.897135 0
vt 0.951823 0.834635 0
vt 0.959635 0.753906 0
vt 0.951823 0.6875 0
vt 0.90625 0.628906 0
vt 0.845052 0.582031 0
vt 0.768229 0.566406 0
vt 0.697917 0.582031 0
vt 0.632812 0.628906 0
vt 0.591146 0.6875 0
vt 0.579427 0.753906 0
vt 0.402344 0.86849 0
vt 0.338542 0.86849 0
vt 0.338542 0.980469 0
vt 0.402344 0.980469 0
vt 0.466146 0.86849 0
vt 0.27474 0.86849 0
vt 0.27474 0.980469 0
vt 0.210938 0.86849 0
vt 0.210938 0.980469 0
vt 0.147135 0.86849 0
vt 0.147135 0.980469 0
vt 0.0833333 0.86849 0
vt 0.0833333 0.980469 0
vt 0.0195312 0.86849 0
vt 0.0195312 0.980469 0
vt 0.466146 0.980469 0
vt 0.529948 0.86849 0
vt 0.529948 0.980469 0
vt 0.394531 0.470052 0
vt 0.47526 0.470052 0
vt 0.315104 0.470052 0
vt 0.55599 0.470052 0
vt 0.636719 0.470052 0
vt 0.716146 0.470052 0
vt 0.796875 0.470052 0
vt 0.877604 0.470052 0
vt 0.958333 0.470052 0
vt 0.210938 0.759115 0
vt 0.27474 0.759115 0
vt 0.147135 0.759115 0
vt 0.338542 0.759115 0
vt 0.402344 0.759115 0
vt 0.466146 0.759115 0
vt 0.529948 0.759115 0
vt 0.0833333 0.759115 0
vt 0.0195312 0.759115 0

# 78 vertex normals
vn 0 -1 0
vn 0.681718 -0.716567 0.147621
vn 0.587785 -0.688191 0.425325
vn 0.147621 -0.681718 0.716567
vn -0.147621 -0.681718 0.716567
vn -0.425325 -0.587785 0.688191
vn -0.587785 -0.688191 0.425325
vn -0.681718 -0.716567 0.147621
vn -0.681718 -0.716567 -0.147621
vn -0.587785 -0.688191 -0.425325
vn -0.425325 -0.587785 -0.688191
vn -0.147621 -0.681718 -0.716567
vn 0.147621 -0.681718 -0.716567
vn 0.425325 -0.587785 -0.688191
vn 0.587785 -0.688191 -0.425325
vn 0.681718 -0.716567 -0.147621
vn 0.442863 -0.864188 -0.238856
vn 0.309017 -0.809017 -0.5
vn 0 -0.850651 -0.525731
vn 0.309017 -0.809017 0.5
vn 0 -0.850651 0.525731
vn -0.309017 -0.809017 0.5
vn -0.442863 -0.864188 0.238856
vn -0.525731 -0.850651 0
vn -0.309017 -0.809017 -0.5
vn -0.442863 -0.864188 -0.238856
vn 0.442863 -0.864188 0.238856
vn 0.525731 -0.850651 0
vn 0.147621 0.681718 -0.716567
vn 0.425325 0.587785 -0.688191
vn -0.147621 0.681718 -0.716567
vn 0.587785 0.688191 -0.425325
vn 0.850651 0.525731 0
vn 0.681718 0.716567 0.147621
vn 0.587785 0.688191 0.425325
vn 0.425325 0.587785 0.688191
vn 0.147621 0.681718 0.716567
vn -0.147621 0.681718 0.716567
vn -0.425325 0.587785 0.688191
vn -0.587785 0.688191 0.425325
vn -0.850651 0.525731 0
vn -0.681718 0.716567 -0.147621
vn -0.587785 0.688191 -0.425325
vn -0.425325 0.587785 -0.688191
vn -0.681718 0.716567 0.147621
vn 0.681718 0.716567 -0.147621
vn 0 1 0
vn 0.309017 0.809017 0.5
vn 0.442863 0.864188 -0.238856
vn 0.309017 0.809017 -0.5
vn 0 0.850651 -0.525731
vn 0 0.850651 0.525731
vn -0.309017 0.809017 0.5
vn -0.442863 0.864188 0.238856
vn -0.525731 0.850651 0
vn -0.309017 0.809017 -0.5
vn 0.525731 0.850651 0
vn -0.442863 0.864188 -0.238856
vn 0.442863 0.864188 0.238856
vn 0.850651 -0.525731 0
vn 0.425325 -0.587785 0.688191
vn -0.850651 -0.525731 0
vn 0.955423 0 -0.295242
vn 1 0 0
vn 0.716567 0.147621 -0.681718
vn 0.955423 0 0.295242
vn 0.716567 0.147621 0.681718
vn 0.525731 0 0.850651
vn 0 0 1
vn 0.525731 0 -0.850651
vn 0 0 -1
vn -0.525731 0 0.850651
vn -0.716567 0.147621 0.681718
vn -0.955423 0 0.295242
vn -1 0 0
vn -0.955423 0 -0.295242
vn -0.716567 0.147621 -0.681718
vn -0.525731 0 -0.850651

# Mesh '' with 352 faces
usemtl $Material_0
f  1/1/1 2/2/2 3/3/3
f  3/3/3 4/4/3 1/1/1
f  1/1/1 4/4/3 5/5/4
f  5/5/4 6/6/5 1/1/1
f  1/1/1 6/6/5 7/7/6
f  7/7/6 8/8/7 1/1/1
f  1/1/1 8/8/7 9/9/8
f  9/9/8 10/10/9 1/1/1
f  1/1/1 10/10/9 11/11/10
f  11/11/10 12/12/11 1/1/1
f  1/1/1 12/12/11 13/13/12
f  13/13/12 14/14/13 1/1/1
f  1/1/1 14/14/13 15/15/14
f  15/15/14 16/16/15 1/1/1
f  1/1/1 16/16/15 17/17/16
f  17/17/16 2/2/2 1/1/1
f  3/18/3 18/19/2 19/20/3
f  19/20/3 4/21/3 3/18/3
f  18/19/2 3/18/3 2/22/2
f  2/22/2 20/23/16 18/19/2
f  20/23/16 2/22/2 17/24/16
f  17/24/16 21/25/17 20/23/16
f  21/25/17 17/24/16 16/26/15
f  16/26/15 22/27/18 21/25/17
f  22/27/18 16/26/15 15/28/14
f  15/28/14 23/29/18 22/27/18
f  23/29/18 15/28/14 14/30/13
f  14/30/13 24/31/19 23/29/18
f  19/20/3 25/32/20 4/21/3
f  4/21/3 25/32/20 5/33/4
f  5/33/4 25/32/20 26/34/21
f  26/34/21 6/35/5 5/33/4
f  6/30/5 26/31/21 27/29/5
f  27/29/5 7/28/6 6/30/5
f  7/28/6 27/29/5 28/27/22
f  28/27/22 8/26/7 7/28/6
f  8/26/7 28/27/22 29/25/23
f  29/25/23 9/24/8 8/26/7
f  9/24/8 29/25/23 30/23/24
f  30/23/24 10/22/9 9/24/8
f  10/22/9 30/23/24 31/19/9
f  31/19/9 11/18/10 10/22/9
f  11/18/10 31/19/9 32/20/10
f  32/20/10 12/21/11 11/18/10
f  12/21/11 32/20/10 33/32/25
f  33/32/25 13/33/12 12/21/11
f  13/33/12 33/32/25 24/34/19
f  24/34/19 14/35/13 13/33/12
f  22/36/18 34/37/15 35/38/16
f  35/38/16 21/39/17 22/36/18
f  23/40/18 34/37/15 22/36/18
f  36/41/18 34/37/15 23/40/18
f  36/41/18 23/40/18 24/42/19
f  24/42/19 37/43/19 36/41/18
f  37/43/19 24/42/19 33/44/25
f  33/44/25 38/45/12 37/43/19
f  38/45/12 33/44/25 32/46/10
f  32/46/10 39/47/25 38/45/12
f  39/47/25 32/46/10 31/48/9
f  31/48/9 40/49/26 39/47/25
f  40/49/26 31/48/9 30/50/24
f  30/50/24 41/51/9 40/49/26
f  41/51/9 30/50/24 29/52/23
f  29/52/23 42/53/8 41/51/9
f  42/53/8 29/52/23 28/54/22
f  28/54/22 43/55/7 42/53/8
f  43/55/7 28/54/22 27/56/5
f  27/56/5 44/57/22 43/55/7
f  44/57/22 27/56/5 26/58/21
f  26/58/21 45/59/21 44/57/22
f  45/59/21 26/58/21 25/60/20
f  25/60/20 46/61/20 45/59/21
f  46/61/20 25/60/20 19/62/3
f  19/62/3 47/63/20 46/61/20
f  47/63/20 19/62/3 18/64/2
f  18/64/2 48/65/27 47/63/20
f  48/65/27 18/64/2 20/66/16
f  20/66/16 49/67/28 48/65/27
f  49/67/28 20/66/16 21/39/17
f  21/39/17 35/38/16 49/67/28
f  36/68/18 50/69/29 51/70/30
f  51/70/30 34/71/15 36/68/18
f  50/69/29 36/68/18 37/72/19
f  37/72/19 52/73/31 50/69/29
f  34/71/15 51/70/30 53/74/32
f  53/74/32 35/75/16 34/71/15
f  35/75/16 53/74/32 54/76/33
f  54/76/33 49/77/28 35/75/16
f  49/77/28 54/76/33 55/78/34
f  55/78/34 48/79/27 49/77/28
f  48/79/27 55/78/34 56/80/35
f  56/80/35 47/81/20 48/79/27
f  47/81/20 56/80/35 57/82/36
f  57/82/36 46/83/20 47/81/20
f  46/83/20 57/82/36 58/84/37
f  58/84/37 45/85/21 46/83/20
f  45/72/21 58/73/37 59/69/38
f  59/69/38 44/68/22 45/72/21
f  44/68/22 59/69/38 60/70/39
f  60/70/39 43/71/7 44/68/22
f  43/71/7 60/70/39 61/74/40
f  61/74/40 42/75/8 43/71/7
f  42/75/8 61/74/40 62/76/41
f  62/76/41 41/77/9 42/75/8
f  41/77/9 62/76/41 63/78/42
f  63/78/42 40/79/26 41/77/9
f  40/79/26 63/78/42 64/80/43
f  64/80/43 39/81/25 40/79/26
f  39/81/25 64/80/43 65/82/44
f  65/82/44 38/83/12 39/81/25
f  38/83/12 65/82/44 52/84/31
f  52/84/31 37/85/19 38/83/12
f  64/86/43 66/37/43 67/41/31
f  67/41/31 65/87/44 64/86/43
f  66/37/43 64/86/43 63/88/42
f  63/88/42 68/38/43 66/37/43
f  68/38/43 63/88/42 62/89/41
f  62/89/41 69/67/42 68/38/43
f  69/67/42 62/89/41 61/90/40
f  61/90/40 70/65/45 69/67/42
f  70/65/45 61/90/40 60/91/39
f  60/91/39 71/63/40 70/65/45
f  71/63/40 60/91/39 59/92/38
f  59/92/38 72/61/39 71/63/40
f  72/61/39 59/92/38 58/93/37
f  58/93/37 73/59/38 72/61/39
f  73/59/38 58/93/37 57/94/36
f  57/94/36 74/57/37 73/59/38
f  74/57/37 57/94/36 56/95/35
f  56/95/35 75/55/35 74/57/37
f  75/55/35 56/95/35 55/96/34
f  55/96/34 76/53/35 75/55/35
f  76/53/35 55/96/34 54/97/33
f  54/97/33 77/51/34 76/53/35
f  77/51/34 54/97/33 53/98/32
f  53/98/32 78/49/46 77/51/34
f  78/49/46 53/98/32 51/99/30
f  51/99/30 79/47/32 78/49/46
f  79/47/32 51/99/30 50/100/29
f  50/100/29 80/45/30 79/47/32
f  80/45/30 50/100/29 52/101/31
f  52/101/31 81/43/29 80/45/30
f  65/87/44 81/43/29 52/101/31
f  67/41/31 81/43/29 65/87/44
f  82/17/35 83/2/34 84/1/47
f  84/1/47 85/16/35 82/17/35
f  84/1/47 83/2/34 86/3/46
f  86/3/46 87/4/32 84/1/47
f  84/1/47 87/4/32 88/5/30
f  88/5/30 89/6/29 84/1/47
f  84/1/47 89/6/29 90/7/31
f  90/7/31 91/8/44 84/1/47
f  84/1/47 91/8/44 92/9/43
f  92/9/43 93/10/42 84/1/47
f  84/1/47 93/10/42 94/11/45
f  94/11/45 95/12/40 84/1/47
f  84/1/47 95/12/40 96/13/39
f  96/13/39 97/14/38 84/1/47
f  84/1/47 97/14/38 98/15/37
f  98/15/37 85/16/35 84/1/47
f  99/102/35 100/103/34 82/104/35
f  82/104/35 85/105/35 99/102/35
f  85/105/35 101/106/48 99/102/35
f  100/103/34 102/107/46 83/108/34
f  83/108/34 82/104/35 100/103/34
f  102/107/46 103/109/49 86/110/46
f  86/110/46 83/108/34 102/107/46
f  103/109/49 104/111/50 87/112/32
f  87/112/32 86/110/46 103/109/49
f  104/111/50 105/113/50 88/114/30
f  88/114/30 87/112/32 104/111/50
f  105/113/50 106/115/51 89/116/29
f  89/116/29 88/114/30 105/113/50
f  98/117/37 101/106/48 85/105/35
f  107/118/52 101/106/48 98/117/37
f  98/117/37 97/119/38 107/118/52
f  108/113/38 107/115/52 97/116/38
f  97/116/38 96/114/39 108/113/38
f  109/111/53 108/113/38 96/114/39
f  96/114/39 95/112/40 109/111/53
f  110/109/54 109/111/53 95/112/40
f  95/112/40 94/110/45 110/109/54
f  111/107/55 110/109/54 94/110/45
f  94/110/45 93/108/42 111/107/55
f  112/103/42 111/107/55 93/108/42
f  93/108/42 92/104/43 112/103/42
f  113/102/43 112/103/42 92/104/43
f  92/104/43 91/105/44 113/102/43
f  114/106/56 113/102/43 91/105/44
f  91/105/44 90/117/31 114/106/56
f  106/118/51 114/106/56 90/117/31
f  90/117/31 89/119/29 106/118/51
f  115/49/46 116/47/32 104/46/50
f  104/46/50 103/48/49 115/49/46
f  117/51/57 115/49/46 103/48/49
f  105/44/50 116/47/32 118/45/50
f  104/46/50 116/47/32 105/44/50
f  106/42/51 105/44/50 118/45/50
f  118/45/50 119/43/51 106/42/51
f  114/40/56 106/42/51 119/43/51
f  119/43/51 120/41/31 114/40/56
f  113/36/43 114/40/56 120/41/31
f  120/41/31 121/37/56 113/36/43
f  112/39/42 113/36/43 121/37/56
f  121/37/56 122/38/58 112/39/42
f  111/66/55 112/39/42 122/38/58
f  122/38/58 123/67/42 111/66/55
f  110/64/54 111/66/55 123/67/42
f  123/67/42 124/65/45 110/64/54
f  109/62/53 110/64/54 124/65/45
f  124/65/45 125/63/40 109/62/53
f  108/60/38 109/62/53 125/63/40
f  125/63/40 126/61/53 108/60/38
f  107/58/52 108/60/38 126/61/53
f  126/61/53 127/59/52 107/58/52
f  101/56/48 107/58/52 127/59/52
f  127/59/52 128/57/48 101/56/48
f  99/54/35 101/56/48 128/57/48
f  128/57/48 129/55/48 99/54/35
f  100/52/34 99/54/35 129/55/48
f  129/55/48 130/53/59 100/52/34
f  102/50/46 100/52/34 130/53/59
f  130/53/59 117/51/57 102/50/46
f  103/48/49 102/50/46 117/51/57
f  131/70/14 132/69/13 118/120/50
f  118/120/50 116/121/32 131/70/14
f  133/74/15 131/70/14 116/121/32
f  132/69/13 134/73/12 119/122/51
f  119/122/51 118/120/50 132/69/13
f  116/121/32 115/123/46 133/74/15
f  135/76/60 133/74/15 115/123/46
f  115/123/46 117/124/57 135/76/60
f  136/78/2 135/76/60 117/124/57
f  117/124/57 130/125/59 136/78/2
f  137/80/3 136/78/2 130/125/59
f  130/125/59 129/126/48 137/80/3
f  138/82/61 137/80/3 129/126/48
f  129/126/48 128/127/48 138/82/61
f  139/84/4 138/82/61 128/127/48
f  128/127/48 127/128/52 139/84/4
f  140/69/5 139/73/4 127/122/52
f  127/122/52 126/120/53 140/69/5
f  141/70/6 140/69/5 126/120/53
f  126/120/53 125/121/40 141/70/6
f  142/74/7 141/70/6 125/121/40
f  125/121/40 124/123/45 142/74/7
f  143/76/62 142/74/7 124/123/45
f  124/123/45 123/124/42 143/76/62
f  144/78/9 143/76/62 123/124/42
f  123/124/42 122/125/58 144/78/9
f  145/80/10 144/78/9 122/125/58
f  122/125/58 121/126/56 145/80/10
f  146/82/11 145/80/10 121/126/56
f  121/126/56 120/127/31 146/82/11
f  134/84/12 146/82/11 120/127/31
f  120/127/31 119/128/51 134/84/12
f  147/45/11 148/47/10 145/99/10
f  145/99/10 146/100/11 147/45/11
f  146/100/11 149/43/12 147/45/11
f  148/47/10 150/49/9 144/98/9
f  144/98/9 145/99/10 148/47/10
f  150/49/9 151/51/8 143/97/62
f  143/97/62 144/98/9 150/49/9
f  151/51/8 152/53/7 142/96/7
f  142/96/7 143/97/62 151/51/8
f  152/53/7 153/55/7 141/95/6
f  141/95/6 142/96/7 152/53/7
f  153/55/7 154/57/5 140/94/5
f  140/94/5 141/95/6 153/55/7
f  154/57/5 155/59/4 139/93/4
f  139/93/4 140/94/5 154/57/5
f  155/59/4 156/61/61 138/92/61
f  138/92/61 139/93/4 155/59/4
f  156/61/61 157/63/3 137/91/3
f  137/91/3 138/92/61 156/61/61
f  157/63/3 158/65/2 136/90/2
f  136/90/2 137/91/3 157/63/3
f  158/65/2 159/67/16 135/89/60
f  135/89/60 136/90/2 158/65/2
f  159/67/16 160/38/15 133/88/15
f  133/88/15 135/89/60 159/67/16
f  160/38/15 161/37/15 131/86/14
f  131/86/14 133/88/15 160/38/15
f  161/37/15 162/41/13 132/87/13
f  132/87/13 131/86/14 161/37/15
f  162/41/13 149/43/12 134/101/12
f  134/101/12 132/87/13 162/41/13
f  134/101/12 149/43/12 146/100/11
f  163/129/63 160/109/15 159/107/16
f  159/107/16 164/130/64 163/129/63
f  160/109/15 163/129/63 165/131/65
f  79/27/32 165/131/65 163/129/63
f  163/129/63 78/25/46 79/27/32
f  78/25/46 163/129/63 164/130/64
f  164/130/64 159/107/16 158/103/2
f  158/103/2 166/132/66 164/130/64
f  164/130/64 77/23/34 78/25/46
f  77/23/34 164/130/64 166/132/66
f  166/132/66 158/103/2 157/102/3
f  157/102/3 167/133/67 166/132/66
f  166/132/66 76/19/35 77/23/34
f  76/19/35 166/132/66 167/133/67
f  167/133/67 157/102/3 156/106/61
f  156/106/61 168/134/68 167/133/67
f  167/133/67 75/20/35 76/19/35
f  75/20/35 167/133/67 168/134/68
f  168/134/68 156/106/61 155/118/4
f  155/118/4 169/135/69 168/134/68
f  168/134/68 74/32/37 75/20/35
f  74/32/37 168/134/68 169/135/69
f  169/135/69 73/34/38 74/32/37
f  161/111/15 165/131/65 170/136/70
f  165/131/65 161/111/15 160/109/15
f  80/29/30 170/136/70 165/131/65
f  165/131/65 79/27/32 80/29/30
f  170/136/70 162/113/13 161/111/15
f  162/113/13 170/136/70 171/137/71
f  81/31/29 171/137/71 170/136/70
f  170/136/70 80/29/30 81/31/29
f  171/137/71 149/115/12 162/113/13
f  169/137/69 155/115/4 154/113/5
f  154/113/5 172/136/72 169/137/69
f  73/31/38 169/137/69 172/136/72
f  172/136/72 154/113/5 153/111/7
f  153/111/7 173/131/73 172/136/72
f  172/136/72 72/29/39 73/31/38
f  72/29/39 172/136/72 173/131/73
f  173/131/73 153/111/7 152/109/7
f  152/109/7 174/129/74 173/131/73
f  173/131/73 71/27/40 72/29/39
f  71/27/40 173/131/73 174/129/74
f  174/129/74 152/109/7 151/107/8
f  151/107/8 175/130/75 174/129/74
f  174/129/74 70/25/45 71/27/40
f  70/25/45 174/129/74 175/130/75
f  175/130/75 151/107/8 150/103/9
f  150/103/9 176/132/76 175/130/75
f  175/130/75 69/23/42 70/25/45
f  69/23/42 175/130/75 176/132/76
f  176/132/76 150/103/9 148/102/10
f  148/102/10 177/133/77 176/132/76
f  176/132/76 68/19/43 69/23/42
f  68/19/43 176/132/76 177/133/77
f  177/133/77 148/102/10 147/106/11
f  147/106/11 178/134/78 177/133/77
f  177/133/77 66/20/43 68/19/43
f  66/20/43 177/133/77 178/134/78
f  178/134/78 147/106/11 149/118/12
f  149/118/12 171/135/71 178/134/78
f  178/134/78 67/32/31 66/20/43
f  67/32/31 178/134/78 171/135/71
f  171/135/71 81/34/29 67/32/31

