# File produced by Open Asset Import Library (http://www.assimp.sf.net)
# (assimp v3.1.187496374)

mtllib brown.obj.mtl

# 102 vertex positions
v  -0.237831 -23.9921 0.0772943
v  -3.24788 -23.9921 -4.09954
v  -0.0873299 -23.9921 -5.16273
v  2.92271 -23.9921 -4.0236
v  4.72874 -23.9921 -1.44156
v  4.72874 -23.9921 1.74803
v  2.69696 -23.9921 4.33007
v  -0.237831 -23.9921 5.31732
v  -3.32313 -23.9921 4.25413
v  -5.12915 -23.9921 1.59614
v  -5.12915 -23.9921 -1.5175
v  2.09495 29.7717 3.57065
v  -0.237831 34.5966 0.153237
v  -0.313083 29.7717 3.64659
v  -2.72112 29.7717 3.49471
v  -4.7529 29.7717 1.59614
v  -4.15089 29.7717 -1.21373
v  -2.72112 29.7717 -3.18823
v  -0.237831 29.7717 -3.26417
v  2.54646 29.7717 -3.64389
v  3.75048 29.7717 -1.13778
v  2.99797 29.7717 1.29237
v  -0.16258 -6.98985 -4.5552
v  -2.94687 -6.98985 -3.71983
v  -2.26961 -6.07082 -2.65663
v  -0.16258 -6.07082 -3.34012
v  -0.237831 -7.90889 -3.18823
v  -2.11911 -7.90889 -2.58069
v  -4.6024 -6.98985 -1.36561
v  -3.47363 -6.07082 -1.06184
v  -0.0873299 -10.2065 -5.31462
v  -3.32313 -10.2065 -4.25143
v  -3.24788 -7.90889 -0.9859
v  -4.67765 -6.98985 1.5202
v  -3.47363 -6.07082 1.14049
v  -3.32313 -7.90889 1.06455
v  -5.27966 -10.2065 -1.59344
v  -5.27966 -10.2065 1.74803
v  -2.94687 -6.98985 3.79848
v  -2.26961 -6.07082 2.88717
v  -2.11911 -7.90889 2.73528
v  -0.237831 -6.98985 4.78573
v  -0.237831 -6.07082 3.57065
v  -0.16258 -7.90889 3.34282
v  -3.39838 -10.2065 4.40601
v  -0.313083 -10.2065 5.46921
v  2.54646 -6.98985 -3.64389
v  1.8692 -6.07082 -2.65663
v  1.7187 -7.90889 -2.50475
v  4.27724 -6.98985 -1.28967
v  2.92271 -7.90889 -0.834015
v  4.87924 -10.2065 -1.5175
v  2.92271 -7.90889 1.14049
v  4.87924 -10.2065 1.74803
v  3.07322 -6.07082 -0.909958
v  4.20198 -6.98985 1.5202
v  1.64345 -7.90889 2.81122
v  2.77221 -10.2065 4.48196
v  2.47121 -6.98985 3.87442
v  2.99797 -6.07082 1.29237
v  1.79395 -6.07082 2.96311
v  2.99797 -10.2065 -4.17548
v  3.22372 0.821968 5.16544
v  -0.16258 0.821968 7.44371
v  6.68527 0.821968 2.50745
v  5.70701 8.17427 8.81068
v  -0.237831 8.17427 9.34227
v  -4.6024 0.821968 6.00081
v  -6.55892 8.17427 8.58285
v  -6.10742 0.821968 1.97586
v  -9.04221 8.17427 2.96311
v  -5.58066 15.5266 7.29183
v  -7.46194 15.5266 2.35557
v  -0.237831 15.5266 9.0385
v  -4.07564 22.6491 5.31732
v  -7.61244 22.6491 2.43151
v  -9.79472 15.5266 -3.18823
v  -6.33317 22.6491 -1.89721
v  -7.46194 8.17427 -2.35286
v  -4.67765 15.5266 -5.9981
v  -4.7529 22.6491 -6.07404
v  -0.16258 22.6491 -7.44101
v  -0.237831 15.5266 -10.0231
v  4.35249 22.6491 -5.9981
v  -6.48367 8.17427 -8.27638
v  -0.237831 8.17427 -7.51695
v  4.27724 15.5266 -5.92216
v  -7.08568 0.821968 -2.20098
v  -3.84988 0.821968 -4.93491
v  -0.237831 0.821968 -7.13724
v  5.2555 8.17427 -7.21318
v  3.44947 0.821968 -4.78302
v  -0.16258 22.6491 8.88662
v  3.44947 22.6491 5.39327
v  4.95449 15.5266 7.51966
v  7.06153 8.17427 2.73528
v  9.39431 15.5266 3.49471
v  6.91102 22.6491 2.73528
v  8.34079 15.5266 -2.58069
v  5.93276 22.6491 -1.82127
v  8.4913 8.17427 -2.58069
v  7.73878 0.821968 -2.35286

# 97 UV coordinates
vt 0.97 0.411667 0
vt 0.78 0.411667 0
vt 0.78 0.431667 0
vt 0.97 0.431667 0
vt 0.97 0.39 0
vt 0.78 0.39 0
vt 0.593333 0.411667 0
vt 0.593333 0.431667 0
vt 0.97 0.338333 0
vt 0.78 0.338333 0
vt 0.593333 0.39 0
vt 0.405 0.411667 0
vt 0.405 0.431667 0
vt 0.405 0.39 0
vt 0.593333 0.338333 0
vt 0.405 0.338333 0
vt 0.215 0.411667 0
vt 0.215 0.431667 0
vt 0.215 0.39 0
vt 0.0266667 0.411667 0
vt 0.0266667 0.431667 0
vt 0.0266667 0.39 0
vt 0.215 0.338333 0
vt 0.405 0.0233333 0
vt 0.593333 0.0233333 0
vt 0.0266667 0.338333 0
vt 0.215 0.0233333 0
vt 0.0266667 0.0233333 0
vt 0.78 0.0233333 0
vt 0.97 0.0233333 0
vt 0.155 0.448333 0
vt 0.341667 0.448333 0
vt 0.341667 0.538333 0
vt 0.405 0.538333 0
vt 0.405 0.448333 0
vt 0.28 0.448333 0
vt 0.28 0.538333 0
vt 0.341667 0.628333 0
vt 0.405 0.628333 0
vt 0.466667 0.538333 0
vt 0.466667 0.628333 0
vt 0.466667 0.448333 0
vt 0.528333 0.538333 0
vt 0.528333 0.628333 0
vt 0.466667 0.718333 0
vt 0.528333 0.718333 0
vt 0.405 0.718333 0
vt 0.466667 0.808333 0
vt 0.528333 0.808333 0
vt 0.591667 0.718333 0
vt 0.591667 0.808333 0
vt 0.591667 0.628333 0
vt 0.653333 0.718333 0
vt 0.653333 0.808333 0
vt 0.591667 0.898333 0
vt 0.653333 0.898333 0
vt 0.528333 0.898333 0
vt 0.466667 0.983333 0
vt 0.716667 0.898333 0
vt 0.716667 0.808333 0
vt 0.776667 0.898333 0
vt 0.716667 0.718333 0
vt 0.776667 0.808333 0
vt 0.653333 0.628333 0
vt 0.716667 0.628333 0
vt 0.776667 0.718333 0
vt 0.591667 0.538333 0
vt 0.653333 0.538333 0
vt 0.716667 0.538333 0
vt 0.776667 0.628333 0
vt 0.591667 0.448333 0
vt 0.653333 0.448333 0
vt 0.716667 0.448333 0
vt 0.776667 0.538333 0
vt 0.776667 0.448333 0
vt 0.528333 0.448333 0
vt 0.466667 0.898333 0
vt 0.405 0.808333 0
vt 0.405 0.898333 0
vt 0.341667 0.898333 0
vt 0.341667 0.808333 0
vt 0.341667 0.718333 0
vt 0.28 0.628333 0
vt 0.28 0.718333 0
vt 0.28 0.808333 0
vt 0.28 0.898333 0
vt 0.216667 0.718333 0
vt 0.216667 0.808333 0
vt 0.216667 0.628333 0
vt 0.155 0.628333 0
vt 0.155 0.718333 0
vt 0.155 0.808333 0
vt 0.216667 0.898333 0
vt 0.155 0.898333 0
vt 0.155 0.538333 0
vt 0.216667 0.538333 0
vt 0.216667 0.448333 0

# 62 vertex normals
vn 0 -1 0
vn -0.425325 -0.587785 -0.688191
vn 0 -0.525731 -0.850651
vn 0.425325 -0.587785 -0.688191
vn 0.809017 -0.5 -0.309017
vn 0.809017 -0.5 0.309017
vn 0.425325 -0.587785 0.688191
vn 0 -0.525731 0.850651
vn -0.425325 -0.587785 0.688191
vn -0.809017 -0.5 0.309017
vn -0.809017 -0.5 -0.309017
vn 0.425325 0.587785 0.688191
vn 0 1 0
vn 0 0.525731 0.850651
vn -0.425325 0.587785 0.688191
vn -0.809017 0.5 0.309017
vn -0.809017 0.5 -0.309017
vn -0.425325 0.587785 -0.688191
vn 0 0.525731 -0.850651
vn 0.425325 0.587785 -0.688191
vn 0.850651 0.525731 0
vn 0.809017 0.5 0.309017
vn 0 0 -1
vn -0.525731 0 -0.850651
vn -0.5 0.309017 -0.809017
vn 0.262866 0.16246 -0.951056
vn -0.955423 0 -0.295242
vn -0.864188 0.238856 -0.442863
vn 0 0.295242 -0.955423
vn -0.955423 0 0.295242
vn -0.951056 0.262866 0.16246
vn -0.525731 0 0.850651
vn -0.716567 0.147621 0.681718
vn -0.716567 -0.147621 0.681718
vn 0 0 1
vn 0 0.295242 0.955423
vn -0.5 0.309017 0.809017
vn 0.525731 0 -0.850651
vn 0.5 0.309017 -0.809017
vn 0.716567 -0.147621 -0.681718
vn 0.955423 0 -0.295242
vn 0.951056 0.262866 -0.16246
vn 0.955423 0 0.295242
vn 0.525731 0 0.850651
vn 0.5 0.309017 0.809017
vn 0.864188 0.238856 0.442863
vn 0.5 -0.309017 0.809017
vn 0.238856 -0.442863 0.864188
vn 0.864188 -0.238856 0.442863
vn -0.688191 -0.425325 0.587785
vn -0.951056 -0.262866 0.16246
vn -0.951056 0.262866 -0.16246
vn -0.716567 0.147621 -0.681718
vn 0.716567 0.147621 -0.681718
vn -0.716567 -0.147621 -0.681718
vn 0 -0.295242 -0.955423
vn -0.951056 -0.262866 -0.16246
vn -0.5 -0.309017 -0.809017
vn 0.5 -0.309017 -0.809017
vn 0.716567 0.147621 0.681718
vn 0.864188 0.238856 -0.442863
vn 0.951056 -0.262866 -0.16246

# Mesh '' with 20 faces
usemtl $Material_0
l  1 2
l  1 3
l  1 4
l  1 5
l  1 6
l  1 7
l  1 8
l  1 9
l  1 10
l  1 11
l  12 13
l  14 13
l  15 13
l  16 13
l  17 13
l  18 13
l  19 13
l  20 13
l  21 13
l  22 13

# Mesh '' with 200 faces
usemtl $Material_0
f  23/1/23 24/2/24 25/3/25
f  26/4/26 23/1/23 25/3/25
f  23/1/23 27/5/23 24/2/24
f  27/5/23 28/6/24 24/2/24
f  24/2/24 29/7/27 30/8/28
f  25/3/25 24/2/24 30/8/28
f  24/2/24 28/6/24 29/7/27
f  27/5/23 31/9/29 28/6/24
f  31/9/29 32/10/25 28/6/24
f  28/6/24 33/11/27 29/7/27
f  28/6/24 32/10/25 33/11/27
f  29/7/27 34/12/30 35/13/31
f  30/8/28 29/7/27 35/13/31
f  29/7/27 33/11/27 34/12/30
f  33/11/27 36/14/10 34/12/30
f  33/11/27 37/15/28 38/16/16
f  32/10/25 37/15/28 33/11/27
f  34/12/30 39/17/32 40/18/33
f  35/13/31 34/12/30 40/18/33
f  34/12/30 36/14/10 39/17/32
f  36/14/10 41/19/34 39/17/32
f  36/14/10 38/16/16 41/19/34
f  33/11/27 38/16/16 36/14/10
f  39/17/32 42/20/35 43/21/36
f  40/18/33 39/17/32 43/21/36
f  39/17/32 41/19/34 42/20/35
f  41/19/34 44/22/35 42/20/35
f  38/16/16 45/23/37 41/19/34
f  38/16/16 10/24/10 45/23/37
f  11/25/11 10/24/10 38/16/16
f  37/15/28 11/25/11 38/16/16
f  41/19/34 45/23/37 44/22/35
f  45/23/37 46/26/36 44/22/35
f  45/23/37 9/27/9 46/26/36
f  10/24/10 9/27/9 45/23/37
f  9/27/9 8/28/8 46/26/36
f  2/29/2 11/25/11 37/15/28
f  32/10/25 2/29/2 37/15/28
f  3/30/3 2/29/2 32/10/25
f  31/9/29 3/30/3 32/10/25
f  3/31/3 1/31/1 2/31/2
f  4/31/4 1/31/1 3/31/3
f  2/31/2 1/31/1 11/31/11
f  47/17/38 23/20/23 26/21/26
f  48/18/39 47/17/38 26/21/26
f  47/17/38 49/19/40 23/20/23
f  50/12/41 47/17/38 48/18/39
f  51/14/41 49/19/40 47/17/38
f  50/12/41 51/14/41 47/17/38
f  49/19/40 27/22/23 23/20/23
f  51/14/41 52/16/42 49/19/40
f  53/11/43 51/14/41 50/12/41
f  54/15/22 52/16/42 51/14/41
f  53/11/43 54/15/22 51/14/41
f  55/13/42 50/12/41 48/18/39
f  56/7/43 50/12/41 55/13/42
f  56/7/43 53/11/43 50/12/41
f  57/6/44 53/11/43 56/7/43
f  58/10/45 54/15/22 53/11/43
f  57/6/44 58/10/45 53/11/43
f  54/15/22 6/25/6 52/16/42
f  7/29/7 6/25/6 54/15/22
f  58/10/45 7/29/7 54/15/22
f  46/9/36 58/10/45 57/6/44
f  8/30/8 7/29/7 58/10/45
f  46/9/36 8/30/8 58/10/45
f  44/5/35 46/9/36 57/6/44
f  59/2/44 57/6/44 56/7/43
f  44/5/35 57/6/44 59/2/44
f  60/8/46 56/7/43 55/13/42
f  59/2/44 56/7/43 60/8/46
f  61/3/45 59/2/44 60/8/46
f  42/1/35 59/2/44 61/3/45
f  42/1/35 44/5/35 59/2/44
f  43/4/36 42/1/35 61/3/45
f  6/25/6 5/24/5 52/16/42
f  5/24/5 4/27/4 62/23/39
f  52/16/42 5/24/5 62/23/39
f  52/16/42 62/23/39 49/19/40
f  62/23/39 31/26/29 27/22/23
f  49/19/40 62/23/39 27/22/23
f  62/23/39 4/27/4 31/26/29
f  4/27/4 3/28/3 31/26/29
f  5/31/5 1/31/1 4/31/4
f  6/31/6 1/31/1 5/31/5
f  7/31/7 1/31/1 6/31/6
f  8/31/8 1/31/1 7/31/7
f  9/31/9 1/31/1 8/31/8
f  10/31/10 1/31/1 9/31/9
f  11/31/11 1/31/1 10/31/10
f  61/32/45 63/33/47 64/34/48
f  64/34/48 43/35/36 61/32/45
f  63/33/47 61/32/45 60/36/46
f  60/36/46 65/37/49 63/33/47
f  63/33/47 66/38/44 67/39/35
f  67/39/35 64/34/48 63/33/47
f  66/38/44 63/33/47 65/37/49
f  43/35/36 64/34/48 68/40/50
f  64/34/48 67/39/35 69/41/32
f  69/41/32 68/40/50 64/34/48
f  68/40/50 40/42/33 43/35/36
f  40/42/33 68/40/50 70/43/51
f  68/40/50 69/41/32 71/44/51
f  71/44/51 70/43/51 68/40/50
f  72/45/37 69/41/32 67/39/35
f  69/41/32 72/45/37 73/46/31
f  73/46/31 71/44/51 69/41/32
f  74/47/35 67/39/35 66/38/44
f  67/39/35 74/47/35 72/45/37
f  75/48/37 72/45/37 74/47/35
f  72/45/37 75/48/37 76/49/31
f  76/49/31 73/46/31 72/45/37
f  71/44/51 73/46/31 77/50/27
f  73/46/31 76/49/31 78/51/52
f  78/51/52 77/50/27 73/46/31
f  70/43/51 71/44/51 79/52/27
f  77/50/27 79/52/27 71/44/51
f  79/52/27 77/50/27 80/53/53
f  77/50/27 78/51/52 81/54/25
f  81/54/25 80/53/53 77/50/27
f  17/55/17 78/51/52 76/49/31
f  78/51/52 17/55/17 18/56/18
f  18/56/18 81/54/25 78/51/52
f  16/57/16 76/49/31 75/48/37
f  76/49/31 16/57/16 17/55/17
f  13/58/13 17/55/17 16/57/16
f  13/58/13 18/56/18 17/55/17
f  81/54/25 18/56/18 19/59/19
f  13/58/13 19/59/19 18/56/18
f  80/53/53 81/54/25 82/60/29
f  19/59/19 82/60/29 81/54/25
f  82/60/29 19/59/19 20/61/20
f  82/60/29 83/62/23 80/53/53
f  83/62/23 82/60/29 84/63/54
f  20/61/20 84/63/54 82/60/29
f  85/64/55 80/53/53 83/62/23
f  83/62/23 86/65/56 85/64/55
f  86/65/56 83/62/23 87/66/54
f  84/63/54 87/66/54 83/62/23
f  88/67/57 79/52/27 85/64/55
f  85/64/55 89/68/58 88/67/57
f  89/68/58 85/64/55 86/65/56
f  80/53/53 85/64/55 79/52/27
f  86/65/56 90/69/56 89/68/58
f  90/69/56 86/65/56 91/70/38
f  87/66/54 91/70/38 86/65/56
f  30/71/28 88/67/57 89/68/58
f  89/68/58 25/72/25 30/71/28
f  25/72/25 89/68/58 90/69/56
f  90/69/56 26/73/26 25/72/25
f  26/73/26 90/69/56 92/74/59
f  91/70/38 92/74/59 90/69/56
f  92/74/59 48/75/39 26/73/26
f  88/67/57 30/71/28 35/76/31
f  70/43/51 35/76/31 40/42/33
f  35/76/31 70/43/51 88/67/57
f  79/52/27 88/67/57 70/43/51
f  13/58/13 20/61/20 19/59/19
f  75/48/37 15/77/15 16/57/16
f  13/58/13 16/57/16 15/77/15
f  74/47/35 93/78/36 75/48/37
f  15/77/15 75/48/37 93/78/36
f  93/78/36 14/79/14 15/77/15
f  13/58/13 15/77/15 14/79/14
f  13/58/13 14/79/14 12/80/12
f  94/81/45 12/80/12 14/79/14
f  14/79/14 93/78/36 94/81/45
f  95/82/60 94/81/45 93/78/36
f  93/78/36 74/47/35 95/82/60
f  66/38/44 95/82/60 74/47/35
f  96/83/43 97/84/43 95/82/60
f  95/82/60 66/38/44 96/83/43
f  94/81/45 95/82/60 97/84/43
f  97/84/43 98/85/22 94/81/45
f  12/80/12 94/81/45 98/85/22
f  98/85/22 22/86/22 12/80/12
f  13/58/13 12/80/12 22/86/22
f  99/87/61 100/88/42 98/85/22
f  98/85/22 97/84/43 99/87/61
f  22/86/22 98/85/22 100/88/42
f  101/89/41 99/87/61 97/84/43
f  97/84/43 96/83/43 101/89/41
f  91/90/38 87/91/54 99/87/61
f  99/87/61 101/89/41 91/90/38
f  100/88/42 99/87/61 87/91/54
f  87/91/54 84/92/54 100/88/42
f  21/93/21 100/88/42 84/92/54
f  100/88/42 21/93/21 22/86/22
f  84/92/54 20/94/20 21/93/21
f  92/95/59 91/90/38 101/89/41
f  101/89/41 102/96/62 92/95/59
f  102/96/62 101/89/41 96/83/43
f  48/31/39 92/95/59 102/96/62
f  102/96/62 55/97/42 48/31/39
f  55/97/42 102/96/62 65/37/49
f  96/83/43 65/37/49 102/96/62
f  65/37/49 96/83/43 66/38/44
f  65/37/49 60/36/46 55/97/42
f  13/58/13 22/86/22 21/93/21
f  13/58/13 21/93/21 20/94/20

