# File produced by Open Asset Import Library (http://www.assimp.sf.net)
# (assimp v3.1.187496374)

mtllib green.obj.mtl

# 113 vertex positions
v  -0.0401154 30.6827 -0.0118084
v  0.867058 11.2134 0.883701
v  0.867058 11.2134 -0.90732
v  -0.94729 11.2134 -0.90732
v  -0.94729 11.2134 0.883701
v  -11.6519 19.8194 -4.66846
v  -11.6519 17.2799 5.54036
v  -0.221552 12.342 -0.0118084
v  -22.538 15.728 0.704599
v  -4.75742 17.421 11.0925
v  5.40293 17.2799 11.0925
v  -0.0401154 12.6242 -0.370012
v  0.685623 15.4458 22.0178
v  11.5717 17.421 5.00305
v  11.9346 17.2799 -5.02667
v  0.141319 12.6242 -0.0118084
v  22.6392 15.4458 -0.0118084
v  5.04006 19.8194 -11.6534
v  -5.12029 17.2799 -11.8326
v  -0.0401154 12.6242 -0.19091
v  -0.0401154 15.4458 -22.5787
v  -10.019 23.9108 5.00305
v  -3.30594 23.6286 11.0925
v  -0.0401154 16.9978 0.167294
v  -12.922 18.5497 15.5701
v  4.67719 23.9108 9.83881
v  10.6645 23.6286 3.03293
v  -0.221552 17.2799 -0.19091
v  15.2004 18.2675 12.8835
v  10.4831 23.9108 -4.66846
v  3.77002 21.3713 -10.937
v  0.141319 17.2799 -0.0118084
v  13.5675 18.2675 -15.0564
v  -4.57599 23.9108 -10.2206
v  -10.9262 21.3713 -3.59385
v  -0.0401154 17.2799 -0.0118084
v  -15.0992 18.2675 -13.4445
v  -8.38612 26.5914 -2.51924
v  -7.66038 26.4503 4.64485
v  -0.0401154 21.2302 -0.0118084
v  -15.8249 22.3589 2.13742
v  -2.39877 26.5914 8.22689
v  4.67719 26.4503 7.33138
v  -0.0401154 21.3713 -0.370012
v  2.1371 22.2178 15.391
v  8.48732 26.5914 2.67472
v  7.94302 24.6162 -4.48936
v  0.141319 21.3713 -0.0118084
v  15.9261 22.2178 -1.80283
v  2.68141 26.5914 -8.42961
v  -4.39455 24.6162 -7.8923
v  -0.0401154 21.3713 -0.0118084
v  -1.67303 22.2178 -15.7728
v  -12.1962 21.2302 3.03293
v  -6.2089 18.6907 11.2716
v  -0.0401154 13.7529 0.167294
v  -17.8207 17.1388 13.9582
v  2.68141 18.9729 11.8089
v  11.0274 18.6907 5.89856
v  -0.221552 14.035 -0.370012
v  13.5675 16.8567 17.5402
v  12.4789 18.9729 -2.69834
v  6.67297 18.6907 -11.1161
v  0.141319 14.035 -0.0118084
v  18.4662 16.8567 -13.4445
v  -2.76164 21.2302 -12.3699
v  -11.1076 18.6907 -6.45949
v  -0.0401154 14.035 -0.0118084
v  -13.4663 16.8567 -18.2802
v  -6.02747 30.2595 1.95831
v  -2.5802 30.1184 5.89856
v  -0.0401154 24.8984 0.167294
v  -8.38612 29.1308 7.68958
v  1.95567 30.2595 5.89856
v  5.94723 30.1184 2.49562
v  -0.0401154 25.0395 -0.19091
v  7.58015 28.9898 8.22689
v  6.3101 30.2595 -1.80283
v  3.04428 28.8487 -5.92218
v  0.141319 25.0395 -0.0118084
v  8.85019 28.9898 -7.5341
v  -1.85446 30.2595 -6.10128
v  -5.84603 28.8487 -2.87744
v  -0.0401154 25.0395 -0.0118084
v  -7.47894 28.9898 -8.60871
v  -2.39877 34.0687 3.03293
v  0.504189 34.0687 3.92844
v  0.141319 28.8487 -0.0118084
v  -1.67303 35.0563 6.25677
v  2.86284 34.0687 2.49562
v  3.95145 34.0687 -0.549116
v  -0.0401154 28.9898 -0.0118084
v  6.12867 35.0563 1.77921
v  2.68141 34.0687 -2.87744
v  -0.221552 33.2222 -3.95205
v  0.141319 28.9898 -0.0118084
v  2.1371 35.0563 -6.28038
v  -2.76164 34.0687 -2.69834
v  -3.85025 33.2222 0.346395
v  -6.02747 35.0563 -1.98193
v  -0.0401154 12.201 -0.19091
v  -0.0401154 12.201 6.43587
v  5.7658 12.201 3.21203
v  5.7658 12.201 -3.41475
v  -0.0401154 12.201 -6.81769
v  -5.84603 12.201 -3.41475
v  -5.84603 12.201 3.21203
v  -0.0401154 -0.0732166 5.18215
v  4.67719 -0.0732166 2.49562
v  4.67719 -0.0732166 -2.87744
v  -0.0401154 -0.0732166 -5.38487
v  -4.57599 -0.0732166 -2.87744
v  -4.57599 -0.0732166 2.49562

# 24 UV coordinates
vt 0.0820312 0.19685 0
vt 0.421875 0.850394 0
vt 0.417969 0.858268 0
vt 0.421875 0.84252 0
vt 0.429688 0.834646 0
vt 0 1 0
vt 0.496094 0 0
vt 0.496094 1 0
vt 0 0 0
vt 0.65625 0.251969 0
vt 0.792969 0.251969 0
vt 0.722656 0.496063 0
vt 0.585938 0.496063 0
vt 0.519531 0.251969 0
vt 0.585938 0.00787401 0
vt 0.722656 0.00787401 0
vt 0.996094 1 0
vt 0.996094 0.503937 0
vt 0.835938 0.503937 0
vt 0.835938 1 0
vt 0.671875 0.503937 0
vt 0.671875 1 0
vt 0.507812 0.503937 0
vt 0.507812 1 0

# 43 vertex normals
vn 0 1 0
vn 0.716567 0.147621 0.681718
vn 0.716567 0.147621 -0.681718
vn -0.716567 0.147621 -0.681718
vn -0.716567 0.147621 0.681718
vn 0.16246 0.951056 0.262866
vn 0.442863 0.864188 0.238856
vn -0.16246 0.951056 0.262866
vn 0 0.850651 -0.525731
vn -0.295242 0.955423 0
vn 0.295242 0.955423 0
vn -0.309017 0.809017 0.5
vn -0.16246 0.951056 -0.262866
vn 0.309017 0.809017 -0.5
vn -0.442863 0.864188 -0.238856
vn -0.442863 0.864188 0.238856
vn 0.309017 0.809017 0.5
vn -0.525731 0.850651 0
vn 0.525731 0.850651 0
vn 0 0.850651 0.525731
vn 0.442863 0.864188 -0.238856
vn -0.309017 0.809017 -0.5
vn 0.16246 0.951056 -0.262866
vn 0.587785 0.688191 -0.425325
vn -0.681718 0.716567 0.147621
vn 0.147621 0.681718 -0.716567
vn 0.238856 0.442863 -0.864188
vn -0.681718 0.716567 -0.147621
vn -0.809017 0.5 -0.309017
vn -0.425325 0.587785 0.688191
vn 0.587785 0.688191 0.425325
vn 0.262866 -0.16246 0.951056
vn -0.262866 -0.16246 0.951056
vn 0.716567 -0.147621 0.681718
vn 0.955423 0 0.295242
vn 0.955423 0 -0.295242
vn 0.716567 -0.147621 -0.681718
vn 0.262866 -0.16246 -0.951056
vn -0.262866 -0.16246 -0.951056
vn -0.716567 -0.147621 -0.681718
vn -0.955423 0 -0.295242
vn -0.955423 0 0.295242
vn -0.716567 -0.147621 0.681718

# Mesh '' with 70 faces
usemtl DefaultMaterial
f  1/1/1 2/2/2 3/3/3
f  1/1/1 4/4/4 5/5/5
f  1/1/1 5/5/5 2/2/2
f  1/1/1 3/3/3 4/4/4
f  6/6/6 7/7/6 8/8/7
f  9/9/8 7/7/6 6/6/6
f  10/6/1 11/7/1 12/8/9
f  13/9/1 11/7/1 10/6/1
f  14/6/1 15/7/1 16/8/10
f  17/9/11 15/7/1 14/6/1
f  18/6/10 19/7/10 20/8/12
f  21/9/13 19/7/10 18/6/10
f  22/6/1 23/7/1 24/8/14
f  25/9/12 23/7/1 22/6/1
f  26/6/1 27/7/1 28/8/15
f  29/9/7 27/7/1 26/6/1
f  30/6/13 31/7/13 32/8/16
f  33/9/9 31/7/13 30/6/13
f  34/6/8 35/7/8 36/8/17
f  37/9/18 35/7/8 34/6/8
f  38/6/1 39/7/1 40/8/19
f  41/9/18 39/7/1 38/6/1
f  42/6/1 43/7/1 44/8/9
f  45/9/20 43/7/1 42/6/1
f  46/6/13 47/7/13 48/8/15
f  49/9/21 47/7/13 46/6/13
f  50/6/10 51/7/10 52/8/12
f  53/9/22 51/7/10 50/6/10
f  54/6/11 55/7/11 56/8/19
f  57/9/8 55/7/11 54/6/11
f  58/6/1 59/7/1 60/8/13
f  61/9/6 59/7/1 58/6/1
f  62/6/1 63/7/1 64/8/16
f  65/9/23 63/7/1 62/6/1
f  66/6/8 67/7/8 68/8/20
f  69/9/10 67/7/8 66/6/8
f  70/6/23 71/7/23 72/8/24
f  73/9/8 71/7/23 70/6/23
f  74/6/13 75/7/13 76/8/22
f  77/9/6 75/7/13 74/6/13
f  78/6/10 79/7/10 80/8/25
f  81/9/13 79/7/10 78/6/10
f  82/6/20 83/7/20 84/8/17
f  85/9/10 83/7/20 82/6/20
f  86/6/26 87/7/26 88/8/27
f  89/9/23 87/7/26 86/6/26
f  90/6/28 91/7/28 92/8/29
f  93/9/10 91/7/28 90/6/28
f  94/6/12 95/7/12 96/8/30
f  97/9/16 95/7/12 94/6/12
f  98/6/31 99/7/31 96/8/31
f  100/9/17 99/7/31 98/6/31
f  101/10/1 102/11/1 103/12/1
f  101/10/1 103/12/1 104/13/1
f  101/10/1 104/13/1 105/14/1
f  101/10/1 105/14/1 106/15/1
f  101/10/1 106/15/1 107/16/1
f  101/10/1 107/16/1 102/11/1
f  102/17/32 108/18/33 109/19/34
f  102/17/32 109/19/34 103/20/35
f  103/20/35 109/19/34 110/21/36
f  103/20/35 110/21/36 104/22/37
f  104/22/37 110/21/36 111/23/38
f  104/22/37 111/23/38 105/24/39
f  105/24/39 111/23/38 112/21/40
f  105/24/39 112/21/40 106/22/41
f  106/22/41 112/21/40 113/19/42
f  106/22/41 113/19/42 107/20/43
f  107/20/43 113/19/42 108/18/33
f  107/20/43 108/18/33 102/17/32

