# File produced by Open Asset Import Library (http://www.assimp.sf.net)
# (assimp v3.1.187496374)

mtllib bed.obj.mtl

# 64 vertex positions
v  39.7888 -6.34259 20.5736
v  39.7888 -6.34259 -19.7547
v  39.7888 1.2615 -19.7547
v  39.7888 1.2615 20.5736
v  -36.0547 -6.34259 20.5736
v  -36.0547 1.2615 20.5736
v  -36.0547 1.2615 -19.7547
v  -36.0547 -6.34259 -19.7547
v  -36.6815 -6.45958 -17.8908
v  -36.6815 -6.45958 -20.9409
v  -38.5619 -6.45958 -20.0936
v  -38.2485 -6.45958 -17.8908
v  -36.6815 -6.45958 22.2681
v  -36.6815 -6.45958 19.8958
v  -38.2485 -6.45958 19.8958
v  -38.5619 -6.45958 22.2681
v  41.3559 -6.45958 22.2681
v  41.0424 -6.45958 19.8958
v  39.162 -6.45958 19.8958
v  39.162 -6.45958 22.2681
v  41.0424 -6.45958 -17.8908
v  41.3559 -6.45958 -20.0936
v  39.162 -6.45958 -20.9409
v  39.162 -6.45958 -17.8908
v  41.0424 -9.73519 -17.8908
v  41.3559 -9.73519 -20.0936
v  41.0424 -9.73519 19.8958
v  41.3559 -9.73519 22.2681
v  39.162 -9.73519 -20.9409
v  39.162 -9.73519 22.2681
v  -38.2485 -9.73519 19.8958
v  -38.5619 -9.73519 22.2681
v  -38.2485 -9.73519 -17.8908
v  -38.5619 -9.73519 -20.0936
v  -36.6815 -9.73519 22.2681
v  -36.6815 -9.73519 -20.9409
v  41.0424 -24.4754 -17.8908
v  41.3559 -24.4754 -20.0936
v  39.162 -24.4754 -20.9409
v  39.162 -24.4754 -17.8908
v  39.162 -9.73519 -17.8908
v  39.162 -24.4754 19.8958
v  39.162 -24.4754 22.2681
v  39.162 -9.73519 19.8958
v  41.0424 -24.4754 19.8958
v  41.3559 -24.4754 22.2681
v  -36.6815 -24.4754 22.2681
v  -36.6815 -24.4754 19.8958
v  -36.6815 -9.73519 19.8958
v  -38.2485 -24.4754 19.8958
v  -38.5619 -24.4754 22.2681
v  -38.5619 -24.4754 -20.0936
v  -38.2485 -24.4754 -17.8908
v  -36.6815 -24.4754 -20.9409
v  -36.6815 -24.4754 -17.8908
v  -36.6815 -9.73519 -17.8908
v  -21.3247 1.02752 11.5929
v  -21.3247 1.02752 -9.92683
v  -23.2051 5.35601 -7.55457
v  -23.2051 5.35601 8.88178
v  -32.6072 1.02752 -9.92683
v  -30.7268 5.35601 -7.55457
v  -32.6072 1.02752 11.5929
v  -30.7268 5.35601 8.88178

# 48 UV coordinates
vt 0.0078125 0.234375 0
vt 0.40625 0.234375 0
vt 0.40625 0.390625 0
vt 0.0078125 0.390625 0
vt 0.34375 0.992188 0
vt 0.34375 0.429688 0
vt 0.671875 0.429688 0
vt 0.671875 0.992188 0
vt 0.320312 0.429688 0
vt 0.0078125 0.992188 0
vt 0.320312 0.992188 0
vt 0.0078125 0.429688 0
vt 0.703125 0.96875 0
vt 0.6875 0.96875 0
vt 0.6875 0.984375 0
vt 0.703125 0.984375 0
vt 0.984375 0.96875 0
vt 0.96875 0.96875 0
vt 0.96875 0.984375 0
vt 0.984375 0.984375 0
vt 0.984375 0.445312 0
vt 0.96875 0.445312 0
vt 0.96875 0.460938 0
vt 0.984375 0.460938 0
vt 0.703125 0.445312 0
vt 0.6875 0.445312 0
vt 0.6875 0.460938 0
vt 0.703125 0.460938 0
vt 0.578125 0.328125 0
vt 0.523438 0.328125 0
vt 0.523438 0.390625 0
vt 0.578125 0.390625 0
vt 0.929688 0.328125 0
vt 0.929688 0.390625 0
vt 0.984375 0.328125 0
vt 0.984375 0.390625 0
vt 0.5 0.015625 0
vt 0.429688 0.015625 0
vt 0.429688 0.390625 0
vt 0.5 0.390625 0
vt 0.0078125 0.210938 0
vt 0.40625 0.210938 0
vt 0.34375 0.179688 0
vt 0.0703125 0.179688 0
vt 0.40625 0.015625 0
vt 0.34375 0.046875 0
vt 0.0078125 0.015625 0
vt 0.0703125 0.046875 0

# 48 vertex normals
vn 0.587785 -0.688191 0.425325
vn 0.688191 -0.425325 -0.587785
vn 0.688191 0.425325 -0.587785
vn 0.425325 0.587785 0.688191
vn -0.688191 -0.425325 0.587785
vn -0.688191 0.425325 0.587785
vn -0.587785 0.688191 -0.425325
vn -0.425325 -0.587785 -0.688191
vn 0.442863 0.864188 0.238856
vn -0.147621 0.681718 -0.716567
vn -0.442863 0.864188 -0.238856
vn -0.951056 0.262866 0.16246
vn -0.147621 0.681718 0.716567
vn 0.16246 0.951056 -0.262866
vn -0.681718 0.716567 -0.147621
vn -0.809017 0.5 0.309017
vn 0.681718 0.716567 -0.147621
vn 0.681718 0.716567 0.147621
vn 0.809017 0.5 -0.309017
vn 0.147621 0.681718 -0.716567
vn -0.16246 0.951056 0.262866
vn 0.688191 -0.425325 0.587785
vn 0.850651 0 -0.525731
vn 0.951056 -0.262866 -0.16246
vn 0.716567 0.147621 0.681718
vn 0 -0.295242 -0.955423
vn -0.5 -0.309017 0.809017
vn -0.688191 -0.425325 -0.587785
vn -0.716567 0.147621 0.681718
vn -0.951056 -0.262866 0.16246
vn -0.850651 0 -0.525731
vn 0.238856 -0.442863 0.864188
vn 0.262866 -0.16246 -0.951056
vn 0.850651 0 0.525731
vn 0.716567 -0.147621 -0.681718
vn -0.525731 0 0.850651
vn -0.809017 -0.5 0.309017
vn 0.525731 0 -0.850651
vn 0.955423 0 0.295242
vn 0.809017 -0.5 -0.309017
vn -0.955423 0 -0.295242
vn 0 0 -1
vn 0.425325 -0.587785 0.688191
vn 0.864188 -0.238856 0.442863
vn 0.587785 0.688191 -0.425325
vn 0.309017 0.809017 0.5
vn -0.5 -0.309017 -0.809017
vn -0.442863 0.864188 0.238856

# Mesh '' with 112 faces
usemtl $Material_0
f  1/1/1 2/2/2 3/3/3
f  3/3/3 4/4/4 1/1/1
f  5/1/5 1/2/1 4/3/4
f  4/3/4 6/4/6 5/1/5
f  5/1/5 6/4/6 7/3/7
f  7/3/7 8/2/8 5/1/5
f  8/1/8 7/4/7 3/3/3
f  3/3/3 2/2/2 8/1/8
f  8/5/8 2/6/2 1/7/1
f  1/7/1 5/8/5 8/5/8
f  4/9/4 7/10/7 6/11/6
f  4/9/4 3/12/3 7/10/7
f  9/13/9 10/14/10 11/15/11
f  11/15/11 12/16/12 9/13/9
f  13/17/13 14/18/14 15/19/15
f  15/19/15 16/20/16 13/17/13
f  17/21/4 18/22/17 19/23/11
f  19/23/11 20/24/13 17/21/4
f  21/25/18 22/26/19 23/27/20
f  21/25/18 23/27/20 24/28/21
f  18/26/17 21/21/18 24/23/21
f  10/20/10 9/18/9 24/23/21
f  24/23/21 23/21/20 10/20/10
f  14/13/14 9/18/9 11/20/11
f  14/13/14 13/14/13 20/26/13
f  24/23/21 19/28/11 18/26/17
f  11/20/11 15/13/15 14/15/14
f  25/29/22 26/30/23 22/31/19
f  22/31/19 21/32/18 25/29/22
f  27/33/24 25/29/22 21/32/18
f  21/32/18 18/34/17 27/33/24
f  28/35/25 27/33/24 18/34/17
f  18/34/17 17/36/4 28/35/25
f  26/35/23 29/33/26 23/34/20
f  23/34/20 22/36/19 26/35/23
f  30/29/27 28/30/25 17/31/4
f  17/31/4 20/32/13 30/29/27
f  31/33/28 32/35/29 16/36/16
f  16/36/16 15/34/15 31/33/28
f  33/29/30 31/33/28 15/34/15
f  15/34/15 12/32/12 33/29/30
f  34/30/31 33/29/30 12/32/12
f  12/32/12 11/31/11 34/30/31
f  32/35/29 35/33/32 13/34/13
f  13/34/13 16/36/16 32/35/29
f  36/29/33 34/30/31 11/31/11
f  11/31/11 10/32/10 36/29/33
f  35/30/32 30/35/27 20/36/13
f  20/36/13 13/31/13 35/30/32
f  20/26/13 19/28/11 14/13/14
f  10/31/10 23/36/20 29/35/26
f  29/35/26 36/30/33 10/31/10
f  37/37/34 38/38/35 26/39/23
f  26/39/23 25/40/22 37/37/34
f  38/37/35 39/38/31 29/39/26
f  29/39/26 26/40/23 38/37/35
f  40/38/36 37/37/34 25/40/22
f  40/38/36 25/40/22 41/39/37
f  39/38/31 40/37/36 41/40/37
f  41/40/37 29/39/26 39/38/31
f  42/38/31 43/37/36 30/40/27
f  30/40/27 44/39/8 42/38/31
f  45/37/38 42/38/31 44/39/8
f  44/39/8 27/40/24 45/37/38
f  43/38/36 46/37/39 28/40/25
f  28/40/25 30/39/27 43/38/36
f  46/37/39 45/38/38 27/39/24
f  27/39/24 28/40/25 46/37/39
f  47/37/34 48/38/38 49/39/40
f  49/39/40 35/40/32 47/37/34
f  48/37/38 50/38/31 31/39/28
f  31/39/28 49/40/40 48/37/38
f  51/38/36 47/37/34 35/40/32
f  35/40/32 32/39/29 51/38/36
f  50/38/31 51/37/36 32/40/29
f  32/40/29 31/39/28 50/38/31
f  52/38/41 53/37/36 33/40/30
f  33/40/30 34/39/31 52/38/41
f  54/37/42 52/38/41 34/39/31
f  34/39/31 36/40/33 54/37/42
f  53/38/36 55/37/34 56/40/43
f  56/40/43 33/39/30 53/38/36
f  55/37/34 54/38/42 36/39/33
f  36/39/33 56/40/43 55/37/34
f  44/35/8 49/30/40 14/31/14
f  14/31/14 19/36/11 44/35/8
f  41/29/37 44/33/8 19/34/11
f  19/34/11 24/32/21 41/29/37
f  56/30/43 41/35/37 24/36/21
f  24/36/21 9/31/9 56/30/43
f  49/33/40 56/29/43 9/32/9
f  9/32/9 14/34/14 49/33/40
f  44/25/8 30/26/27 35/14/32
f  35/14/32 49/15/40 44/25/8
f  56/18/43 49/15/40 31/13/28
f  29/21/26 41/22/37 56/18/43
f  56/18/43 36/20/33 29/21/26
f  31/13/28 33/20/30 56/18/43
f  25/21/22 27/26/24 44/25/8
f  44/25/8 41/22/37 25/21/22
f  57/41/44 58/42/35 59/43/45
f  59/43/45 60/44/46 57/41/44
f  61/45/47 62/46/11 59/43/45
f  59/43/45 58/42/35 61/45/47
f  60/44/46 59/43/45 62/46/11
f  63/47/6 57/41/44 60/44/46
f  60/44/46 64/48/48 63/47/6
f  60/44/46 62/46/11 64/48/48
f  63/47/6 64/48/48 62/46/11
f  62/46/11 61/45/47 63/47/6
f  57/41/44 63/47/6 61/45/47
f  61/45/47 58/42/35 57/41/44

