# File produced by Open Asset Import Library (http://www.assimp.sf.net)
# (assimp v3.1.187496374)

mtllib spear.obj.mtl

# 122 vertex positions
v  0.302427 53.4561 5.27933
v  0.302427 53.4561 -4.1551
v  0.0927734 67.1416 0.352459
v  -0.536188 53.4561 5.27933
v  -0.536188 53.4561 -4.1551
v  -4.83409 53.4561 0.66694
v  4.60033 53.4561 0.771767
v  -0.0120535 67.1416 0.352459
v  -4.83409 53.4561 -0.171676
v  4.60033 53.4561 -0.0668488
v  0.1976 50.5235 3.81175
v  0.1976 50.5235 -2.79235
v  0.0927734 55.737 0.352459
v  -0.431361 50.1977 -2.79235
v  -0.431361 50.1977 3.81175
v  -3.36652 50.5235 0.562113
v  3.23758 50.5235 0.66694
v  -0.0120535 55.737 0.352459
v  3.23758 50.1977 0.0379782
v  -3.36652 50.1977 -0.0668488
v  0.721735 -15.9486 0.352459
v  -0.11688 -15.9486 -0.486156
v  -0.11688 55.737 -0.486156
v  0.721735 55.737 0.352459
v  -0.11688 55.737 1.08625
v  -0.11688 -15.9486 1.08625
v  -0.955496 -15.9486 0.352459
v  -0.955496 55.737 0.352459
v  7.01135 16.9616 -5.93716
v  5.6486 16.9616 -7.29991
v  5.6486 16.9616 -5.93716
v  5.6486 16.9616 -4.57441
v  4.39068 16.9616 -5.93716
v  7.01135 -15.9486 -5.93716
v  5.6486 -15.9486 -7.29991
v  4.39068 -15.9486 -5.93716
v  5.6486 -15.9486 -4.57441
v  5.6486 -15.9486 -5.93716
v  7.01135 16.9616 5.90829
v  5.6486 16.9616 4.65036
v  5.6486 16.9616 5.90829
v  5.6486 16.9616 7.27104
v  4.39068 16.9616 5.90829
v  7.01135 -15.9486 5.90829
v  5.6486 -15.9486 4.65036
v  4.39068 -15.9486 5.90829
v  5.6486 -15.9486 7.27104
v  5.6486 -15.9486 5.90829
v  -4.83409 16.9616 -5.93716
v  -6.19684 16.9616 -7.29991
v  -6.19684 16.9616 -5.93716
v  -6.19684 16.9616 -4.57441
v  -7.45476 16.9616 -5.93716
v  -4.83409 -15.9486 -5.93716
v  -6.19684 -15.9486 -7.29991
v  -7.45476 -15.9486 -5.93716
v  -6.19684 -15.9486 -4.57441
v  -6.19684 -15.9486 -5.93716
v  -4.83409 16.9616 5.90829
v  -6.19684 16.9616 4.65036
v  -6.19684 16.9616 5.90829
v  -6.19684 16.9616 7.27104
v  -7.45476 16.9616 5.90829
v  -4.83409 -15.9486 5.90829
v  -6.19684 -15.9486 4.65036
v  -7.45476 -15.9486 5.90829
v  -6.19684 -15.9486 7.27104
v  -6.19684 -15.9486 5.90829
v  13.301 11.7481 0.352459
v  9.42237 11.7481 9.78689
v  -0.0120535 11.7481 0.352459
v  9.42237 11.7481 -9.1868
v  -0.0120535 11.7481 13.6655
v  -9.5513 11.7481 9.78689
v  -13.4299 11.7481 0.247632
v  -9.5513 11.7481 -9.1868
v  -0.0120535 11.7481 -13.0654
v  13.301 14.6807 0.352459
v  9.42237 14.6807 9.78689
v  9.42237 14.6807 -9.1868
v  -0.0120535 14.6807 -13.0654
v  -9.5513 14.6807 -9.1868
v  -0.0120535 14.6807 13.6655
v  -9.5513 14.6807 9.78689
v  -13.4299 14.6807 0.247632
v  -0.0120535 14.6807 0.352459
v  13.301 -6.49909 0.352459
v  9.42237 -6.49909 9.78689
v  -0.0120535 -6.49909 0.352459
v  9.42237 -6.49909 -9.1868
v  -0.0120535 -6.49909 13.6655
v  -9.5513 -6.49909 9.78689
v  -13.4299 -6.49909 0.247632
v  -9.5513 -6.49909 -9.1868
v  -0.0120535 -6.49909 -13.0654
v  13.301 -3.5665 0.352459
v  9.42237 -3.5665 9.78689
v  9.42237 -3.5665 -9.1868
v  -0.0120535 -3.5665 -13.0654
v  -9.5513 -3.5665 -9.1868
v  -0.0120535 -3.5665 13.6655
v  -9.5513 -3.5665 9.78689
v  -13.4299 -3.5665 0.247632
v  -0.0120535 -3.5665 0.352459
v  13.301 -12.3643 0.352459
v  9.42237 -12.3643 9.78689
v  -0.0120535 -12.3643 0.352459
v  9.42237 -12.3643 -9.1868
v  -0.0120535 -12.3643 13.6655
v  -9.5513 -12.3643 9.78689
v  -13.4299 -12.3643 0.247632
v  -9.5513 -12.3643 -9.1868
v  -0.0120535 -12.3643 -13.0654
v  13.301 -9.43169 0.352459
v  9.42237 -9.43169 9.78689
v  9.42237 -9.43169 -9.1868
v  -0.0120535 -9.43169 -13.0654
v  -9.5513 -9.43169 -9.1868
v  -0.0120535 -9.43169 13.6655
v  -9.5513 -9.43169 9.78689
v  -13.4299 -9.43169 0.247632
v  -0.0120535 -9.43169 0.352459

# 49 UV coordinates
vt 0 0.726562 0
vt 0.25 0.726562 0
vt 0.125 1 0
vt 0.273438 0.726562 0
vt 0.320312 0.726562 0
vt 0.296875 1 0
vt 0.0390625 0.671875 0
vt 0.210938 0.671875 0
vt 0.125 0.773438 0
vt 0.28125 0.671875 0
vt 0.3125 0.671875 0
vt 0.296875 0.78125 0
vt 0.0703125 0.0078125 0
vt 0.125 0.0078125 0
vt 0.125 0.664062 0
vt 0.0703125 0.664062 0
vt 0.179688 0.0078125 0
vt 0.179688 0.664062 0
vt 0.257812 0.664062 0
vt 0.328125 0.59375 0
vt 0.257812 0.523438 0
vt 0.1875 0.59375 0
vt 0 1 0
vt 0.257812 0.59375 0
vt 0.3125 0.0078125 0
vt 0.257812 0.0078125 0
vt 0.3125 0.515625 0
vt 0.257812 0.515625 0
vt 0.203125 0.0078125 0
vt 0.203125 0.515625 0
vt 0.898438 0.734375 0
vt 0.804688 0.5625 0
vt 0.632812 0.734375 0
vt 0.820312 0.921875 0
vt 0.632812 0.484375 0
vt 0.453125 0.554688 0
vt 0.367188 0.734375 0
vt 0.445312 0.921875 0
vt 0.632812 0.992188 0
vt 0.882812 0.445312 0
vt 0.992188 0.445312 0
vt 0.882812 0.382812 0
vt 0.671875 0.445312 0
vt 0.671875 0.382812 0
vt 0.992188 0.382812 0
vt 0.453125 0.382812 0
vt 0.453125 0.445312 0
vt 0.351562 0.382812 0
vt 0.351562 0.445312 0

# 44 vertex normals
vn 0.716567 0.147621 0.681718
vn 0.716567 0.147621 -0.681718
vn 0 1 0
vn -0.716567 0.147621 0.681718
vn -0.716567 0.147621 -0.681718
vn 0.688191 0.425325 0.587785
vn 0.688191 0.425325 -0.587785
vn -0.525731 0.850651 0
vn -0.688191 0.425325 -0.587785
vn -0.688191 0.425325 0.587785
vn 0 0.850651 -0.525731
vn 0.5 0.309017 -0.809017
vn -0.5 0.309017 -0.809017
vn 0.951056 -0.262866 0.16246
vn -0.147621 -0.681718 -0.716567
vn 0.147621 0.681718 -0.716567
vn 0.850651 0.525731 0
vn 0 0.525731 0.850651
vn 0 -0.850651 0.525731
vn -0.809017 -0.5 0.309017
vn -0.809017 0.5 -0.309017
vn 0.681718 0.716567 -0.147621
vn -0.147621 0.681718 -0.716567
vn 0.147621 0.681718 0.716567
vn -0.681718 0.716567 0.147621
vn 0.681718 -0.716567 0.147621
vn 0.147621 -0.681718 -0.716567
vn -0.681718 -0.716567 -0.147621
vn -0.147621 -0.681718 0.716567
vn 0 -1 0
vn 0.850651 -0.525731 0
vn 0.425325 -0.587785 0.688191
vn 0.587785 -0.688191 -0.425325
vn 0 -0.525731 0.850651
vn -0.587785 -0.688191 0.425325
vn -0.850651 -0.525731 0
vn -0.425325 -0.587785 -0.688191
vn 0 -0.525731 -0.850651
vn 0.587785 0.688191 0.425325
vn 0.425325 0.587785 -0.688191
vn 0 0.525731 -0.850651
vn -0.587785 0.688191 -0.425325
vn -0.425325 0.587785 0.688191
vn -0.850651 0.525731 0

# Mesh '' with 188 faces
usemtl $Material_0
f  1/1/1 2/2/2 3/3/3
f  4/4/4 1/5/1 3/6/3
f  5/2/5 4/1/4 3/3/3
f  2/5/2 5/4/5 3/6/3
f  6/2/4 7/1/1 8/3/3
f  9/5/5 6/4/4 8/6/3
f  10/1/2 9/2/5 8/3/3
f  7/4/1 10/5/2 8/6/3
f  11/7/6 12/8/7 13/9/8
f  14/8/9 15/7/10 13/9/8
f  15/10/10 11/11/6 13/12/8
f  12/11/7 14/10/9 13/12/8
f  16/8/10 17/7/6 18/9/11
f  19/7/12 20/8/13 18/9/11
f  20/11/13 16/10/10 18/12/11
f  17/10/6 19/11/12 18/12/11
f  21/13/14 22/14/15 23/15/16
f  23/15/16 24/16/17 21/13/14
f  21/13/14 24/16/17 25/15/18
f  25/15/18 26/14/19 21/13/14
f  22/14/15 27/17/20 28/18/21
f  28/18/21 23/15/16 22/14/15
f  27/17/20 26/14/19 25/15/18
f  25/15/18 28/18/21 27/17/20
f  22/19/15 21/20/14 26/21/19
f  26/21/19 27/22/20 22/19/15
f  23/23/16 28/23/21 25/23/18
f  25/23/18 24/23/17 23/23/16
f  29/20/22 30/19/23 31/24/3
f  32/21/24 29/20/22 31/24/3
f  30/19/23 33/22/25 31/24/3
f  33/22/25 32/21/24 31/24/3
f  34/25/26 35/26/27 29/27/22
f  35/26/27 30/28/23 29/27/22
f  35/26/27 36/29/28 30/28/23
f  36/29/28 33/30/25 30/28/23
f  36/29/28 37/26/29 33/30/25
f  37/26/29 32/28/24 33/30/25
f  37/26/29 34/25/26 32/28/24
f  34/25/26 29/27/22 32/28/24
f  35/19/27 34/20/26 38/24/30
f  36/22/28 35/19/27 38/24/30
f  34/20/26 37/21/29 38/24/30
f  37/21/29 36/22/28 38/24/30
f  39/20/22 40/19/23 41/24/3
f  42/21/24 39/20/22 41/24/3
f  40/19/23 43/22/25 41/24/3
f  43/22/25 42/21/24 41/24/3
f  44/25/26 45/26/27 39/27/22
f  45/26/27 40/28/23 39/27/22
f  45/26/27 46/29/28 40/28/23
f  46/29/28 43/30/25 40/28/23
f  46/29/28 47/26/29 43/30/25
f  47/26/29 42/28/24 43/30/25
f  47/26/29 44/25/26 42/28/24
f  44/25/26 39/27/22 42/28/24
f  45/19/27 44/20/26 48/24/30
f  46/22/28 45/19/27 48/24/30
f  44/20/26 47/21/29 48/24/30
f  47/21/29 46/22/28 48/24/30
f  49/20/22 50/19/23 51/24/3
f  52/21/24 49/20/22 51/24/3
f  50/19/23 53/22/25 51/24/3
f  53/22/25 52/21/24 51/24/3
f  54/25/26 55/26/27 49/27/22
f  55/26/27 50/28/23 49/27/22
f  55/26/27 56/29/28 50/28/23
f  56/29/28 53/30/25 50/28/23
f  56/29/28 57/26/29 53/30/25
f  57/26/29 52/28/24 53/30/25
f  57/26/29 54/25/26 52/28/24
f  54/25/26 49/27/22 52/28/24
f  55/19/27 54/20/26 58/24/30
f  56/22/28 55/19/27 58/24/30
f  54/20/26 57/21/29 58/24/30
f  57/21/29 56/22/28 58/24/30
f  59/20/22 60/19/23 61/24/3
f  62/21/24 59/20/22 61/24/3
f  60/19/23 63/22/25 61/24/3
f  63/22/25 62/21/24 61/24/3
f  64/25/26 65/26/27 59/27/22
f  65/26/27 60/28/23 59/27/22
f  65/26/27 66/29/28 60/28/23
f  66/29/28 63/30/25 60/28/23
f  66/29/28 67/26/29 63/30/25
f  67/26/29 62/28/24 63/30/25
f  67/26/29 64/25/26 62/28/24
f  64/25/26 59/27/22 62/28/24
f  65/19/27 64/20/26 68/24/30
f  66/22/28 65/19/27 68/24/30
f  64/20/26 67/21/29 68/24/30
f  67/21/29 66/22/28 68/24/30
f  69/31/31 70/32/32 71/33/30
f  72/34/33 69/31/31 71/33/30
f  70/32/32 73/35/34 71/33/30
f  73/35/34 74/36/35 71/33/30
f  74/36/35 75/37/36 71/33/30
f  75/37/36 76/38/37 71/33/30
f  76/38/37 77/39/38 71/33/30
f  77/39/38 72/34/33 71/33/30
f  78/40/17 79/41/39 69/42/31
f  80/43/40 78/40/17 72/44/33
f  78/40/17 69/42/31 72/44/33
f  79/41/39 70/45/32 69/42/31
f  80/43/40 72/44/33 77/46/38
f  81/47/41 80/43/40 77/46/38
f  81/47/41 77/46/38 76/48/37
f  82/49/42 81/47/41 76/48/37
f  79/49/39 83/47/18 70/48/32
f  83/47/18 73/46/34 70/48/32
f  83/47/18 84/43/43 73/46/34
f  84/43/43 74/44/35 73/46/34
f  84/43/43 85/40/44 74/44/35
f  85/40/44 75/42/36 74/44/35
f  85/40/44 82/41/42 75/42/36
f  82/41/42 76/45/37 75/42/36
f  79/32/39 78/31/17 86/33/3
f  83/35/18 79/32/39 86/33/3
f  78/31/17 80/34/40 86/33/3
f  80/34/40 81/39/41 86/33/3
f  84/36/43 83/35/18 86/33/3
f  85/37/44 84/36/43 86/33/3
f  82/38/42 85/37/44 86/33/3
f  81/39/41 82/38/42 86/33/3
f  87/31/31 88/32/32 89/33/30
f  90/34/33 87/31/31 89/33/30
f  88/32/32 91/35/34 89/33/30
f  91/35/34 92/36/35 89/33/30
f  92/36/35 93/37/36 89/33/30
f  93/37/36 94/38/37 89/33/30
f  94/38/37 95/39/38 89/33/30
f  95/39/38 90/34/33 89/33/30
f  96/40/17 97/41/39 87/42/31
f  98/43/40 96/40/17 90/44/33
f  96/40/17 87/42/31 90/44/33
f  97/41/39 88/45/32 87/42/31
f  98/43/40 90/44/33 95/46/38
f  99/47/41 98/43/40 95/46/38
f  99/47/41 95/46/38 94/48/37
f  100/49/42 99/47/41 94/48/37
f  97/49/39 101/47/18 88/48/32
f  101/47/18 91/46/34 88/48/32
f  101/47/18 102/43/43 91/46/34
f  102/43/43 92/44/35 91/46/34
f  102/43/43 103/40/44 92/44/35
f  103/40/44 93/42/36 92/44/35
f  103/40/44 100/41/42 93/42/36
f  100/41/42 94/45/37 93/42/36
f  97/32/39 96/31/17 104/33/3
f  101/35/18 97/32/39 104/33/3
f  96/31/17 98/34/40 104/33/3
f  98/34/40 99/39/41 104/33/3
f  102/36/43 101/35/18 104/33/3
f  103/37/44 102/36/43 104/33/3
f  100/38/42 103/37/44 104/33/3
f  99/39/41 100/38/42 104/33/3
f  105/31/31 106/32/32 107/33/30
f  108/34/33 105/31/31 107/33/30
f  106/32/32 109/35/34 107/33/30
f  109/35/34 110/36/35 107/33/30
f  110/36/35 111/37/36 107/33/30
f  111/37/36 112/38/37 107/33/30
f  112/38/37 113/39/38 107/33/30
f  113/39/38 108/34/33 107/33/30
f  114/40/17 115/41/39 105/42/31
f  116/43/40 114/40/17 108/44/33
f  114/40/17 105/42/31 108/44/33
f  115/41/39 106/45/32 105/42/31
f  116/43/40 108/44/33 113/46/38
f  117/47/41 116/43/40 113/46/38
f  117/47/41 113/46/38 112/48/37
f  118/49/42 117/47/41 112/48/37
f  115/49/39 119/47/18 106/48/32
f  119/47/18 109/46/34 106/48/32
f  119/47/18 120/43/43 109/46/34
f  120/43/43 110/44/35 109/46/34
f  120/43/43 121/40/44 110/44/35
f  121/40/44 111/42/36 110/44/35
f  121/40/44 118/41/42 111/42/36
f  118/41/42 112/45/37 111/42/36
f  115/32/39 114/31/17 122/33/3
f  119/35/18 115/32/39 122/33/3
f  114/31/17 116/34/40 122/33/3
f  116/34/40 117/39/41 122/33/3
f  120/36/43 119/35/18 122/33/3
f  121/37/44 120/36/43 122/33/3
f  118/38/42 121/37/44 122/33/3
f  117/39/41 118/38/42 122/33/3

