# File produced by Open Asset Import Library (http://www.assimp.sf.net)
# (assimp v3.1.187496374)

mtllib gibs.obj.mtl

# 127 vertex positions
v  0.499941 36.1052 -1.11001
v  0.0410824 44.8469 -0.2582
v  0.805849 36.1052 0.252886
v  -0.570732 36.1052 0.593609
v  -0.723684 36.1052 -0.769285
v  1.11176 -2.64184 -1.62109
v  -11.5834 -5.00446 -2.30254
v  0.805849 -5.00446 -13.0353
v  6.77103 -5.00446 9.62279
v  11.6655 -5.00446 -6.0505
v  -4.08866 17.6767 -0.428562
v  -0.111872 14.1328 -0.2582
v  -0.264824 17.6767 -3.8358
v  -0.111872 35.3964 -0.2582
v  -4.08866 34.2151 -0.428562
v  -0.264824 34.2151 -3.8358
v  1.57061 17.6767 3.3194
v  3.10015 17.6767 -1.62109
v  1.57061 34.2151 3.3194
v  3.2531 34.2151 -1.62109
v  0.499941 -15.4 -1.11001
v  0.805849 -15.4 0.252886
v  -0.570732 -15.4 0.593609
v  -0.723684 -15.4 -0.769285
v  -10.3597 -5.00446 4.34157
v  -6.07705 -5.00446 9.28206
v  -9.74793 -5.00446 -7.92448
v  -4.08866 -6.6583 -10.3095
v  6.31217 -6.6583 -9.6281
v  0.194035 -6.6583 9.28206
v  9.37123 -6.6583 4.68229
v  13.0421 -5.00446 -0.428562
v  10.4419 -8.78466 -16.1018
v  14.2657 -9.72971 -7.24303
v  18.8543 -8.78466 -0.2582
v  16.1012 -8.78466 8.77098
v  18.7014 -15.4 -0.2582
v  20.078 -15.4 -10.3095
v  12.5833 -15.4 -19.1684
v  0.805849 -9.72971 -15.9315
v  12.4303 -15.4 -19.3387
v  -7.45363 -8.78466 -17.2944
v  1.11176 -15.4 -22.5756
v  -12.3481 -9.72971 -9.45774
v  -8.98316 -15.4 -20.5313
v  -17.3956 -8.78466 -2.4729
v  -17.8545 -15.4 -13.0353
v  -13.1129 -9.72971 5.87483
v  -17.5485 -15.4 -2.30254
v  -9.28907 -8.78466 14.3929
v  -18.9251 -15.4 8.94134
v  -0.264824 -8.78466 17.2891
v  -9.44202 -15.4 14.5633
v  -0.570732 -15.4 20.8667
v  7.8417 -9.72971 12.3486
v  11.0537 -15.4 17.9705
v  19.0073 -15.4 10.9857
v  -2.40617 17.6767 3.3194
v  -3.78275 17.6767 1.78614
v  -3.32389 22.6382 4.85266
v  -5.46524 22.6382 2.63795
v  -0.417778 17.6767 3.83048
v  -0.570732 22.6382 5.70446
v  -5.9241 22.6382 -0.428562
v  -6.38296 29.0173 3.14904
v  -7.14772 30.9074 -0.428562
v  -5.15933 22.6382 -3.15435
v  -6.84182 29.2536 -2.13218
v  -3.6298 17.6767 -2.13218
v  -5.46524 32.325 2.46759
v  -3.32389 32.325 4.85266
v  -2.40617 34.2151 3.3194
v  -3.78275 34.2151 1.61578
v  -5.46524 32.325 -1.79146
v  -0.417778 34.2151 3.83048
v  -0.570732 32.325 5.70446
v  -3.47684 34.2151 -2.30254
v  -5.15933 30.9074 -3.15435
v  3.40605 32.325 4.00084
v  3.10015 34.2151 2.12687
v  4.62968 30.9074 2.97867
v  2.79424 30.9074 6.21555
v  -0.723684 29.0173 6.897
v  -4.08866 29.0173 5.70446
v  2.48833 22.6382 5.02302
v  4.32377 29.0173 5.19338
v  4.47673 22.6382 3.14904
v  2.9472 17.6767 2.12687
v  -2.10026 17.6767 -3.49507
v  -2.86503 22.6382 -5.19869
v  -0.111872 22.6382 -5.70978
v  -3.32389 29.0173 -6.22086
v  -0.111872 29.0173 -6.73195
v  2.79424 22.6382 -4.68761
v  3.40605 29.0173 -5.70978
v  1.87652 17.6767 -3.15435
v  4.93559 22.6382 -2.4729
v  3.55901 17.6767 0.252886
v  5.5474 22.6382 0.252886
v  5.85331 29.0173 -2.98399
v  6.61807 29.0173 0.252886
v  5.5474 32.325 0.252886
v  4.93559 32.325 -2.4729
v  3.71196 34.2151 0.0825233
v  1.87652 34.2151 -3.32471
v  2.79424 32.325 -4.85797
v  -0.111872 32.325 -5.70978
v  -2.10026 34.2151 -3.49507
v  -2.86503 32.325 -5.19869
v  2.9472 29.0173 5.87483
v  5.5474 29.0173 3.66012
v  2.48833 32.325 5.02302
v  4.62968 32.325 3.14904
v  -5.9241 32.325 -0.428562
v  -6.99477 29.0173 -0.598923
v  -5.15933 32.325 -3.15435
v  -6.07705 29.0173 -3.8358
v  -10.9716 30.6711 -5.36905
v  -9.90088 31.6162 -6.0505
v  -13.4188 33.5063 -8.09484
v  -10.0538 32.5612 -5.19869
v  -11.2775 31.6162 -4.34688
v  7.53579 31.6162 7.91917
v  7.99465 32.5612 6.38591
v  8.60647 30.4349 7.06736
v  12.1244 33.5063 8.25989
v  8.75942 31.6162 5.70446

# 210 UV coordinates
vt 0 1 0
vt 0.37 0.868333 0
vt 0.493333 0.616667 0
vt 0.493333 0.968333 0
vt 0.448333 0.968333 0
vt 0.448333 0.616667 0
vt 0.405 0.968333 0
vt 0.405 0.616667 0
vt 0.618333 0.823333 0
vt 0.708333 0.823333 0
vt 0.618333 0.733333 0
vt 0.618333 0.913333 0
vt 0.528333 0.823333 0
vt 0.213333 0.781667 0
vt 0.163333 0.871667 0
vt 0.213333 0.888333 0
vt 0.125 0.833333 0
vt 0.111667 0.786667 0
vt 0.125 0.735 0
vt 0.16 0.703333 0
vt 0.213333 0.688333 0
vt 0.261667 0.871667 0
vt 0.3 0.833333 0
vt 0.311667 0.786667 0
vt 0.3 0.735 0
vt 0.265 0.703333 0
vt 0.213333 0.641667 0
vt 0.288333 0.665 0
vt 0.338333 0.711667 0
vt 0.358333 0.786667 0
vt 0.361667 0.696667 0
vt 0.303333 0.641667 0
vt 0.213333 0.61 0
vt 0.136667 0.665 0
vt 0.21 0.61 0
vt 0.0883333 0.711667 0
vt 0.12 0.641667 0
vt 0.065 0.786667 0
vt 0.0616667 0.696667 0
vt 0.085 0.856667 0
vt 0.0383333 0.786667 0
vt 0.14 0.915 0
vt 0.0616667 0.868333 0
vt 0.213333 0.935 0
vt 0.125 0.938333 0
vt 0.285 0.915 0
vt 0.213333 0.961667 0
vt 0.3 0.938333 0
vt 0.338333 0.856667 0
vt 0.361667 0.868333 0
vt 0.39 0.786667 0
vt 0.361667 0.14 0
vt 0.331667 0.14 0
vt 0.361667 0.055 0
vt 0.361667 0.251667 0
vt 0.318333 0.251667 0
vt 0.391667 0.14 0
vt 0.405 0.251667 0
vt 0.31 0.14 0
vt 0.286667 0.251667 0
vt 0.31 0.395 0
vt 0.273333 0.441667 0
vt 0.275 0.251667 0
vt 0.263333 0.403333 0
vt 0.303333 0.14 0
vt 0.318333 0.473333 0
vt 0.361667 0.473333 0
vt 0.361667 0.516667 0
vt 0.331667 0.516667 0
vt 0.283333 0.473333 0
vt 0.361667 0.545 0
vt 0.391667 0.516667 0
vt 0.405 0.473333 0
vt 0.31 0.516667 0
vt 0.303333 0.516667 0
vt 0.275 0.44 0
vt 0.413333 0.516667 0
vt 0.44 0.475 0
vt 0.42 0.516667 0
vt 0.448333 0.44 0
vt 0.45 0.44 0
vt 0.413333 0.395 0
vt 0.361667 0.395 0
vt 0.436667 0.251667 0
vt 0.461667 0.398333 0
vt 0.448333 0.251667 0
vt 0.413333 0.14 0
vt 0.42 0.14 0
vt 0.8 0.133333 0
vt 0.81 0.133333 0
vt 0.868333 0.0483333 0
vt 0.768333 0.246667 0
vt 0.783333 0.246667 0
vt 0.833333 0.133333 0
vt 0.816667 0.246667 0
vt 0.766667 0.393333 0
vt 0.806667 0.393333 0
vt 0.753333 0.4 0
vt 0.868333 0.246667 0
vt 0.868333 0.393333 0
vt 0.868333 0.133333 0
vt 0.921667 0.246667 0
vt 0.903333 0.133333 0
vt 0.928333 0.133333 0
vt 0.955 0.246667 0
vt 0.93 0.393333 0
vt 0.936667 0.133333 0
vt 0.97 0.246667 0
vt 0.971667 0.393333 0
vt 0.955 0.471667 0
vt 0.921667 0.471667 0
vt 0.97 0.438333 0
vt 0.985 0.396667 0
vt 0.936667 0.516667 0
vt 0.928333 0.516667 0
vt 0.868333 0.543333 0
vt 0.903333 0.516667 0
vt 0.868333 0.516667 0
vt 0.868333 0.471667 0
vt 0.833333 0.516667 0
vt 0.816667 0.471667 0
vt 0.81 0.516667 0
vt 0.783333 0.471667 0
vt 0.8 0.516667 0
vt 0.768333 0.438333 0
vt 0.035 0.451667 0
vt 0.0433333 0.485 0
vt 0.0683333 0.528333 0
vt 0.166667 0.528333 0
vt 0.191667 0.485 0
vt 0.2 0.45 0
vt 0.118333 0.065 0
vt 0.09 0.15 0
vt 0.118333 0.15 0
vt 0.0683333 0.15 0
vt 0.146667 0.15 0
vt 0.0766667 0.263333 0
vt 0.045 0.263333 0
vt 0.118333 0.263333 0
vt 0.158333 0.263333 0
vt 0.166667 0.15 0
vt 0.19 0.263333 0
vt 0.166667 0.406667 0
vt 0.203333 0.406667 0
vt 0.2 0.263333 0
vt 0.216667 0.406667 0
vt 0.173333 0.15 0
vt 0.158333 0.483333 0
vt 0.19 0.483333 0
vt 0.118333 0.483333 0
vt 0.118333 0.528333 0
vt 0.146667 0.528333 0
vt 0.2 0.483333 0
vt 0.118333 0.555 0
vt 0.173333 0.528333 0
vt 0.09 0.528333 0
vt 0.0766667 0.483333 0
vt 0.045 0.483333 0
vt 0.0683333 0.406667 0
vt 0.0316667 0.406667 0
vt 0.035 0.483333 0
vt 0.0183333 0.406667 0
vt 0.0616667 0.528333 0
vt 0.118333 0.406667 0
vt 0.035 0.263333 0
vt 0.0616667 0.15 0
vt 0.596667 0.0533333 0
vt 0.54 0.138333 0
vt 0.531667 0.138333 0
vt 0.563333 0.138333 0
vt 0.515 0.253333 0
vt 0.546667 0.253333 0
vt 0.5 0.253333 0
vt 0.498333 0.398333 0
vt 0.536667 0.398333 0
vt 0.596667 0.253333 0
vt 0.596667 0.398333 0
vt 0.596667 0.138333 0
vt 0.63 0.138333 0
vt 0.646667 0.253333 0
vt 0.653333 0.138333 0
vt 0.68 0.253333 0
vt 0.656667 0.398333 0
vt 0.663333 0.138333 0
vt 0.693333 0.253333 0
vt 0.695 0.398333 0
vt 0.68 0.476667 0
vt 0.646667 0.476667 0
vt 0.711667 0.398333 0
vt 0.693333 0.476667 0
vt 0.663333 0.521667 0
vt 0.653333 0.521667 0
vt 0.63 0.521667 0
vt 0.596667 0.476667 0
vt 0.546667 0.476667 0
vt 0.563333 0.521667 0
vt 0.596667 0.521667 0
vt 0.596667 0.548333 0
vt 0.54 0.521667 0
vt 0.515 0.476667 0
vt 0.531667 0.521667 0
vt 0.5 0.476667 0
vt 0.481667 0.398333 0
vt 0.956667 0.775 0
vt 0.845 0.775 0
vt 0.845 0.595 0
vt 0.956667 0.595 0
vt 0.845 0.911667 0
vt 0.736667 0.775 0
vt 0.736667 0.595 0

# 113 vertex normals
vn 0.262866 0.16246 -0.951056
vn -0.442863 0.864188 -0.238856
vn 0.955423 0 0.295242
vn -0.525731 0 0.850651
vn -0.955423 0 -0.295242
vn 0 1 0
vn 0 0.850651 -0.525731
vn -0.525731 0.850651 0
vn 0.309017 0.809017 0.5
vn 0.442863 0.864188 -0.238856
vn -0.850651 -0.525731 0
vn 0 -1 0
vn 0 -0.525731 -0.850651
vn 0.425325 -0.587785 0.688191
vn 0.809017 -0.5 -0.309017
vn 0.850651 0.525731 0
vn 0 0.525731 0.850651
vn 0.525731 -0.850651 0
vn 0 -0.850651 0.525731
vn -0.425325 0.587785 -0.688191
vn -0.809017 0.5 0.309017
vn -0.309017 -0.809017 -0.5
vn -0.442863 -0.864188 0.238856
vn 0.716567 -0.147621 -0.681718
vn 0.525731 0 0.850651
vn -0.850651 0 0.525731
vn -0.525731 0 -0.850651
vn -0.442863 0.864188 0.238856
vn -0.16246 0.951056 0.262866
vn 0.16246 0.951056 -0.262866
vn 0 0.850651 0.525731
vn 0.442863 0.864188 0.238856
vn 0.525731 0.850651 0
vn 0.309017 0.809017 -0.5
vn 0.587785 0.688191 -0.425325
vn 0.681718 0.716567 0.147621
vn 0.587785 0.688191 0.425325
vn 0.951056 0.262866 0.16246
vn 0.809017 0.5 -0.309017
vn -0.147621 0.681718 -0.716567
vn 0 0.525731 -0.850651
vn -0.309017 0.809017 -0.5
vn 0.147621 0.681718 -0.716567
vn -0.587785 0.688191 -0.425325
vn -0.850651 0.525731 0
vn -0.809017 0.5 -0.309017
vn -0.951056 0.262866 0.16246
vn -0.425325 0.587785 0.688191
vn -0.238856 0.442863 0.864188
vn 0.147621 0.681718 0.716567
vn 0.425325 0.587785 0.688191
vn -0.425325 -0.587785 0.688191
vn -0.809017 -0.5 0.309017
vn -0.5 -0.309017 0.809017
vn -0.864188 -0.238856 0.442863
vn 0 -0.525731 0.850651
vn 0 -0.295242 0.955423
vn -0.951056 -0.262866 -0.16246
vn -0.864188 0.238856 0.442863
vn -0.864188 -0.238856 -0.442863
vn -0.688191 -0.425325 -0.587785
vn -0.309017 0.809017 0.5
vn -0.681718 0.716567 0.147621
vn -0.5 0.309017 -0.809017
vn 0.262866 0.16246 0.951056
vn -0.262866 0.16246 0.951056
vn 0.5 -0.309017 0.809017
vn 0.688191 -0.425325 0.587785
vn 0.864188 -0.238856 0.442863
vn 0.809017 -0.5 0.309017
vn -0.238856 -0.442863 -0.864188
vn -0.5 -0.309017 -0.809017
vn 0 -0.295242 -0.955423
vn 0 0 -1
vn 0.5 -0.309017 -0.809017
vn 0.525731 0 -0.850651
vn 0.425325 -0.587785 -0.688191
vn 0.864188 -0.238856 -0.442863
vn 0.850651 -0.525731 0
vn 0.951056 -0.262866 0.16246
vn 0.955423 0 -0.295242
vn 0.425325 0.587785 -0.688191
vn 0.864188 0.238856 -0.442863
vn 0.5 0.309017 -0.809017
vn 0 0.295242 -0.955423
vn -0.262866 -0.16246 -0.951056
vn -0.864188 0.238856 -0.442863
vn -0.716567 -0.147621 -0.681718
vn -0.425325 -0.587785 -0.688191
vn 0.309017 -0.809017 -0.5
vn 0 -0.850651 -0.525731
vn -0.809017 -0.5 -0.309017
vn -0.442863 -0.864188 -0.238856
vn 0.442863 -0.864188 -0.238856
vn 0.850651 0 -0.525731
vn 1 0 0
vn 0.850651 0 0.525731
vn 0.442863 -0.864188 0.238856
vn 0.864188 0.238856 0.442863
vn 0.688191 0.425325 0.587785
vn 0.238856 0.442863 0.864188
vn 0.5 0.309017 0.809017
vn 0 0.295242 0.955423
vn 0 0 1
vn -0.5 0.309017 0.809017
vn -0.951056 0.262866 -0.16246
vn -0.955423 0 0.295242
vn -1 0 0
vn -0.525731 -0.850651 0
vn -0.309017 -0.809017 0.5
vn 0.309017 -0.809017 0.5
vn -0.716567 0.147621 0.681718
vn 0.809017 0.5 0.309017

# Mesh '' with 44 faces
usemtl $Material_0
l  1/1 2/1
l  3/1 2/1
l  4/1 2/1
l  5/1 2/1
l  6/1 7/1
l  6/1 8/1
l  7/1 6/1
l  8/1 6/1
l  9/1 6/1
l  10/1 6/1
l  6/1 9/1
l  6/1 10/1
l  11/2 12/2
l  13/2 12/2
l  12/2 11/2
l  12/2 13/2
l  14/2 15/2
l  14/2 16/2
l  15/2 14/2
l  16/2 14/2
l  12/2 17/2
l  12/2 18/2
l  17/2 12/2
l  18/2 12/2
l  19/2 14/2
l  20/2 14/2
l  14/2 19/2
l  14/2 20/2
l  12/2 11/2
l  12/2 13/2
l  11/2 12/2
l  13/2 12/2
l  15/2 14/2
l  16/2 14/2
l  14/2 15/2
l  14/2 16/2
l  17/2 12/2
l  18/2 12/2
l  12/2 17/2
l  12/2 18/2
l  14/2 19/2
l  14/2 20/2
l  19/2 14/2
l  20/2 14/2

# Mesh '' with 332 faces
usemtl $Material_0
f  21/3/24 1/4/1 3/5/3
f  3/5/3 22/6/25 21/3/24
f  22/6/25 3/5/3 4/7/4
f  4/7/4 23/8/26 22/6/25
f  23/3/26 4/4/4 5/5/5
f  5/5/5 24/6/27 23/3/26
f  24/6/27 5/5/5 1/7/1
f  1/7/1 21/8/24 24/6/27
f  2/9/2 3/10/3 1/11/1
f  2/9/2 4/12/4 3/10/3
f  2/9/2 5/13/5 4/12/4
f  2/9/2 1/11/1 5/13/5
f  6/14/6 25/15/28 26/16/29
f  7/17/2 25/15/28 6/14/6
f  27/18/2 7/17/2 6/14/6
f  6/14/6 28/19/7 27/18/2
f  8/20/7 28/19/7 6/14/6
f  29/21/30 8/20/7 6/14/6
f  26/16/29 30/22/31 6/14/6
f  6/14/6 30/22/31 9/23/9
f  6/14/6 9/23/9 31/24/32
f  31/24/32 32/25/33 6/14/6
f  6/14/6 32/25/33 10/26/10
f  6/14/6 10/26/10 29/21/30
f  8/20/7 29/21/30 33/27/34
f  33/27/34 29/21/30 10/26/10
f  34/28/35 10/26/10 32/25/33
f  10/26/10 34/28/35 33/27/34
f  35/29/36 32/25/33 31/24/32
f  32/25/33 35/29/36 34/28/35
f  31/24/32 36/30/37 35/29/36
f  36/30/37 31/24/32 9/23/9
f  37/31/38 35/29/36 36/30/37
f  35/29/36 37/31/38 38/32/39
f  38/32/39 34/28/35 35/29/36
f  34/28/35 38/32/39 39/33/35
f  39/33/35 33/27/34 34/28/35
f  33/27/34 40/34/40 8/20/7
f  40/34/40 33/27/34 41/35/41
f  40/34/40 42/36/42 28/19/7
f  28/19/7 8/20/7 40/34/40
f  42/36/42 40/34/40 43/37/43
f  41/35/41 43/37/43 40/34/40
f  42/36/42 44/38/44 27/18/2
f  27/18/2 28/19/7 42/36/42
f  44/38/44 42/36/42 45/39/20
f  43/37/43 45/39/20 42/36/42
f  44/38/44 46/40/45 7/17/2
f  7/17/2 27/18/2 44/38/44
f  45/39/20 47/41/46 44/38/44
f  25/15/28 7/17/2 46/40/45
f  46/40/45 48/42/21 25/15/28
f  48/42/21 46/40/45 49/43/47
f  47/41/46 49/43/47 46/40/45
f  46/40/45 44/38/44 47/41/46
f  26/16/29 25/15/28 48/42/21
f  48/42/21 50/44/48 26/16/29
f  50/44/48 48/42/21 51/45/21
f  26/16/29 50/44/48 52/46/31
f  52/46/31 30/22/31 26/16/29
f  51/45/21 53/47/4 50/44/48
f  50/44/48 53/47/4 54/48/49
f  54/48/49 52/46/31 50/44/48
f  49/43/47 51/45/21 48/42/21
f  30/22/31 52/46/31 55/49/50
f  52/46/31 54/48/49 56/50/51
f  56/50/51 55/49/50 52/46/31
f  55/49/50 9/23/9 30/22/31
f  9/23/9 55/49/50 36/30/37
f  55/49/50 56/50/51 57/51/37
f  57/51/37 36/30/37 55/49/50
f  36/30/37 57/51/37 37/31/38
f  58/52/52 59/53/53 12/54/12
f  58/52/52 60/55/54 61/56/55
f  61/56/55 59/53/53 58/52/52
f  12/54/12 62/57/56 58/52/52
f  63/58/57 60/55/54 58/52/52
f  58/52/52 62/57/56 63/58/57
f  12/54/12 59/53/53 11/59/11
f  59/53/53 61/56/55 64/60/58
f  64/60/58 11/59/11 59/53/53
f  65/61/26 61/56/55 60/55/54
f  61/56/55 65/61/26 66/62/59
f  66/62/59 64/60/58 61/56/55
f  11/59/11 64/60/58 67/63/60
f  64/60/58 66/62/59 68/64/60
f  68/64/60 67/63/60 64/60/58
f  12/54/12 11/59/11 69/65/61
f  67/63/60 69/65/61 11/59/11
f  66/62/59 65/61/26 70/66/21
f  70/66/21 71/67/48 72/68/62
f  72/68/62 73/69/63 70/66/21
f  74/70/2 70/66/21 73/69/63
f  71/67/48 70/66/21 65/61/26
f  70/66/21 74/70/2 66/62/59
f  14/71/6 73/69/63 72/68/62
f  72/68/62 75/72/31 14/71/6
f  72/68/62 71/67/48 76/73/17
f  76/73/17 75/72/31 72/68/62
f  15/74/2 73/69/63 14/71/6
f  73/69/63 15/74/2 74/70/2
f  77/75/44 15/74/2 14/71/6
f  15/74/2 77/75/44 78/76/64
f  14/71/6 75/72/31 19/77/9
f  75/72/31 76/73/17 79/78/9
f  79/78/9 19/77/9 75/72/31
f  14/71/6 19/77/9 80/79/37
f  81/80/16 80/79/37 19/77/9
f  82/81/65 79/78/9 76/73/17
f  83/82/66 76/73/17 71/67/48
f  76/73/17 83/82/66 82/81/65
f  83/82/66 84/83/4 60/55/54
f  60/55/54 63/58/57 83/82/66
f  82/81/65 83/82/66 63/58/57
f  71/67/48 84/83/4 83/82/66
f  65/61/26 84/83/4 71/67/48
f  60/55/54 84/83/4 65/61/26
f  85/84/67 63/58/57 62/57/56
f  63/58/57 85/84/67 82/81/65
f  86/85/68 82/81/65 85/84/67
f  87/86/69 85/84/67 17/87/14
f  62/57/56 17/87/14 85/84/67
f  85/84/67 87/86/69 86/85/68
f  17/87/14 62/57/56 12/54/12
f  88/88/70 17/87/14 12/54/12
f  17/87/14 88/88/70 87/86/69
f  69/89/61 89/90/71 12/91/12
f  69/89/61 67/92/60 90/93/72
f  90/93/72 89/90/71 69/89/61
f  12/91/12 89/90/71 13/94/13
f  89/90/71 90/93/72 91/95/73
f  91/95/73 13/94/13 89/90/71
f  92/96/27 90/93/72 67/92/60
f  90/93/72 92/96/27 93/97/74
f  93/97/74 91/95/73 90/93/72
f  67/92/60 68/98/60 92/96/27
f  13/94/13 91/95/73 94/99/75
f  91/95/73 93/97/74 95/100/76
f  95/100/76 94/99/75 91/95/73
f  12/91/12 13/94/13 96/101/77
f  94/99/75 96/101/77 13/94/13
f  94/99/75 97/102/78 18/103/15
f  18/103/15 96/101/77 94/99/75
f  97/102/78 94/99/75 95/100/76
f  96/101/77 18/103/15 12/91/12
f  18/103/15 98/104/79 12/91/12
f  98/104/79 18/103/15 97/102/78
f  97/102/78 99/105/80 98/104/79
f  99/105/80 97/102/78 100/106/81
f  95/100/76 100/106/81 97/102/78
f  12/91/12 98/104/79 88/107/70
f  88/107/70 98/104/79 99/105/80
f  99/105/80 87/108/69 88/107/70
f  87/108/69 99/105/80 101/109/3
f  100/106/81 101/109/3 99/105/80
f  102/110/16 101/109/3 100/106/81
f  100/106/81 103/111/39 102/110/16
f  103/111/39 100/106/81 95/100/76
f  81/112/16 86/113/68 101/109/3
f  101/109/3 102/110/16 81/112/16
f  80/114/37 81/112/16 102/110/16
f  102/110/16 104/115/33 80/114/37
f  104/115/33 102/110/16 103/111/39
f  80/114/37 104/115/33 14/116/6
f  14/116/6 104/115/33 20/117/10
f  103/111/39 20/117/10 104/115/33
f  14/116/6 20/117/10 105/118/34
f  20/117/10 103/111/39 106/119/82
f  106/119/82 105/118/34 20/117/10
f  105/118/34 16/120/7 14/116/6
f  16/120/7 105/118/34 106/119/82
f  106/119/82 107/121/41 16/120/7
f  107/121/41 106/119/82 95/100/76
f  95/100/76 106/119/82 103/111/39
f  16/120/7 108/122/42 14/116/6
f  108/122/42 16/120/7 107/121/41
f  107/121/41 109/123/20 108/122/42
f  109/123/20 107/121/41 93/97/74
f  95/100/76 93/97/74 107/121/41
f  14/116/6 108/122/42 77/124/44
f  77/124/44 108/122/42 109/123/20
f  109/123/20 78/125/64 77/124/44
f  78/125/64 109/123/20 92/96/27
f  92/96/27 68/98/60 78/125/64
f  93/97/74 92/96/27 109/123/20
f  101/109/3 86/113/68 87/108/69
f  78/126/64 74/127/2 15/128/2
f  19/129/9 79/130/9 81/131/16
f  12/132/6 59/133/39 58/134/82
f  11/135/16 59/133/39 12/132/6
f  58/134/82 62/136/41 12/132/6
f  58/134/82 59/133/39 61/137/83
f  64/138/38 61/137/83 59/133/39
f  59/133/39 11/135/16 64/138/38
f  61/137/83 60/139/84 58/134/82
f  58/134/82 60/139/84 63/140/85
f  63/140/85 62/136/41 58/134/82
f  12/132/6 62/136/41 17/141/20
f  62/136/41 63/140/85 85/142/64
f  85/142/64 17/141/20 62/136/41
f  83/143/74 63/140/85 60/139/84
f  63/140/85 83/143/74 110/144/86
f  110/144/86 85/142/64 63/140/85
f  17/141/20 85/142/64 87/145/87
f  85/142/64 110/144/86 111/146/88
f  111/146/88 87/145/87 85/142/64
f  12/132/6 17/141/20 88/147/46
f  87/145/87 88/147/46 17/141/20
f  110/144/86 83/143/74 76/148/13
f  76/148/13 112/149/89 110/144/86
f  76/148/13 71/150/77 72/151/90
f  72/151/90 75/152/91 76/148/13
f  112/149/89 76/148/13 75/152/91
f  71/150/77 76/148/13 83/143/74
f  113/153/92 112/149/89 19/129/22
f  75/152/91 19/129/22 112/149/89
f  111/146/88 110/144/86 112/149/89
f  112/149/89 113/153/92 111/146/88
f  14/154/12 75/152/91 72/151/90
f  19/129/22 75/152/91 14/154/12
f  80/155/93 19/129/22 14/154/12
f  19/129/22 80/155/93 113/153/92
f  72/151/90 73/156/94 14/154/12
f  72/151/90 71/150/77 70/157/15
f  70/157/15 73/156/94 72/151/90
f  14/154/12 73/156/94 15/128/18
f  73/156/94 70/157/15 114/158/79
f  114/158/79 15/128/18 73/156/94
f  65/159/95 70/157/15 71/150/77
f  70/157/15 65/159/95 115/160/96
f  115/160/96 114/158/79 70/157/15
f  15/128/18 114/158/79 116/161/68
f  114/158/79 115/160/96 117/162/97
f  117/162/97 116/161/68 114/158/79
f  14/154/12 15/128/18 77/163/98
f  116/161/68 77/163/98 15/128/18
f  115/160/96 65/159/95 61/137/83
f  61/137/83 64/138/38 115/160/96
f  117/162/97 115/160/96 64/138/38
f  60/139/84 61/137/83 65/159/95
f  65/159/95 84/164/76 60/139/84
f  60/139/84 84/164/76 83/143/74
f  71/150/77 84/164/76 65/159/95
f  83/143/74 84/164/76 71/150/77
f  67/165/99 64/138/38 11/135/16
f  64/138/38 67/165/99 117/162/97
f  11/135/16 69/166/100 67/165/99
f  69/166/100 11/135/16 12/132/6
f  12/167/6 89/168/101 69/169/100
f  13/170/17 89/168/101 12/167/6
f  69/169/100 89/168/101 90/171/102
f  91/172/103 90/171/102 89/168/101
f  89/168/101 13/170/17 91/172/103
f  90/171/102 67/173/99 69/169/100
f  67/173/99 90/171/102 92/174/25
f  93/175/104 92/174/25 90/171/102
f  90/171/102 91/172/103 93/175/104
f  94/176/105 91/172/103 13/170/17
f  95/177/4 93/175/104 91/172/103
f  91/172/103 94/176/105 95/177/4
f  96/178/48 13/170/17 12/167/6
f  13/170/17 96/178/48 94/176/105
f  18/179/21 97/180/59 94/176/105
f  94/176/105 96/178/48 18/179/21
f  95/177/4 94/176/105 97/180/59
f  12/167/6 18/179/21 96/178/48
f  12/167/6 98/181/45 18/179/21
f  97/180/59 18/179/21 98/181/45
f  98/181/45 99/182/106 97/180/59
f  100/183/107 97/180/59 99/182/106
f  97/180/59 100/183/107 95/177/4
f  88/184/46 98/181/45 12/167/6
f  99/182/106 98/181/45 88/184/46
f  88/184/46 87/185/87 99/182/106
f  101/186/108 99/182/106 87/185/87
f  99/182/106 101/186/108 100/183/107
f  100/183/107 101/186/108 102/187/11
f  102/187/11 103/188/53 100/183/107
f  95/177/4 100/183/107 103/188/53
f  101/186/108 111/189/88 113/190/92
f  113/190/92 102/187/11 101/186/108
f  102/187/11 113/190/92 80/191/93
f  80/191/93 104/192/109 102/187/11
f  103/188/53 102/187/11 104/192/109
f  104/192/109 20/193/23 103/188/53
f  106/194/52 103/188/53 20/193/23
f  103/188/53 106/194/52 95/177/4
f  107/195/56 93/175/104 95/177/4
f  95/177/4 106/194/52 107/195/56
f  16/196/19 107/195/56 106/194/52
f  106/194/52 105/197/110 16/196/19
f  20/193/23 105/197/110 106/194/52
f  20/193/23 104/192/109 14/198/12
f  105/197/110 20/193/23 14/198/12
f  14/198/12 104/192/109 80/191/93
f  14/198/12 16/196/19 105/197/110
f  14/198/12 108/199/111 16/196/19
f  107/195/56 16/196/19 108/199/111
f  108/199/111 109/200/14 107/195/56
f  93/175/104 107/195/56 109/200/14
f  109/200/14 92/174/25 93/175/104
f  77/201/98 116/202/68 109/200/14
f  109/200/14 108/199/111 77/201/98
f  92/174/25 109/200/14 116/202/68
f  77/201/98 108/199/111 14/198/12
f  116/202/68 117/203/97 92/174/25
f  87/185/87 111/189/88 101/186/108
f  92/174/25 117/203/97 67/173/99
f  118/204/93 119/205/84 78/206/64
f  78/206/64 68/207/60 118/204/93
f  118/204/93 120/208/20 119/205/84
f  119/205/84 121/209/6 74/210/2
f  74/210/2 78/206/64 119/205/84
f  119/205/84 120/208/20 121/209/6
f  66/206/59 74/210/2 121/209/6
f  121/209/6 122/205/112 66/206/59
f  122/205/112 121/209/6 120/208/20
f  66/206/59 122/205/112 118/204/93
f  122/205/112 120/208/20 118/204/93
f  118/204/93 68/207/60 66/206/59
f  123/205/66 124/209/30 79/210/9
f  79/210/9 82/206/65 123/205/66
f  86/207/68 125/204/98 123/205/66
f  123/205/66 82/206/65 86/207/68
f  126/208/113 124/209/30 123/205/66
f  125/204/98 126/208/113 123/205/66
f  124/209/30 127/205/75 81/206/16
f  81/206/16 79/210/9 124/209/30
f  126/208/113 127/205/75 124/209/30
f  86/207/68 81/206/16 127/205/75
f  127/205/75 125/204/98 86/207/68
f  125/204/98 127/205/75 126/208/113

