# File produced by Open Asset Import Library (http://www.assimp.sf.net)
# (assimp v3.1.187496374)

mtllib table.obj.mtl

# 42 vertex positions
v  0.00115204 0.0377837 0.0758553
v  0.00115204 0.0377837 21.4999
v  -14.9903 0.0377837 15.4365
v  -21.4731 0.0377837 0.0758553
v  -15.3955 0.0377837 -14.8806
v  0.00115204 0.0377837 -21.7524
v  15.3978 0.0377837 -15.689
v  21.8806 0.0377837 0.0758553
v  15.803 0.0377837 15.4365
v  0.00115204 6.36679 8.16041
v  -5.6713 6.36679 5.73504
v  -8.10235 6.36679 0.0758553
v  -5.6713 6.36679 -5.58333
v  -8.10235 48.9821 0.0758553
v  -6.07647 48.9821 -5.58333
v  0.00115204 6.36679 -8.41293
v  -0.404022 48.9821 -8.41293
v  -6.07647 48.9821 5.73504
v  -0.404022 48.9821 8.16041
v  5.6736 6.36679 -5.98756
v  8.10465 6.36679 0.0758553
v  5.6736 6.36679 5.73504
v  8.10465 48.9821 0.0758553
v  5.6736 48.9821 5.73504
v  5.6736 48.9821 -5.98756
v  -2.4299 48.9821 51.0086
v  -38.0853 48.9821 36.4564
v  34.8462 48.9821 36.4564
v  49.8377 48.9821 0.0758553
v  34.0359 48.9821 -37.1131
v  -2.4299 48.9821 -52.0695
v  -38.4905 48.9821 -35.4962
v  -53.0768 48.9821 0.0758553
v  -2.4299 53.8343 51.0086
v  -38.0853 53.8343 36.4564
v  -53.482 53.8343 0.0758553
v  -38.8957 53.8343 -35.4962
v  -2.4299 53.8343 -52.0695
v  34.8462 53.8343 36.4564
v  49.4325 53.8343 0.0758553
v  34.0359 53.8343 -37.1131
v  -0.404022 53.8343 0.0758553

# 80 UV coordinates
vt 0.691406 0.875 0
vt 0.773438 0.875 0
vt 0.75 0.800781 0
vt 0.691406 0.765625 0
vt 0.636719 0.796875 0
vt 0.609375 0.875 0
vt 0.632812 0.953125 0
vt 0.691406 0.984375 0
vt 0.75 0.953125 0
vt 0.441406 0.046875 0
vt 0.601562 0.136719 0
vt 0.628906 0.136719 0
vt 0.515625 0.046875 0
vt 0.699219 0.136719 0
vt 0.699219 0.046875 0
vt 0.765625 0.136719 0
vt 0.699219 0.738281 0
vt 0.765625 0.738281 0
vt 0.878906 0.046875 0
vt 0.796875 0.136719 0
vt 0.960938 0.046875 0
vt 0.796875 0.738281 0
vt 0.628906 0.738281 0
vt 0.601562 0.738281 0
vt 0.601562 0.132812 0
vt 0.628906 0.132812 0
vt 0.511719 0.0429688 0
vt 0.4375 0.0429688 0
vt 0.699219 0.132812 0
vt 0.699219 0.0429688 0
vt 0.765625 0.132812 0
vt 0.699219 0.734375 0
vt 0.765625 0.734375 0
vt 0.882812 0.0429688 0
vt 0.792969 0.132812 0
vt 0.953125 0.0429688 0
vt 0.792969 0.734375 0
vt 0.628906 0.734375 0
vt 0.601562 0.734375 0
vt 0.332031 0.453125 0
vt 0.546875 0.4375 0
vt 0.472656 0.199219 0
vt 0.320312 0.414062 0
vt 0.320312 0.492188 0
vt 0.476562 0.6875 0
vt 0.289062 0.507812 0
vt 0.292969 0.789062 0
vt 0.261719 0.488281 0
vt 0.105469 0.683594 0
vt 0.25 0.453125 0
vt 0.03125 0.4375 0
vt 0.261719 0.414062 0
vt 0.113281 0.191406 0
vt 0.289062 0.398438 0
vt 0.292969 0.09375 0
vt 0.03125 0.816406 0
vt 0.03125 0.925781 0
vt 0.101562 0.925781 0
vt 0.101562 0.816406 0
vt 0.285156 0.925781 0
vt 0.285156 0.816406 0
vt 0.464844 0.925781 0
vt 0.464844 0.816406 0
vt 0.546875 0.925781 0
vt 0.546875 0.816406 0
vt 0.476562 0.816406 0
vt 0.476562 0.925781 0
vt 0.292969 0.816406 0
vt 0.292969 0.925781 0
vt 0.105469 0.816406 0
vt 0.105469 0.925781 0
vt 0.292969 0.425781 0
vt 0.03125 0.441406 0
vt 0.113281 0.6875 0
vt 0.292969 0.785156 0
vt 0.472656 0.679688 0
vt 0.546875 0.441406 0
vt 0.476562 0.191406 0
vt 0.292969 0.0898438 0
vt 0.105469 0.195312 0

# 35 vertex normals
vn 0 -1 0
vn -0.238856 0.442863 0.864188
vn -0.688191 0.425325 0.587785
vn -0.850651 0.525731 0
vn -0.716567 -0.147621 -0.681718
vn -0.238856 0.442863 -0.864188
vn 0.425325 0.587785 -0.688191
vn 0.681718 0.716567 -0.147621
vn 0.425325 0.587785 0.688191
vn 0 0.525731 0.850651
vn -0.425325 0.587785 -0.688191
vn -0.681718 -0.716567 0.147621
vn -0.587785 -0.688191 -0.425325
vn 0 0.525731 -0.850651
vn -0.147621 -0.681718 -0.716567
vn -0.309017 -0.809017 0.5
vn 0.147621 -0.681718 0.716567
vn 0.688191 0.425325 -0.587785
vn 0.850651 0.525731 0
vn 0.681718 -0.716567 -0.147621
vn 0.587785 -0.688191 0.425325
vn 0.309017 -0.809017 -0.5
vn -0.147621 -0.681718 0.716567
vn -0.587785 -0.688191 0.425325
vn 0.309017 -0.809017 0.5
vn 0.681718 -0.716567 0.147621
vn 0.587785 -0.688191 -0.425325
vn 0.147621 -0.681718 -0.716567
vn -0.309017 -0.809017 -0.5
vn -0.681718 -0.716567 -0.147621
vn -0.425325 0.587785 0.688191
vn -0.688191 0.425325 -0.587785
vn -0.147621 0.681718 -0.716567
vn 0.587785 0.688191 0.425325
vn 0 1 0

# Mesh '' with 80 faces
usemtl $Material_0
f  1/1/1 2/2/2 3/3/3
f  3/3/3 4/4/4 1/1/1
f  1/1/1 4/4/4 5/5/5
f  5/5/5 6/6/6 1/1/1
f  1/1/1 6/6/6 7/7/7
f  7/7/7 8/8/8 1/1/1
f  1/1/1 8/8/8 9/9/9
f  9/9/9 2/2/2 1/1/1
f  2/10/2 10/11/10 11/12/3
f  11/12/3 3/13/3 2/10/2
f  3/13/3 11/12/3 12/14/4
f  12/14/4 4/15/4 3/13/3
f  4/15/4 12/14/4 13/16/11
f  14/17/12 12/14/4 11/12/3
f  12/14/4 14/17/12 15/18/13
f  15/18/13 13/16/11 12/14/4
f  13/16/11 5/19/5 4/15/4
f  13/16/11 16/20/14 6/21/6
f  6/21/6 5/19/5 13/16/11
f  13/16/11 15/18/13 17/22/15
f  17/22/15 16/20/14 13/16/11
f  11/12/3 18/23/16 14/17/12
f  18/23/16 11/12/3 10/11/10
f  10/11/10 19/24/17 18/23/16
f  16/25/14 20/26/18 7/27/7
f  7/27/7 6/28/6 16/25/14
f  20/26/18 21/29/19 8/30/8
f  8/30/8 7/27/7 20/26/18
f  8/30/8 21/29/19 22/31/9
f  23/32/20 21/29/19 20/26/18
f  21/29/19 23/32/20 24/33/21
f  24/33/21 22/31/9 21/29/19
f  22/31/9 9/34/9 8/30/8
f  9/34/9 22/31/9 10/35/10
f  10/35/10 2/36/2 9/34/9
f  22/31/9 24/33/21 19/37/17
f  19/37/17 10/35/10 22/31/9
f  20/26/18 25/38/22 23/32/20
f  25/38/22 20/26/18 16/25/14
f  16/25/14 17/39/15 25/38/22
f  19/40/17 26/41/23 27/42/24
f  27/42/24 18/43/16 19/40/17
f  26/41/23 19/40/17 24/44/21
f  24/44/21 28/45/25 26/41/23
f  23/46/20 29/47/26 28/45/25
f  28/45/25 24/44/21 23/46/20
f  25/48/22 29/47/26 23/46/20
f  30/49/27 29/47/26 25/48/22
f  30/49/27 25/48/22 17/50/15
f  17/50/15 31/51/28 30/49/27
f  31/51/28 17/50/15 15/52/13
f  15/52/13 32/53/29 31/51/28
f  32/53/29 15/52/13 14/54/12
f  14/54/12 33/55/30 32/53/29
f  33/55/30 14/54/12 18/43/16
f  18/43/16 27/42/24 33/55/30
f  26/56/23 34/57/10 35/58/31
f  35/58/31 27/59/24 26/56/23
f  27/59/24 35/58/31 36/60/4
f  36/60/4 33/61/30 27/59/24
f  33/61/30 36/60/4 37/62/32
f  37/62/32 32/63/29 33/61/30
f  32/63/29 37/62/32 38/64/33
f  38/64/33 31/65/28 32/63/29
f  28/66/25 39/67/34 34/64/10
f  34/64/10 26/65/23 28/66/25
f  39/67/34 28/66/25 29/68/26
f  29/68/26 40/69/19 39/67/34
f  40/69/19 29/68/26 30/70/27
f  30/70/27 41/71/7 40/69/19
f  41/71/7 30/70/27 31/56/28
f  31/56/28 38/57/33 41/71/7
f  42/72/35 38/73/33 37/74/32
f  37/74/32 36/75/4 42/72/35
f  42/72/35 36/75/4 35/76/31
f  35/76/31 34/77/10 42/72/35
f  42/72/35 34/77/10 39/78/34
f  39/78/34 40/79/19 42/72/35
f  42/72/35 40/79/19 41/80/7
f  41/80/7 38/73/33 42/72/35

